<svg width="32" height="32" viewBox="0 0 32 32" fill="none" xmlns="http://www.w3.org/2000/svg">
<path d="M25.221 28.2242C25.1297 28.1061 25.0371 27.954 24.9205 27.8431C24.5275 27.469 24.0811 27.2865 23.5911 27.2704C23.4732 27.2668 23.4142 27.3527 23.4198 27.4726C23.4241 27.5442 23.4928 27.6498 23.5476 27.6712C23.8045 27.7679 24.0726 27.8216 24.3281 27.9254C24.5022 27.9952 24.6665 28.1115 24.8279 28.2242C24.9978 28.3423 25.0006 28.4623 24.8644 28.6341C24.4657 29.1405 23.9996 29.2479 23.476 29.0188C23.1587 28.8792 22.8401 28.745 22.5242 28.6072C22.4835 28.5893 22.4442 28.5553 22.4077 28.5249C22.169 28.3245 21.9233 28.1813 21.6215 28.2242C21.4011 28.2564 21.1737 28.2779 20.9575 28.235C20.7918 28.2028 20.6234 28.09 20.4872 27.9594C20.3833 27.8592 20.3173 27.682 20.2556 27.5245C20.2317 27.4637 20.2528 27.3563 20.2794 27.2865C20.3047 27.2203 20.3581 27.1648 20.4072 27.1201C20.7596 26.8087 21.0487 26.4006 21.2958 25.9729C21.5499 25.5345 21.7773 25.0531 21.8784 24.5001C21.9935 23.8648 21.9739 23.2312 21.8939 22.5959C21.8742 22.4438 21.8279 22.2917 21.7731 22.1521C21.5878 21.6779 21.4222 21.1804 21.0235 20.9119C21.0094 20.903 20.9954 20.8851 20.987 20.869C20.8045 20.5468 20.5925 20.2748 20.2837 20.1531C20.1503 20.1012 20.1601 19.9957 20.2443 19.8793C20.2668 19.8489 20.2963 19.8113 20.2991 19.7737C20.3075 19.6843 20.3314 19.55 20.2963 19.5107C20.2415 19.448 20.1348 19.4087 20.0647 19.4319C19.9425 19.4731 19.8344 19.5769 19.7151 19.6377C19.6379 19.6771 19.5508 19.6878 19.468 19.7111C19.4624 19.6896 19.4554 19.6699 19.4498 19.6485C19.6309 19.5196 19.8134 19.3908 19.9931 19.2601C20.125 19.1653 20.257 19.0722 20.3861 18.972C20.4998 18.8825 20.5518 18.7483 20.4844 18.589C20.417 18.428 20.3005 18.4673 20.205 18.53C19.9832 18.6767 19.7741 18.861 19.548 18.9917C19.2855 19.1438 19.0146 19.3031 18.7338 19.3693C18.5583 19.4105 18.359 19.287 18.1709 19.2387C18.1681 19.2172 18.1638 19.1957 18.161 19.176C18.2144 19.1474 18.2677 19.0991 18.3225 19.0937C18.9823 19.0382 19.5256 18.6391 20.0366 18.1488C20.0815 18.1058 20.1391 18.0593 20.1545 18.0002C20.1756 17.9161 20.191 17.7891 20.1559 17.7336C20.125 17.6835 20.0113 17.6728 19.9552 17.705C19.8442 17.7676 19.7516 17.8803 19.6435 17.9555C19.3262 18.1756 19.0174 18.4226 18.6847 18.5908C18.1652 18.8557 17.6669 18.7644 17.2289 18.292C17.2008 18.2615 17.1826 18.215 17.1306 18.1255C17.2233 18.1363 17.2794 18.1291 17.3286 18.1488C17.4633 18.2025 17.5967 18.2705 17.7301 18.3277C17.7666 18.3438 17.8073 18.3438 17.8452 18.36C18.5331 18.6588 19.0398 18.2347 19.5059 17.6728C19.6772 17.4669 19.8344 17.245 19.9931 17.0249C20.0689 16.9193 20.198 16.7923 20.1026 16.6509C20.0043 16.5041 19.9102 16.6867 19.8386 16.7636C19.6337 16.982 19.4329 17.2128 19.2406 17.4491C18.9205 17.8428 18.5513 17.9824 18.1063 17.8034C18.1484 17.7819 18.1947 17.7318 18.2312 17.7408C18.665 17.8499 18.9163 17.4902 19.176 17.1556C19.242 17.0697 19.2953 16.9659 19.3459 16.8639C19.3712 16.8137 19.4034 16.7261 19.3866 16.6903C19.2729 16.4397 19.4119 16.293 19.5256 16.1605C19.8583 15.7722 20.1896 15.3785 20.5476 15.0295C20.8017 14.7808 21.06 14.5231 21.3913 14.4264C21.5106 14.3906 21.6089 14.2528 21.7268 14.192C22.0834 14.0041 22.4428 13.818 22.8429 13.8537C22.8485 13.8537 22.8541 13.8555 22.8597 13.852C23.243 13.673 23.636 13.7607 24.0235 13.8018C24.3169 13.8323 24.6075 13.9164 24.8967 13.9933C25.2476 14.0864 25.5944 14.1956 25.944 14.2976C25.9987 14.3137 26.0563 14.319 26.1054 14.3495C26.3693 14.5141 26.6375 14.6734 26.893 14.8577C27.3225 15.1673 27.7479 15.4841 28.1676 15.8151C28.5383 16.1068 28.8766 16.4773 29.2654 16.7135C29.5785 16.9032 29.8312 17.1645 30.0881 17.4365C30.2144 17.569 30.192 17.8123 30.0741 17.9519C29.98 18.0629 29.921 18.2222 29.8396 18.3546C29.7779 18.4566 29.7203 18.5962 29.6361 18.6356C29.4606 18.7179 29.2697 18.7555 29.0829 18.7913C28.8654 18.8324 28.645 18.8628 28.4245 18.8789C28.2196 18.8933 28.0132 18.8807 27.8069 18.8807C27.4671 18.8825 27.126 18.8789 26.7863 18.8897C26.6192 18.895 26.4507 18.9255 26.2851 18.9595C26.2416 18.9684 26.2065 19.0346 26.1672 19.074C26.2107 19.108 26.2528 19.1706 26.2963 19.1706C26.6599 19.1742 27.0249 19.1581 27.3885 19.1617C27.6454 19.1653 27.9009 19.1975 28.1578 19.2082C28.2799 19.2136 28.4035 19.2172 28.5242 19.1939C28.8429 19.1331 29.1293 19.312 29.4297 19.3818C29.5504 19.4105 29.6712 19.4337 29.7919 19.4606C29.8129 19.4659 29.8452 19.4588 29.8565 19.4749C30.0783 19.7898 30.4068 19.9491 30.5935 20.3249C30.6861 20.5128 30.8392 20.6506 30.9557 20.8224C31.2098 21.1965 31.3305 21.6331 31.3165 22.1306C31.3109 22.349 31.3066 22.5709 31.3263 22.7874C31.3403 22.936 31.3024 23.004 31.2014 23.038C31.1578 23.0523 31.1143 23.0791 31.0708 23.0791C30.6974 23.0702 30.491 23.378 30.2734 23.7073C30.0193 24.092 29.7231 24.4106 29.2697 24.3175C28.972 24.2567 28.666 24.2656 28.3656 24.2227C28.1508 24.1923 27.9388 24.1046 27.724 24.0831C27.5373 24.0634 27.3478 24.0903 27.1611 24.1207C27.1091 24.1296 27.0305 24.2173 27.0277 24.2746C27.0235 24.3497 27.0684 24.4661 27.119 24.4983C27.22 24.5663 27.3394 24.5949 27.4531 24.6325C27.7282 24.722 28.0245 24.756 28.2729 24.9117C28.4568 25.0262 28.6421 25.0835 28.8303 25.1533C28.8569 25.164 28.878 25.2034 28.9005 25.2284C28.8766 25.2624 28.8541 25.3197 28.826 25.3251C28.3094 25.436 28.0273 25.8942 27.7942 26.4328C27.6258 26.823 27.352 27.052 27.0305 27.1898C26.8185 27.2793 26.5939 27.3223 26.3848 27.4243C26.184 27.5227 25.9959 27.6623 25.8064 27.7947C25.6098 27.9343 25.4189 28.0793 25.221 28.2242ZM20.4788 19.4391C20.5995 19.4194 20.7076 19.3997 20.8157 19.3836C21.06 19.346 21.3042 19.287 21.5485 19.278C21.8953 19.2637 22.2434 19.3049 22.5888 19.2888C23.198 19.2583 23.7961 19.3246 24.3829 19.5447C24.4306 19.5626 24.4966 19.5071 24.5541 19.4856C24.5191 19.4319 24.4924 19.3442 24.4489 19.3281C24.1176 19.2029 23.7876 19.0472 23.4479 18.9863C23.0296 18.9112 22.6014 18.9112 22.1774 18.8933C21.6721 18.8736 21.1681 18.895 20.6908 19.1474C20.5967 19.1939 20.4844 19.2279 20.4788 19.4391Z" fill="#502D5C"/>
<path d="M11.3833 15.2675C11.3201 15.2622 11.2822 15.2657 11.2471 15.255C10.6533 15.0725 10.0622 14.8846 9.46702 14.7092C9.33786 14.6716 9.20029 14.668 9.06692 14.677C9.02059 14.6805 8.95602 14.7539 8.94058 14.813C8.92934 14.8541 8.97567 14.9597 9.01358 14.9776C9.21573 15.076 9.41788 15.1798 9.62846 15.2389C10.2574 15.4161 10.8905 15.57 11.5208 15.7436C11.5924 15.7633 11.6697 15.8366 11.7118 15.9136C11.9195 16.2912 12.1119 16.6831 12.3182 17.0607C12.366 17.1466 12.4474 17.2021 12.5471 17.3095C12.2242 17.3793 11.9392 17.4312 11.6556 17.5045C11.2232 17.6173 10.7908 17.73 10.3641 17.8696C10.0187 17.9824 9.67619 18.1184 9.34067 18.2759C9.16098 18.36 8.99392 18.5013 8.83248 18.6356C8.79036 18.6714 8.78335 18.7787 8.76088 18.8521C8.81704 18.8503 8.88021 18.87 8.92935 18.8467C9.26908 18.6821 9.59758 18.4727 9.94573 18.3439C10.541 18.1255 11.146 17.9448 11.7511 17.7712C12.1048 17.6692 12.467 17.6065 12.825 17.5314C12.8784 17.5206 12.9429 17.5135 12.9879 17.5421C13.3023 17.7515 13.6308 17.7945 13.979 17.7354C14.0997 17.7157 14.2289 17.7837 14.3987 17.8213C14.3426 17.9663 14.3187 18.1094 14.2513 18.1882C14.0141 18.4673 13.7712 18.7429 13.5115 18.9863C13.1788 19.2977 12.8362 19.5912 12.4839 19.8632C12.2916 20.0118 12.0754 20.1209 11.8606 20.214C11.5868 20.3339 11.3061 20.4341 11.0239 20.5164C10.7965 20.5809 10.5606 20.6095 10.329 20.6435C10.1156 20.6757 9.89519 20.6668 9.68602 20.7222C9.32804 20.8171 8.99533 20.9835 8.7314 21.3397C8.41273 21.7709 8.20917 22.2559 8.12073 22.8447C8.04633 23.3351 7.83154 23.7538 7.53252 24.0867C7.03275 24.6397 6.73092 25.3555 6.49508 26.1268C6.43471 26.3255 6.39821 26.5384 6.33364 26.7335C6.30696 26.8123 6.23537 26.9089 6.17641 26.9178C5.78473 26.9823 5.45904 27.24 5.13616 27.4905C4.99577 27.5997 4.89048 27.5925 4.77116 27.4744C4.72764 27.4315 4.67991 27.3796 4.62797 27.3634C4.24191 27.2507 3.92885 26.95 3.59754 26.7049C3.34906 26.5205 3.15533 26.2199 2.90966 26.0266C2.64153 25.8154 2.46183 25.5291 2.35093 25.173C2.27231 24.9224 2.22178 24.6558 2.18106 24.3909C2.10666 23.9113 1.94803 23.5069 1.64058 23.1973C1.33876 22.8948 1.04816 22.5727 0.75195 22.2577C0.580681 22.0752 0.577873 21.9785 0.700008 21.7513C0.920411 21.3343 1.2082 21.0193 1.54512 20.7598C1.80764 20.5558 2.09122 20.359 2.29056 20.0726C2.61766 19.6037 3.06689 19.6216 3.474 19.4731C3.71968 19.3836 3.9822 19.3765 4.23489 19.3138C4.29525 19.2977 4.34579 19.2082 4.39914 19.151C4.33877 19.1062 4.27841 19.0239 4.21664 19.0221C3.64949 19.0042 3.10339 19.1528 2.56712 19.3729C2.44639 19.423 2.36076 19.4105 2.24424 19.3264C1.99435 19.142 1.71078 19.0311 1.46651 18.836C1.25172 18.666 1.06501 18.4333 0.882508 18.2096C0.787046 18.0915 0.810912 17.9251 0.920411 17.8374C1.18574 17.6244 1.40193 17.3524 1.58724 17.0339C1.70095 16.8388 1.8666 16.8102 2.03366 16.7941C2.67662 16.7314 3.31958 16.6813 3.96114 16.6151C4.03554 16.6079 4.16329 16.5417 4.16891 16.488C4.18435 16.3019 4.05239 16.3109 3.95412 16.3127C3.36029 16.3198 2.76647 16.3341 2.17264 16.3449C2.14176 16.3449 2.10947 16.3341 2.06314 16.3252C2.20774 15.9744 2.33128 15.6272 2.49412 15.3123C2.54606 15.2121 2.69768 15.1655 2.80858 15.1512C3.30975 15.0832 3.81233 15.0367 4.31491 14.9812C4.36545 14.9758 4.4216 14.9937 4.46512 14.9705C4.51847 14.9418 4.56198 14.8828 4.61112 14.8362C4.56198 14.7897 4.51425 14.7056 4.46372 14.7038C3.99483 14.6752 3.52454 14.6609 3.05426 14.6448C2.98266 14.643 2.90966 14.6591 2.79314 14.6734C2.8156 14.566 2.81701 14.473 2.8507 14.4085C2.95037 14.2188 3.06408 14.0417 3.16937 13.8573C3.35327 13.5352 3.54139 13.2149 3.71687 12.8838C3.89656 12.5456 4.16329 12.3809 4.44687 12.2377C4.80906 12.0552 5.16985 11.8655 5.53204 11.6812C5.56854 11.6633 5.60644 11.6382 5.64294 11.6364C6.14412 11.6168 6.64389 11.504 7.14646 11.6418C7.36406 11.7009 7.58727 11.7044 7.77117 11.9049C7.8189 11.9568 7.93262 11.9711 7.99438 11.9371C8.25971 11.7921 8.48994 11.9532 8.7314 12.0373C9.03323 12.1411 9.30558 12.3738 9.63548 12.3666C9.69725 12.3648 9.76042 12.4382 9.82079 12.4829C9.91765 12.5527 10.0117 12.6332 10.11 12.6995C10.2644 12.805 10.4216 12.9017 10.5775 13.0055C10.6266 13.0377 10.6673 13.0914 10.7178 13.1218C11.1264 13.3706 11.3847 13.8502 11.7314 14.1938C11.7511 14.2135 11.7595 14.2493 11.7918 14.319C11.6374 14.319 11.511 14.3137 11.3847 14.3208C11.2429 14.328 11.1643 14.4515 11.1123 14.6C11.0618 14.7468 11.0997 14.8971 11.2092 14.9418C11.3482 14.9955 11.3412 15.1208 11.3833 15.2675ZM11.1292 19.142C11.2078 19.0991 11.2808 19.0651 11.3496 19.0203C11.8156 18.7179 12.2817 18.4137 12.7478 18.1094C12.7927 18.0808 12.8433 18.0611 12.8798 18.0199C12.905 17.9913 12.9261 17.9269 12.9163 17.8911C12.9092 17.8625 12.8559 17.8374 12.8222 17.8356C12.7787 17.832 12.7324 17.8464 12.6916 17.866C12.2733 18.0826 11.8536 18.292 11.4422 18.5264C11.3018 18.6069 11.1797 18.7447 11.0604 18.87C11.0267 18.904 11.0155 18.9971 11.0211 19.0579C11.0239 19.0883 11.0871 19.1116 11.1292 19.142ZM2.20774 24.1583C2.22318 24.1976 2.23301 24.2603 2.26249 24.2907C2.28214 24.3104 2.34391 24.3014 2.36356 24.2764C2.62468 23.9578 2.88299 23.6339 3.13849 23.3082C3.16376 23.276 3.16095 23.2098 3.17077 23.1579C3.13006 23.1507 3.08233 23.1239 3.05004 23.1418C2.71312 23.3297 2.46043 23.6482 2.24845 24.0223C2.2302 24.0545 2.22458 24.0992 2.20774 24.1583ZM9.91765 16.8997C10.2349 16.8603 10.5129 16.8281 10.7908 16.7851C10.8372 16.778 10.8779 16.7207 10.9214 16.6867C10.8737 16.6509 10.8259 16.5829 10.7782 16.5829C10.4932 16.5829 10.2068 16.5883 9.92327 16.6133C9.84886 16.6205 9.77727 16.701 9.70427 16.7475C9.78288 16.7994 9.86009 16.8495 9.93871 16.8997C9.94432 16.905 9.95134 16.9032 9.91765 16.8997Z" fill="#502D5C"/>
<path d="M13.6969 19.7595C13.3866 20.1138 13.0778 20.4664 12.7675 20.8207C12.7816 20.8422 12.7942 20.8637 12.8082 20.8851C13.2027 20.6257 13.5705 20.3125 13.8583 19.8687C14.1391 19.4356 14.3988 18.9828 14.6768 18.5247C14.7863 18.7806 14.7385 18.9416 14.563 19.0275C14.5294 19.0436 14.49 19.0794 14.4774 19.1188C14.2837 19.7649 13.8555 20.1711 13.5144 20.6668C13.4596 20.7456 13.44 20.8637 13.4035 20.9639C13.4779 20.9209 13.5691 20.8995 13.6239 20.8315C14.0015 20.3501 14.4283 19.9206 14.6487 19.2638C14.5883 19.8508 14.483 20.4181 14.2654 20.9388C14.0506 21.4524 13.8204 21.9553 13.5649 22.5334C13.6646 22.4868 13.7516 22.4815 13.7811 22.426C14.0647 21.8963 14.3876 21.3898 14.5995 20.8154C14.7764 20.3357 14.8185 19.7756 14.9168 19.2512C14.9351 19.1564 14.9393 19.0562 14.9884 18.9488C15.0081 19.0293 15.0333 19.1099 15.046 19.1922C15.1751 20.0261 15.272 20.869 15.4405 21.6905C15.5808 22.3705 15.8026 23.0237 15.9922 23.6877C16.016 23.7718 16.0595 23.8577 16.1129 23.9149C16.1452 23.9507 16.2126 23.9328 16.2631 23.94C16.2673 23.8827 16.287 23.8147 16.2715 23.7682C15.8799 22.6139 15.6566 21.3988 15.4868 20.1657C15.3801 19.3998 15.2959 18.6285 15.1976 17.8607C15.1878 17.7856 15.1414 17.7176 15.1358 17.6442C15.1316 17.5941 15.1695 17.5386 15.1892 17.4867C15.22 17.5189 15.2664 17.5458 15.279 17.5869C15.3015 17.6585 15.3113 17.7408 15.3113 17.8178C15.3099 18.2186 15.5064 18.5229 15.6117 18.8718C15.6903 19.1349 15.8448 19.2602 16.016 19.3801C16.4667 19.7004 16.9454 19.8525 17.462 19.7774C17.4999 19.772 17.5406 19.7756 17.5785 19.7881C17.9842 19.908 18.3913 20.0208 18.7942 20.155C18.9262 20.1997 19.0413 20.3125 19.1705 20.3715C19.3319 20.4431 19.5018 20.4807 19.6632 20.5523C19.7938 20.6095 19.9299 20.6704 20.0394 20.7724C20.3174 21.0337 20.5869 21.3129 20.8481 21.601C20.9154 21.6744 20.9449 21.8032 20.9913 21.907C21.0671 22.0806 21.1485 22.2506 21.2131 22.4296C21.5738 23.421 21.4082 24.3695 21.0376 25.284C20.8116 25.8405 20.4774 26.288 20.0675 26.6441C19.871 26.8141 19.6997 27.0324 19.5228 27.2364C19.1157 27.7035 18.717 28.1813 18.3071 28.6449C18.0586 28.924 18.0319 28.9383 17.8087 28.6073C17.5785 28.2637 17.3946 27.87 17.191 27.4977C17.1461 27.4154 17.1096 27.3277 17.0591 27.2525C17.0394 27.2221 16.9931 27.2221 16.9594 27.206C16.9496 27.2508 16.9215 27.3044 16.9313 27.3384C17.1307 28.0042 17.3005 28.6932 17.7666 29.1638C17.8129 29.2104 17.8789 29.316 17.8649 29.3482C17.82 29.4555 17.7568 29.5969 17.6782 29.6256C17.5546 29.6703 17.4255 29.6703 17.2823 29.5683C17.1461 29.4716 16.9384 29.4555 16.7811 29.5056C16.3824 29.6327 16.0638 29.9548 15.7563 30.2949C15.4755 30.6063 15.1878 30.9141 14.7919 30.9713C14.7119 30.9821 14.6403 31.0662 14.5602 31.0912C14.2893 31.1753 14.017 31.2523 13.7432 31.3239C13.6028 31.3615 13.5144 31.2559 13.433 31.1235C13.3585 31.0018 13.2855 30.8675 13.1873 30.787C13.1185 30.7297 13.0062 30.7637 12.9177 30.7405C12.8265 30.7154 12.717 30.6993 12.6524 30.6277C12.4882 30.4434 12.4811 30.1052 12.6033 29.8743C12.6398 29.8063 12.6679 29.7186 12.6749 29.6363C12.7296 29.0135 12.7802 28.3889 12.8293 27.7644C12.8335 27.7089 12.8349 27.6427 12.8153 27.5961C12.7914 27.5407 12.7437 27.4995 12.7058 27.453C12.6805 27.5049 12.6384 27.555 12.63 27.6105C12.5429 28.1992 12.4629 28.788 12.3787 29.3786C12.3745 29.4054 12.359 29.4287 12.352 29.4466C12.2271 29.4126 12.1077 29.3893 11.994 29.3446C11.9547 29.3285 11.9196 29.2658 11.8957 29.2157C11.8466 29.1137 11.8284 28.9634 11.7596 28.9097C11.5827 28.7665 11.6346 28.5768 11.6529 28.3854C11.6866 28.0257 11.7048 27.6624 11.754 27.3044C11.7961 26.9966 11.8747 26.6978 11.9266 26.3917C11.9407 26.3058 11.9154 26.211 11.9084 26.1197C11.841 26.177 11.7385 26.2146 11.7118 26.2951C11.4956 26.9358 11.3272 27.6123 11.3665 28.3048C11.3946 28.7988 11.177 29.0976 11.0183 29.4591C11.0001 29.5021 10.9678 29.5361 10.9467 29.5772C10.805 29.8457 10.5396 29.817 10.3964 29.5379C10.1985 29.1495 10.2069 28.7433 10.2687 28.312C10.3585 27.6946 10.4133 27.07 10.5045 26.4526C10.5691 26.0124 10.6688 25.5793 10.753 25.1426C10.7671 25.0674 10.7825 24.9905 10.7979 24.9153C10.8372 24.7131 10.8794 24.5198 11.0296 24.391C11.0956 24.3337 11.1447 24.2371 11.1924 24.1512C11.2851 23.9812 11.2598 23.8326 11.1306 23.7038C11.0015 23.5749 10.8527 23.5499 10.7516 23.7002C10.5298 24.0277 10.2869 24.3391 10.2855 24.8276C10.2855 25.0299 10.2406 25.2428 10.1788 25.4307C9.97248 26.0732 10.0216 26.7694 9.89246 27.4261C9.81946 27.7984 9.72961 28.167 9.64257 28.5357C9.63134 28.584 9.59484 28.6359 9.55834 28.661C9.27617 28.856 8.99259 29.0511 8.7048 29.2336C8.60654 29.2963 8.49423 29.35 8.38613 29.3589C8.00008 29.3911 7.62244 29.5933 7.22515 29.4323C7.04686 29.3607 6.93736 29.2139 6.87138 29.0135C6.72117 28.5536 6.73381 28.0614 6.73521 27.5765C6.73521 27.4995 6.8026 27.3921 6.86015 27.3545C7.11706 27.1827 7.14092 27.0628 6.95842 26.7837C6.93456 26.7461 6.91771 26.6691 6.93035 26.628C7.06371 26.2217 7.18304 25.803 7.35009 25.42C7.47925 25.1247 7.66315 24.8652 7.83863 24.6057C7.98323 24.3928 8.18679 24.2317 8.3005 23.9973C8.4479 23.6948 8.53213 23.3405 8.64584 23.0112C8.74973 22.707 8.82413 22.3777 8.96592 22.1057C9.18773 21.6761 9.55132 21.4972 9.93598 21.4292C10.2294 21.3773 10.5284 21.3648 10.8246 21.363C11.1405 21.3612 11.4044 21.1625 11.6852 21.0337C11.9308 20.9209 12.1695 20.776 12.4067 20.6328C12.8251 20.3805 13.2533 20.1496 13.5972 19.7362C13.6112 19.7183 13.6365 19.7165 13.6576 19.7076C13.673 19.7237 13.6856 19.7416 13.6969 19.7595ZM16.9426 21.3182C16.9285 21.2878 16.9117 21.2144 16.8738 21.1715C16.5888 20.8619 16.4049 20.4556 16.2055 20.0619C16.1606 19.9742 16.1017 19.8794 16.0315 19.84C15.9641 19.8024 15.8742 19.8329 15.7942 19.8347C15.7998 19.9331 15.7816 20.0476 15.8153 20.1281C15.8841 20.2982 15.9655 20.4664 16.0666 20.606C16.287 20.9138 16.5158 21.2144 16.7573 21.4954C16.8569 21.6153 16.9468 21.5348 16.9426 21.3182ZM12.703 20.9854C12.6931 20.9639 12.6833 20.9424 12.6735 20.9227C12.5176 21.0068 12.3604 21.0892 12.2046 21.1769C11.8873 21.354 11.5715 21.5348 11.2542 21.7137C11.1686 21.7621 11.0689 21.7835 10.9987 21.8533C10.9594 21.8927 10.965 22.0072 10.951 22.0878C11.0113 22.0913 11.0787 22.1182 11.1292 22.0913C11.2107 22.0502 11.2752 21.9625 11.3553 21.9124C11.7118 21.6905 12.0726 21.4829 12.4264 21.2556C12.5261 21.1876 12.6103 21.0766 12.703 20.9854ZM14.9252 21.2556C14.8972 21.2538 14.8705 21.2538 14.8424 21.252C14.768 21.5437 14.7778 21.8515 14.7666 22.1558C14.7666 22.1754 14.8087 22.2184 14.8214 22.213C14.8494 22.2023 14.8859 22.1701 14.8901 22.1379C14.9126 21.9929 14.9351 21.8444 14.9407 21.6976C14.9463 21.5509 14.9309 21.4041 14.9252 21.2556Z" fill="#502D5C"/>
<path d="M20.8102 8.36149C20.6684 8.51361 20.514 8.65141 20.389 8.82321C20.0226 9.3243 19.6548 9.82717 19.3151 10.3569C19.0933 10.7023 18.915 11.096 18.7213 11.47C18.6595 11.5881 18.5977 11.7098 18.5514 11.8387C18.477 12.0445 18.404 12.1018 18.2426 11.9353C18.119 11.8065 17.9758 11.921 17.8537 12.0159C17.7947 12.0606 17.7386 12.1089 17.6796 12.1554C17.6656 12.1411 17.6515 12.1268 17.6375 12.1125C17.7007 11.9138 17.761 11.7116 17.8284 11.5148C18.0755 10.7971 18.3226 10.0777 18.5739 9.36188C18.6286 9.20618 18.7128 9.06481 18.7578 8.90553C18.7802 8.825 18.7423 8.71941 18.7325 8.62456C18.6637 8.66572 18.5612 8.68541 18.5346 8.75342C18.3675 9.17218 18.2032 9.59453 18.0671 10.0294C17.8284 10.7918 17.6108 11.5631 17.382 12.3308C17.3539 12.4257 17.3062 12.5116 17.2669 12.6028C17.2528 12.5975 17.2388 12.5921 17.2248 12.5867C17.2248 12.5348 17.2234 12.4847 17.2248 12.4346C17.2458 11.9854 17.2627 11.538 17.2936 11.0906C17.302 10.9761 17.3539 10.8651 17.3876 10.7524C17.4059 10.6916 17.4227 10.6325 17.4452 10.5752C17.5224 10.3802 17.5097 10.194 17.389 10.0437C17.2865 9.91486 17.0998 9.93992 16.937 10.0741C16.9145 10.092 16.8892 10.1046 16.8429 10.135C16.8036 9.92023 16.9005 9.76454 16.9454 9.60348C17.0198 9.33682 17.1237 9.08449 17.2107 8.82321C17.4943 7.96778 17.7947 7.12488 18.3057 6.43946C18.5514 6.11017 18.7999 5.78268 19.0582 5.46771C19.266 5.21359 19.4878 4.97736 19.704 4.73576C19.7362 4.69997 19.7798 4.6767 19.8191 4.65165C20.0998 4.47448 20.3778 4.29373 20.6628 4.1273C20.7667 4.06645 20.8846 4.0414 20.9969 4.00739C21.4265 3.87854 21.8518 3.72822 22.2856 3.63337C22.5313 3.57968 22.7882 3.61905 23.0409 3.61189C23.1013 3.6101 23.1616 3.58326 23.222 3.57431C23.3596 3.5582 23.4986 3.55105 23.6361 3.52957C23.733 3.51525 23.8299 3.48841 23.9253 3.46336C23.9464 3.45799 23.9646 3.43293 23.9857 3.42756C24.4293 3.30408 24.8729 3.17702 25.3179 3.06249C25.5917 2.99269 25.8682 2.92111 26.1462 2.89784C26.3498 2.87995 26.5575 2.93363 26.7611 2.96943C26.7892 2.97479 26.8383 3.08754 26.8257 3.11796C26.6488 3.56715 26.514 4.05571 26.1841 4.37784C26.142 4.419 26.0816 4.43153 26.0381 4.4709C25.9483 4.55322 25.8598 4.64091 25.7756 4.73397C25.7012 4.81629 25.6464 4.9362 25.5636 4.99346C25.2407 5.21895 24.9122 5.4355 24.5809 5.63951C24.1275 5.91869 23.667 6.17997 23.2122 6.45736C23.0816 6.53789 22.9581 6.63811 22.8387 6.74369C22.8093 6.76875 22.8107 6.84928 22.7966 6.90476C22.8415 6.91371 22.8949 6.9495 22.9286 6.92981C23.1307 6.80991 23.3273 6.67211 23.528 6.54863C23.653 6.47167 23.7835 6.40725 23.9113 6.33566C24.4251 6.04396 24.9347 5.73615 25.4555 5.46234C25.7279 5.31917 26.0213 5.24401 26.3034 5.12589C26.4508 5.06505 26.587 4.9362 26.7358 4.90935C27.0489 4.85387 27.3479 4.88788 27.5613 5.26548C27.6511 5.42476 27.7971 5.53034 27.8954 5.68246C28.0302 5.89005 28.1453 6.11912 28.2758 6.35356C28.2056 6.39472 28.134 6.44662 28.0568 6.48241C27.6848 6.65958 27.3128 6.83138 26.9408 7.00855C26.8734 7.04077 26.8018 7.07477 26.7442 7.12667C26.7049 7.16246 26.6839 7.23225 26.6544 7.28594C26.7035 7.30563 26.7555 7.35395 26.799 7.34142C27.0011 7.28594 27.2005 7.21615 27.4012 7.14993C27.8771 6.99424 28.3544 6.83854 28.8304 6.68285C28.9328 6.65063 28.9721 6.68822 28.9904 6.83675C29.0536 7.33426 29.1224 7.82998 29.215 8.31854C29.2669 8.58877 29.2234 8.82679 29.149 9.0666C29.1392 9.1006 29.0676 9.12028 29.0255 9.1167C28.791 9.10239 28.558 9.07375 28.3236 9.06123C28.0835 9.0487 27.842 9.05049 27.602 9.04512C27.5458 9.04333 27.4841 9.02364 27.4349 9.0487C27.3872 9.07196 27.3535 9.14176 27.3142 9.19187C27.3521 9.23303 27.3858 9.30282 27.4293 9.31177C27.9698 9.43346 28.5117 9.56589 29.062 9.40662C29.0859 9.39946 29.1139 9.41557 29.1687 9.4263C29.1308 9.64464 29.0971 9.85044 29.0606 10.0545C29.0367 10.1923 29.0002 10.3283 28.9848 10.4679C28.9399 10.8991 28.7981 11.2392 28.5061 11.4969C28.3839 11.606 28.2955 11.8136 28.2393 11.998C28.186 12.1805 28.113 12.3094 27.981 12.3935C27.8364 12.4865 27.6904 12.5778 27.5458 12.6726C27.237 12.8749 27.0124 13.2042 26.7723 13.512C26.6769 13.6337 26.5645 13.7375 26.4733 13.8323C25.7995 13.6605 25.1228 13.5012 24.4518 13.3133C23.9366 13.1684 23.4101 13.1433 22.8977 13.2077C22.3235 13.2811 21.7423 13.4225 21.251 13.8806C21.1752 13.9504 21.0839 13.9987 20.9955 14.0399C20.594 14.226 20.2472 14.5249 19.9356 14.8846C19.6211 15.2461 19.3291 15.6398 19.0231 16.0138C18.988 16.0568 18.9094 16.1123 18.8855 16.0944C18.7185 15.9548 18.5416 16.0353 18.3773 16.0639C17.9913 16.1301 17.608 16.2286 17.2135 16.3181C17.3371 16.1731 17.4662 16.0371 17.5813 15.885C17.9253 15.4322 18.1976 14.9347 18.265 14.2779C18.2791 14.1473 18.4405 13.9683 18.5528 13.9415C18.7943 13.886 18.8813 13.639 19.0203 13.4583C19.1719 13.2596 19.3095 13.0413 19.4597 12.8409C19.6647 12.5671 19.8794 12.3076 20.083 12.032C20.1321 11.9657 20.1546 11.8655 20.1883 11.7796C20.1686 11.7599 20.149 11.7403 20.1293 11.7206C19.9861 11.8673 19.8317 11.9998 19.7012 12.1644C19.4218 12.5152 19.1522 12.8784 18.8827 13.2417C18.8083 13.342 18.7816 13.3491 18.6946 13.2328C18.6033 13.1129 18.4489 13.0717 18.2889 12.9769C18.3591 12.7854 18.4321 12.5581 18.5233 12.3451C18.6735 11.9944 18.8448 11.6597 18.9908 11.3072C19.2561 10.6665 19.6422 10.1511 20.024 9.62853C20.2781 9.27956 20.5322 8.92701 20.7821 8.57445C20.8144 8.52971 20.827 8.4635 20.8481 8.40623C20.8383 8.39192 20.8242 8.37581 20.8102 8.36149Z" fill="#502D5C"/>
<path d="M16.9931 3.72645C16.9215 3.57612 16.8078 3.4598 16.732 3.31126C16.5635 2.98556 16.4007 2.65269 16.2449 2.31624C16.1663 2.14623 16.0638 2.07465 15.9136 2.10686C15.7816 2.13371 15.6482 2.15518 15.5177 2.19097C15.2159 2.2715 14.9421 2.16592 14.6712 2.00843C14.5518 1.93864 14.3342 2.01917 14.2458 2.15518C14.1531 2.29835 14.2233 2.41109 14.2767 2.54173C14.3174 2.64016 14.3188 2.7708 14.3258 2.88713C14.3314 2.98556 14.3062 3.08935 14.3216 3.1842C14.3693 3.49201 14.4423 3.79445 14.4802 4.10406C14.5546 4.70894 14.6515 5.31383 14.5968 5.93303C14.5869 6.04756 14.5897 6.19073 14.4634 6.17641C14.337 6.16031 14.3216 6.02967 14.3286 5.88471C14.3413 5.63774 14.3707 5.38183 14.3399 5.14202C14.2598 4.5103 14.2121 3.85351 14.0352 3.26294C13.8583 2.67416 13.6632 2.07286 13.3473 1.56282C13.1466 1.24069 12.9795 0.879196 12.6679 0.696656C12.557 0.632231 12.1611 0.657285 12.0656 0.752134C11.8185 0.997309 11.7161 1.40892 11.8171 1.78831C11.8789 2.02096 11.9519 2.24824 12.0179 2.4791C12.0347 2.53816 12.0404 2.60258 12.0544 2.66343C12.074 2.7547 12.0867 2.85312 12.1204 2.93545C12.22 3.18957 12.3338 3.43475 12.4306 3.69066C12.4489 3.74077 12.4306 3.86425 12.4011 3.88215C12.359 3.90899 12.2846 3.88572 12.2383 3.85351C12.199 3.82667 12.1821 3.7515 12.1527 3.69961C12.0109 3.45443 11.8719 3.20568 11.7259 2.96587C11.6473 2.83881 11.4915 2.73143 11.483 2.60258C11.4564 2.23213 11.2303 2.07465 11.0633 1.86169C10.9187 1.67915 10.7123 1.67199 10.6477 1.81516C10.5509 2.0317 10.4821 2.25898 10.5509 2.52921C10.586 2.66701 10.5916 2.84597 10.5537 2.9784C10.5031 3.15736 10.513 3.27368 10.6351 3.37927C10.6716 3.40969 10.6969 3.46159 10.7292 3.50096C11.111 3.9752 11.4648 4.47808 11.7217 5.08118C11.7694 5.19213 11.7989 5.3174 11.8228 5.44089C11.8298 5.47847 11.7877 5.53037 11.768 5.5769C11.7385 5.55005 11.6964 5.53216 11.681 5.49637C11.2977 4.66062 10.7797 3.9752 10.2055 3.35242C10.0371 3.16988 9.87422 2.98198 9.70857 2.79586C9.45728 2.51489 9.16809 2.6169 8.87188 2.61332C8.29209 2.60795 8.01975 3.15378 7.62667 3.55465C7.80917 3.6835 7.97061 3.7873 8.12644 3.9072C8.53355 4.22396 8.91259 4.58904 9.22424 5.05612C9.27899 5.13845 9.35199 5.22256 9.27057 5.33172C9.19055 5.4391 9.11474 5.39257 9.04034 5.3013C8.8438 5.0597 8.65148 4.80916 8.43809 4.59262C8.15873 4.30807 7.8583 4.05574 7.50453 3.9412C7.4568 3.9251 7.37257 3.94478 7.3459 3.98773C7.18586 4.24543 7.03846 4.4924 6.97388 4.84674C6.9079 5.20824 6.90509 5.37646 7.18025 5.59121C7.5298 5.86323 7.81759 6.25873 8.13767 6.59339C8.23173 6.69182 8.30613 6.80635 8.21909 6.93162C8.13346 7.05511 8.02396 6.98173 7.94394 6.87257C7.61544 6.42338 7.27009 6.00819 6.74786 5.94019C6.74505 5.96703 6.74084 6.02072 6.73523 6.07441C6.70996 6.35716 6.68048 6.63813 6.66223 6.92089C6.64538 7.18038 6.58923 7.45598 6.63836 7.69578C6.72259 8.10202 6.87702 8.48321 6.99915 8.87692C7.0553 9.05946 7.13953 9.242 7.14936 9.4317C7.17603 9.95963 7.36134 10.3641 7.66317 10.7041C7.7123 10.7596 7.75723 10.8312 7.78109 10.9063C7.8569 11.139 7.98184 11.2285 8.18119 11.2481C8.44651 11.275 8.7329 11.2947 8.96453 11.4378C9.36042 11.683 9.74928 11.8996 10.1943 11.9175C10.2687 11.921 10.3543 11.9532 10.4147 12.0069C10.6576 12.2217 10.892 12.4508 11.1293 12.6762C11.41 12.9447 11.6894 13.2167 11.9674 13.4851C11.9828 13.4672 11.9968 13.4583 11.9968 13.4494C11.987 12.9572 12.2243 12.4615 11.98 11.9729C11.9603 11.9353 11.9491 11.8638 11.9645 11.8298C12.0067 11.7367 12.0558 11.6383 12.1218 11.5774C12.1541 11.547 12.2327 11.5864 12.2874 11.6079C12.359 11.6383 12.425 11.7081 12.4966 11.7188V12.8624H13.353C13.3487 12.9733 13.3431 13.0843 13.3319 13.1916C13.5186 13.1093 13.6716 13.0234 13.8317 12.9769C13.9229 12.9501 14.0605 13.0377 14.111 12.9787C14.1335 12.9536 14.1433 12.9089 14.1489 12.8606H14.6136V11.4951C14.6192 11.3824 14.6248 11.2714 14.6347 11.1587C14.6585 10.9045 14.6824 10.6629 14.6136 10.4178V9.82899C14.6838 9.70372 14.7905 9.61245 14.9042 9.61245C15.1092 9.61424 15.3787 9.92563 15.3927 10.1923C15.4026 10.3838 15.3647 10.586 15.3984 10.7685C15.4714 11.1694 15.3619 11.5058 15.2032 11.8208C14.8495 12.5241 14.6543 13.2686 14.7498 14.1151C14.7666 14.2708 14.7526 14.4336 14.7526 14.5929C14.7694 14.5947 14.7863 14.5947 14.8031 14.5965C14.9337 14.3012 15.0572 14.0005 15.1962 13.7106C15.2552 13.5889 15.2524 13.5012 15.199 13.3796C15.1569 13.2829 15.1162 13.1236 15.1513 13.0485C15.2706 12.7926 15.3675 12.4848 15.6553 12.4525C15.6861 12.449 15.7212 12.4257 15.7423 12.3989C15.8518 12.2557 15.8925 11.6902 15.8251 11.4987C15.7746 11.3555 15.7002 11.1855 15.7226 11.0513C15.7549 10.8562 15.8588 10.6808 16.0469 10.6361C16.0989 10.6236 16.1719 10.5717 16.1873 10.5162C16.2772 10.1887 16.3502 9.85225 16.4358 9.52118C16.4962 9.28674 16.5579 9.05051 16.6323 8.82323C16.6815 8.67291 16.7601 8.53869 16.8134 8.39015C16.9707 7.95885 17.1209 7.52219 17.2767 7.08911C17.3244 6.9531 17.4073 6.82783 17.4255 6.68645C17.5533 5.63774 17.4325 4.64094 16.9931 3.72645Z" fill="#502D5C"/>
<path d="M13.8764 16.302C13.729 16.1231 13.5676 15.9584 13.437 15.7634C13.2026 15.4126 12.9864 15.0421 12.7632 14.6806C12.6972 14.5733 12.6368 14.4623 12.568 14.3603C12.2704 13.9219 12.2803 13.4065 12.3448 12.8839C12.3617 12.7425 12.641 12.6656 12.7267 12.7729C12.9064 13.0002 13.0327 13.2347 13.0411 13.6015C13.065 14.5428 13.2826 15.4108 13.8104 16.1123C13.8441 16.1589 13.8764 16.2072 13.9087 16.2555C13.8975 16.2698 13.8863 16.2859 13.8764 16.302Z" fill="#502D5C"/>
<path d="M14.518 17.2451C14.1151 17.3382 13.7066 17.3543 13.3121 17.1843C12.6734 16.9087 12.3126 16.5132 12.1287 15.9172C12.2957 15.9673 12.4431 16.0049 12.5877 16.0586C12.818 16.1445 13.0454 16.2429 13.2756 16.3306C13.4314 16.3897 13.5536 16.4845 13.642 16.6724C13.7627 16.9302 13.9466 17.0769 14.1951 17.0894C14.3046 17.0948 14.4141 17.1449 14.5236 17.1735C14.5208 17.1968 14.5194 17.2219 14.518 17.2451Z" fill="#502D5C"/>
<path d="M16.6631 10.8132C17.0126 11.0835 17.0463 11.4718 16.9691 11.912C16.948 12.0284 16.948 12.1519 16.941 12.2735C16.934 12.4024 16.8947 12.474 16.7824 12.5008C16.5494 12.5545 16.5409 12.5688 16.4679 12.2771C16.4314 12.1322 16.416 11.9657 16.4328 11.8154C16.4651 11.5344 16.5227 11.2588 16.5788 10.9832C16.5929 10.9134 16.6406 10.8562 16.6631 10.8132Z" fill="#502D5C"/>
<path d="M15.8952 15.3588C15.8236 15.1709 16.0875 13.6694 16.2068 13.494C16.3065 13.5531 16.4076 13.605 16.5044 13.6712C16.6252 13.7535 16.5774 13.8931 16.5367 13.9897C16.3781 14.3727 16.2082 14.7467 16.0384 15.1208C16.0005 15.2013 15.9485 15.2711 15.8952 15.3588Z" fill="#502D5C"/>
<path d="M16.8948 17.5833C16.9678 17.2612 17.0983 17.0894 17.2864 17.0142C17.5349 16.9122 17.7932 16.8424 18.0473 16.7619C18.1203 16.7386 18.1947 16.7279 18.3127 16.701C18.2579 16.7887 18.2383 16.8388 18.2074 16.8711C17.9603 17.1216 17.7315 17.4205 17.4254 17.5422C17.2696 17.603 17.0927 17.5708 16.8948 17.5833Z" fill="#502D5C"/>
<path d="M15.7126 16.5847C16.0566 15.8474 16.3893 15.1333 16.722 14.4175C16.6911 14.5785 16.6616 14.7503 16.6251 14.9204C16.5915 15.0778 16.5395 15.2317 16.5156 15.3928C16.5016 15.4859 16.5297 15.5897 16.5339 15.6881C16.5367 15.7454 16.5479 15.8241 16.5241 15.8581C16.3205 16.1641 16.0987 16.4415 15.8025 16.6008C15.7899 16.608 15.7716 16.5972 15.7126 16.5847Z" fill="#502D5C"/>
<path d="M17.3161 14.6376C17.2529 14.1222 17.361 13.6533 17.5323 13.2041C17.594 13.0395 17.7007 13.1218 17.7948 13.1665C17.8818 13.2077 17.9043 13.2847 17.8622 13.3867C17.6923 13.7929 17.521 14.1991 17.3498 14.6036C17.3442 14.6179 17.3273 14.6251 17.3161 14.6376Z" fill="#502D5C"/>
<path d="M12.095 14.72C12.2481 14.9902 12.4193 15.2909 12.6201 15.6452C12.5232 15.6362 12.4727 15.6398 12.4249 15.6255C12.2747 15.5754 12.1259 15.5217 11.9771 15.4644C11.8606 15.4197 11.8395 15.307 11.9083 15.1656C11.9743 15.0296 12.0277 14.8828 12.095 14.72Z" fill="#502D5C"/>
<path d="M17.8705 14.0739C18.0137 14.4407 17.6866 15.3033 17.3455 15.4805C17.4802 14.9704 17.6796 14.5499 17.8705 14.0739Z" fill="#502D5C"/>
<path d="M14.8523 16.302C14.8439 16.1713 14.8088 16.0317 14.8326 15.91C14.8888 15.6219 14.9716 15.3427 15.0474 15.06C15.0994 14.8667 15.1583 14.6752 15.2145 14.4819C15.2313 14.4891 15.2496 14.498 15.2664 14.5052C15.1429 15.1011 15.018 15.6971 14.8944 16.293C14.8804 16.2966 14.8663 16.3002 14.8523 16.302Z" fill="#502D5C"/>
<path d="M14.7891 11.6669C14.8045 11.4074 14.8185 11.1462 14.8438 10.8885C14.8452 10.8759 14.973 10.8473 15.0024 10.8813C15.0516 10.9404 15.1091 11.0603 15.0923 11.1229C15.0361 11.3215 14.9477 11.5059 14.8733 11.6956C14.8452 11.6848 14.8171 11.6759 14.7891 11.6669Z" fill="#502D5C"/>
<path d="M14.1896 14.337C14.2134 14.8149 14.2345 15.2497 14.2556 15.6774C14.0071 15.3553 13.9706 14.8166 14.1896 14.337Z" fill="#502D5C"/>
<path d="M16.6534 18.2061C16.7755 18.6928 17.0928 18.8718 17.4704 19.0042C17.2641 19.1438 17.0338 19.0633 16.9398 18.8843C16.9005 18.8092 16.8415 18.7519 16.7882 18.6892C16.673 18.5514 16.6239 18.4065 16.6534 18.2061Z" fill="#502D5C"/>
<path d="M15.9626 17.1127C15.9724 17.2362 15.9808 17.3596 15.9907 17.4831C15.9612 17.4867 15.9331 17.4921 15.9036 17.4956C15.891 17.374 15.8784 17.2523 15.8657 17.1306C15.898 17.1234 15.9303 17.118 15.9626 17.1127Z" fill="#502D5C"/>
<path d="M18.0684 12.4078C18.0193 12.5026 17.9715 12.5993 17.9224 12.6941C17.9028 12.6816 17.8831 12.6673 17.8649 12.6547C17.8312 12.5062 17.9182 12.4328 18.001 12.3577C18.0221 12.3738 18.0445 12.3899 18.0684 12.4078Z" fill="#502D5C"/>
<path d="M16.6042 16.8854C16.548 16.9731 16.4933 17.0608 16.4287 17.161C16.3416 16.9624 16.3655 16.9194 16.5662 16.8442C16.5789 16.8586 16.5915 16.8729 16.6042 16.8854Z" fill="#502D5C"/>
<path d="M20.4788 19.4391C20.4844 19.228 20.5953 19.194 20.6879 19.1456C21.1652 18.8933 21.6692 18.8718 22.1746 18.8915C22.5986 18.9076 23.0267 18.9094 23.4451 18.9846C23.7848 19.0454 24.1147 19.2011 24.446 19.3264C24.4895 19.3425 24.5162 19.4302 24.5513 19.4839C24.4938 19.5054 24.4292 19.5608 24.38 19.5429C23.7932 19.3228 23.1952 19.2566 22.5859 19.287C22.2392 19.3049 21.8924 19.262 21.5457 19.2763C21.3014 19.287 21.0571 19.3443 20.8129 19.3819C20.7076 19.3998 20.5995 19.4195 20.4788 19.4391Z" fill="black"/>
<path d="M11.1292 19.1421C11.087 19.1117 11.0239 19.0884 11.0211 19.058C11.0155 18.9971 11.0281 18.9059 11.0604 18.8701C11.1811 18.743 11.3032 18.6052 11.4422 18.5265C11.8535 18.292 12.2747 18.0827 12.6916 17.8661C12.7324 17.8446 12.7787 17.8321 12.8222 17.8357C12.8559 17.8375 12.9092 17.8625 12.9163 17.8912C12.9247 17.927 12.9036 17.9914 12.8798 18.02C12.8433 18.0612 12.7927 18.0809 12.7478 18.1095C12.2817 18.4137 11.8156 18.718 11.3496 19.0204C11.2822 19.0651 11.2092 19.0991 11.1292 19.1421Z" fill="black"/>
<path d="M2.20776 24.1583C2.22461 24.101 2.23023 24.0545 2.24848 24.0223C2.46046 23.6482 2.71315 23.3297 3.05007 23.1418C3.08236 23.1239 3.13009 23.1507 3.1708 23.1579C3.16097 23.208 3.16378 23.276 3.13851 23.3082C2.88301 23.6357 2.62471 23.9578 2.36359 24.2764C2.34253 24.3014 2.28217 24.3122 2.26251 24.2907C2.23303 24.2603 2.22321 24.1977 2.20776 24.1583Z" fill="black"/>
<path d="M9.91779 16.8997C9.95148 16.9015 9.94446 16.9033 9.94025 16.9015C9.86164 16.8514 9.78302 16.7995 9.70581 16.7494C9.77881 16.7028 9.849 16.6223 9.92481 16.6151C10.2098 16.5901 10.4948 16.5847 10.7798 16.5847C10.8275 16.5847 10.8752 16.6527 10.9229 16.6885C10.8794 16.7225 10.8387 16.7798 10.7924 16.7869C10.513 16.8281 10.2337 16.8603 9.91779 16.8997Z" fill="black"/>
<path d="M16.9425 21.3182C16.9467 21.5348 16.8568 21.6153 16.7558 21.4972C16.5143 21.2162 16.2855 20.9156 16.0651 20.6078C15.964 20.4682 15.8826 20.3 15.8138 20.13C15.7815 20.0494 15.7983 19.9349 15.7927 19.8365C15.8727 19.8365 15.9626 19.8042 16.03 19.8418C16.1002 19.8812 16.1591 19.976 16.2041 20.0637C16.4034 20.4557 16.5873 20.8637 16.8723 21.1733C16.9116 21.2145 16.9284 21.2878 16.9425 21.3182Z" fill="black"/>
<path d="M12.7029 20.9853C12.6102 21.0766 12.526 21.1875 12.4249 21.2538C12.0711 21.481 11.7103 21.6886 11.3538 21.9105C11.2738 21.9607 11.2092 22.0483 11.1278 22.0895C11.0772 22.1164 11.0098 22.0895 10.9495 22.0859C10.9635 22.0054 10.9579 21.8909 10.9972 21.8515C11.0674 21.7817 11.1671 21.7602 11.2527 21.7119C11.57 21.5347 11.8858 21.354 12.2031 21.175C12.3589 21.0873 12.5162 21.0068 12.672 20.9209C12.6818 20.9442 12.6916 20.9656 12.7029 20.9853Z" fill="black"/>
<path d="M14.9251 21.2556C14.9321 21.4041 14.9475 21.5527 14.9419 21.6994C14.9363 21.8462 14.9139 21.9947 14.8914 22.1396C14.8872 22.1701 14.8493 22.2023 14.8226 22.2148C14.81 22.2202 14.7665 22.1772 14.7679 22.1575C14.7777 21.8533 14.7679 21.5455 14.8437 21.2538C14.8689 21.252 14.897 21.2538 14.9251 21.2556Z" fill="black"/>
<path d="M13.4948 10.9117L13.3965 10.7828L13.5355 11.3877C13.5551 11.3591 13.5678 11.3251 13.5762 11.2929C13.6099 11.1604 13.572 11.0119 13.4948 10.9117Z" fill="black"/>
<path d="M31.9777 22.9127C31.9426 22.7588 31.9244 22.587 31.937 22.4296C31.9665 22.043 31.9174 21.6708 31.8135 21.3182C31.704 20.946 31.5608 20.5916 31.4274 20.2319C31.4092 20.1836 31.3656 20.1514 31.3334 20.112C31.1158 19.8382 30.8701 19.627 30.5837 19.4821C30.3661 19.3711 30.3535 19.2119 30.5191 18.9989C30.6455 18.8378 30.7788 18.6875 30.9024 18.5229C31.1172 18.2347 31.0736 17.7891 30.828 17.5511C30.5963 17.3256 30.3844 17.0661 30.1513 16.8406C29.9492 16.6438 29.7765 16.3968 29.5182 16.293C29.1939 16.1624 28.9426 15.8742 28.6843 15.6022C28.492 15.3982 28.2926 15.2031 28.0835 15.0331C27.849 14.8434 27.5977 14.686 27.3535 14.5124C27.1667 14.3799 26.98 14.2475 26.8312 14.1419C27.039 13.9397 27.2454 13.7321 27.4601 13.5352C27.6497 13.3616 27.8406 13.1863 28.0441 13.0413C28.2028 12.9286 28.3825 12.8588 28.5523 12.7729C28.6829 12.7067 28.7222 12.5706 28.7573 12.4114C28.791 12.2593 28.8457 12.1053 28.9159 11.9765C29.0661 11.7045 29.243 11.4575 29.389 11.1819C29.4396 11.0871 29.4283 10.9385 29.4466 10.815C29.469 10.6576 29.4648 10.4786 29.5238 10.3462C29.608 10.1565 29.6417 9.97572 29.6361 9.75918C29.6305 9.5498 29.6249 9.30641 29.7007 9.1364C29.813 8.88407 29.8102 8.64963 29.7681 8.39551C29.6726 7.80315 29.5491 7.21974 29.6136 6.60233C29.6403 6.34462 29.6347 6.06008 29.4115 5.93481C29.2936 5.86859 29.1391 5.84532 29.0142 5.88112C28.7601 5.95091 28.5959 5.84533 28.4358 5.59836C28.1901 5.21897 27.9248 4.86104 27.6581 4.5067C27.5458 4.35817 27.4124 4.23826 27.2257 4.3009C27.1555 4.32417 27.0741 4.29195 26.966 4.283C27.0025 4.17026 27.0278 4.08794 27.0572 4.0092C27.1653 3.72107 27.279 3.43473 27.3815 3.14303C27.4461 2.96049 27.4124 2.7529 27.3015 2.6491C27.0629 2.42719 26.7849 2.21781 26.4845 2.28044C25.9665 2.38603 25.433 2.31086 24.922 2.53099C24.6075 2.66699 24.2664 2.69742 23.9435 2.80658C23.5041 2.95333 23.0577 2.96049 22.6099 2.96944C22.4877 2.97123 22.3642 2.93722 22.2449 2.95512C21.9978 2.99449 21.7521 3.06787 21.505 3.10724C21.0727 3.17703 20.6697 3.35599 20.2851 3.61369C20.1517 3.70317 20.0254 3.80697 19.892 3.89466C19.8092 3.94835 19.7081 3.96624 19.6365 4.03604C19.4035 4.25974 19.1718 4.48702 18.9543 4.73398C18.7184 5.00242 18.4994 5.29592 18.272 5.57868C18.1527 5.72721 18.0305 5.87396 17.9098 6.02071C17.8972 6.00997 17.8845 6.00102 17.8719 5.99028C17.9772 5.56078 17.9547 5.15812 17.8031 4.74651C17.6599 4.35638 17.5757 3.93224 17.4606 3.526C17.4465 3.47768 17.4002 3.44547 17.3735 3.39894C17.2738 3.21998 17.1363 3.05534 17.0885 2.8549C17.024 2.58825 16.9159 2.38245 16.7685 2.19096C16.6927 2.09253 16.6126 1.98158 16.5747 1.85631C16.4821 1.55565 16.3993 1.43217 16.1494 1.43933C15.8883 1.44649 15.6257 1.48944 15.3688 1.55207C15.1751 1.5986 15.0109 1.60039 14.8536 1.42143C14.7329 1.28542 14.5869 1.24605 14.4156 1.289C14.1868 1.34627 14.0366 1.52881 13.8794 1.73998C13.8541 1.6344 13.8386 1.53955 13.8106 1.45007C13.6491 0.948978 13.3726 0.574952 13.0356 0.249245C12.6538 -0.121203 12.2677 -0.0263539 11.8915 0.195557C11.6276 0.351252 11.4395 0.641167 11.3538 1.00625C11.3215 1.14583 11.3173 1.29616 11.2991 1.4608C11.1713 1.3928 11.0478 1.34627 10.9397 1.26395C10.6477 1.04025 10.3978 1.22458 10.2518 1.54849C10.1718 1.72566 10.1156 1.92789 10.082 2.12654C10.0539 2.29118 9.99351 2.3055 9.89384 2.26433C9.75205 2.20349 9.61307 2.08716 9.47128 2.08358C9.10909 2.07285 8.7469 2.10864 8.3847 2.1319C8.35382 2.13369 8.32434 2.16591 8.29486 2.18738C7.95232 2.43256 7.63224 2.71531 7.38938 3.11976C7.35288 3.18061 7.30374 3.23967 7.2504 3.27009C6.90786 3.4741 6.79976 3.91972 6.61586 4.283C6.53023 4.45123 6.45301 4.66956 6.45863 4.86105C6.46565 5.12412 6.42213 5.34961 6.34071 5.57868C6.11048 6.23188 6.25507 6.94235 6.16101 7.61882C6.13996 7.77094 6.25928 7.9499 6.30701 8.1217C6.40669 8.4832 6.47828 8.85901 6.60603 9.20441C6.75203 9.59633 6.70571 10.0169 6.77449 10.4178C6.80257 10.5824 6.83486 10.7453 6.86855 10.9367C6.75344 10.9457 6.65517 10.9546 6.5569 10.96C6.32948 10.9707 6.09784 10.9493 5.87463 10.994C5.67388 11.0352 5.48296 11.1497 5.28782 11.2267C5.15446 11.2786 5.01828 11.3179 4.88352 11.368C4.68557 11.4414 4.48763 11.5166 4.2925 11.5971C4.23213 11.6222 4.16755 11.6508 4.11702 11.6991C3.92048 11.887 3.73377 12.0928 3.53442 12.2754C3.24382 12.542 3.05852 12.9214 2.85356 13.2757C2.72861 13.4923 2.63456 13.7375 2.51663 13.963C2.42819 14.1348 2.30746 14.2815 2.23025 14.4587C2.07161 14.8202 1.94948 15.2067 1.78242 15.5593C1.58027 15.9834 1.36688 16.4058 1.117 16.7852C0.935904 17.059 0.684616 17.2576 0.472636 17.4974C0.103424 17.9144 0.169405 18.7179 0.584943 19.0007C0.74077 19.1063 0.888174 19.2351 1.03839 19.3568C1.22931 19.5107 1.38794 19.7416 1.63502 19.7702C1.67292 19.7738 1.70802 19.8239 1.76277 19.8651C1.55219 20.0476 1.36548 20.1997 1.18719 20.3679C0.782885 20.7491 0.391213 21.1339 0.138521 21.7209C-0.0846908 22.2399 -0.0566138 22.5548 0.358924 22.8197C0.743578 23.0649 1.05804 23.4138 1.32758 23.8237C1.46235 24.0295 1.56904 24.28 1.64063 24.5341C1.74311 24.8992 1.79365 25.2875 1.8849 25.6598C1.94948 25.9229 2.03231 26.1823 2.23586 26.3363C2.30185 26.3864 2.35519 26.4651 2.41415 26.5295C2.64719 26.7872 2.88023 27.0485 3.11607 27.3026C3.15257 27.342 3.20873 27.351 3.25365 27.3796C3.4544 27.5031 3.69586 27.5782 3.84607 27.7679C4.06648 28.0471 4.34584 28.1402 4.60134 28.3012C4.84 28.4516 5.16428 28.3746 5.29765 28.1491C5.51384 27.7858 5.84655 27.7572 6.14978 27.5943C6.16944 27.8896 6.20734 28.1527 6.20173 28.4122C6.18488 29.1477 6.34492 29.7633 6.86855 30.157C6.91628 30.1928 6.96682 30.2447 7.01736 30.2483C7.28549 30.2698 7.55784 30.3217 7.82036 30.2805C8.19659 30.2215 8.56861 30.1034 8.90834 29.8707C9.10768 29.7329 9.33651 29.6613 9.48672 29.4126C9.53866 29.3267 9.63974 29.2909 9.75345 29.205C9.74784 29.6935 9.92472 30.0085 10.1564 30.2966C10.4329 30.642 10.9453 30.6778 11.2331 30.3503C11.3805 30.1821 11.4184 30.1821 11.5055 30.4022C11.563 30.549 11.6416 30.6349 11.7652 30.6259C11.9435 30.6134 12.0473 30.7226 12.1161 30.9158C12.1526 31.0196 12.2032 31.1145 12.2383 31.2183C12.3435 31.5315 12.5218 31.6317 12.7801 31.5511C12.8531 31.5279 12.957 31.5673 13.0216 31.6263C13.3992 31.9681 13.7951 32.1095 14.2514 31.9055C14.5574 31.7695 14.8719 31.6675 15.1821 31.5476C15.3309 31.4903 15.498 31.4599 15.6215 31.3507C15.9248 31.0859 16.2055 30.7816 16.4975 30.4935C16.6632 30.3289 16.8569 30.1284 17.0563 30.2322C17.2935 30.3557 17.5195 30.3253 17.7469 30.2948C18.0165 30.2591 18.265 30.1696 18.3829 29.7759C18.4783 29.4573 18.651 29.1889 18.8588 28.9616C19.1297 28.6663 19.3937 28.3621 19.6576 28.0578C19.7671 27.9326 19.8387 27.9469 19.9215 28.1062C20.017 28.2869 20.0914 28.5357 20.2261 28.6252C20.535 28.8274 20.8579 29.0045 21.2369 28.9025C21.4278 28.8506 21.644 28.8667 21.8335 28.9276C22.1185 29.0207 22.3881 29.1907 22.6688 29.307C23.0296 29.4555 23.3946 29.588 23.7596 29.715C23.8438 29.7437 23.9393 29.7419 24.0263 29.7311C24.571 29.6667 25.0722 29.4519 25.4541 28.9348C25.9061 28.3227 26.4915 28.0722 27.098 27.8538C27.4391 27.7321 27.7662 27.5711 28.0006 27.2114C28.1649 26.959 28.301 26.6781 28.4681 26.4329C28.7082 26.0821 28.9609 25.7439 29.3806 25.7886C29.434 25.794 29.4999 25.7493 29.5449 25.7045C29.6642 25.5828 29.6586 25.3287 29.5477 25.105C29.5238 25.0567 29.5196 24.9923 29.5055 24.935C29.5505 24.9189 29.5954 24.892 29.6417 24.8867C29.7793 24.8688 29.9225 24.8831 30.0545 24.8419C30.3703 24.7417 30.5416 24.3892 30.7634 24.1279C31.0119 23.8344 31.2604 23.5642 31.6225 23.5284C31.8865 23.4979 32.0648 23.2886 31.9777 22.9127ZM18.3029 6.4341C18.5485 6.10482 18.797 5.77732 19.0553 5.46235C19.2631 5.20823 19.4849 4.972 19.7011 4.7304C19.7334 4.69461 19.7769 4.67135 19.8162 4.64629C20.097 4.46912 20.3749 4.28837 20.6599 4.12194C20.7638 4.06109 20.8817 4.03604 20.994 4.00204C21.4236 3.87319 21.849 3.72286 22.2828 3.62801C22.5284 3.57432 22.7853 3.61369 23.038 3.60654C23.0984 3.60475 23.1588 3.5779 23.2191 3.56895C23.3567 3.55285 23.4957 3.54569 23.6333 3.52421C23.7301 3.5099 23.827 3.48305 23.9225 3.458C23.9435 3.45263 23.9618 3.42758 23.9828 3.42221C24.4264 3.29872 24.8701 3.17166 25.3151 3.05713C25.5888 2.98733 25.8654 2.91575 26.1433 2.89248C26.3469 2.87459 26.5547 2.92828 26.7582 2.96407C26.7863 2.96944 26.8354 3.08218 26.8228 3.11261C26.6459 3.5618 26.5111 4.05036 26.1812 4.37248C26.1391 4.41364 26.0788 4.42617 26.0352 4.46554C25.9454 4.54786 25.857 4.63556 25.7727 4.72861C25.6983 4.81094 25.6436 4.93084 25.5607 4.98811C25.2379 5.2136 24.9094 5.43014 24.5781 5.63415C24.1246 5.91333 23.6641 6.17461 23.2093 6.452C23.0787 6.53253 22.9552 6.63275 22.8359 6.73834C22.8064 6.76339 22.8078 6.84392 22.7938 6.8994C22.8387 6.90835 22.892 6.94414 22.9257 6.92445C23.1279 6.80455 23.3244 6.66675 23.5252 6.54327C23.6501 6.46632 23.7807 6.40189 23.9084 6.33031C24.4222 6.0386 24.9318 5.73079 25.4526 5.45698C25.725 5.31381 26.0184 5.23865 26.3006 5.12054C26.448 5.05969 26.5841 4.93084 26.733 4.904C27.046 4.84852 27.345 4.88252 27.5584 5.26013C27.6483 5.4194 27.7943 5.52499 27.8925 5.6771C28.0273 5.8847 28.1424 6.11377 28.273 6.3482C28.2028 6.38936 28.1312 6.44126 28.054 6.47705C27.682 6.65422 27.3099 6.82603 26.9379 7.0032C26.8705 7.03541 26.7989 7.06941 26.7414 7.12131C26.7021 7.1571 26.681 7.2269 26.6515 7.28058C26.7007 7.30027 26.7526 7.34859 26.7961 7.33606C26.9983 7.28058 27.1976 7.21079 27.3984 7.14458C27.8743 6.98888 28.3516 6.83318 28.8275 6.67749C28.93 6.64528 28.9693 6.68286 28.9875 6.8314C29.0507 7.3289 29.1195 7.82462 29.2121 8.31318C29.2641 8.58341 29.2206 8.82143 29.1462 9.06124C29.1363 9.09524 29.0647 9.11493 29.0226 9.11135C28.7882 9.09703 28.5551 9.0684 28.3207 9.05587C28.0806 9.04334 27.8392 9.04513 27.5991 9.03976C27.543 9.03797 27.4812 9.01829 27.4321 9.04334C27.3843 9.06661 27.3506 9.1364 27.3113 9.18651C27.3492 9.22767 27.3829 9.29747 27.4265 9.30641C27.9669 9.42811 28.5088 9.56054 29.0591 9.40126C29.083 9.3941 29.1111 9.41021 29.1658 9.42095C29.1279 9.63928 29.0942 9.84508 29.0577 10.0491C29.0339 10.1869 28.9974 10.3229 28.9819 10.4625C28.937 10.8938 28.7952 11.2338 28.5032 11.4915C28.3811 11.6007 28.2926 11.8083 28.2365 11.9926C28.1831 12.1751 28.1101 12.304 27.9782 12.3881C27.8336 12.4812 27.6876 12.5724 27.543 12.6673C27.2341 12.8695 27.0095 13.1988 26.7695 13.5066C26.674 13.6283 26.5617 13.7321 26.4704 13.8269C25.7966 13.6551 25.1199 13.4959 24.4489 13.308C23.9337 13.163 23.4072 13.1362 22.8948 13.2024C22.3207 13.2757 21.7395 13.4171 21.2481 13.8753C21.1723 13.9451 21.0811 13.9934 20.9926 14.0345C20.5911 14.2207 20.2444 14.5195 19.9327 14.8792C19.6183 15.2407 19.3263 15.6344 19.0202 16.0085C18.9851 16.0514 18.9065 16.1069 18.8827 16.089C18.7156 15.9494 18.5387 16.0299 18.3745 16.0586C17.9884 16.1248 17.6052 16.2232 17.2107 16.3127C17.3342 16.1677 17.4634 16.0317 17.5785 15.8796C17.9224 15.4268 18.1948 14.9293 18.2622 14.2726C18.2762 14.1419 18.4376 13.963 18.5499 13.9361C18.7914 13.8806 18.8784 13.6337 19.0174 13.4529C19.169 13.2543 19.3066 13.0359 19.4568 12.8355C19.6618 12.5617 19.8766 12.3022 20.0801 12.0266C20.1293 11.9604 20.1517 11.8602 20.1854 11.7743C20.1658 11.7546 20.1461 11.7349 20.1265 11.7152C19.9833 11.862 19.8288 11.9944 19.6983 12.159C19.4189 12.5098 19.1494 12.8731 18.8798 13.2364C18.8054 13.3366 18.7788 13.3438 18.6917 13.2274C18.6005 13.1075 18.4447 13.0664 18.286 12.9715C18.3562 12.78 18.4292 12.5527 18.5205 12.3398C18.6707 11.989 18.8419 11.6544 18.9879 11.3018C19.2533 10.6611 19.6393 10.1457 20.0212 9.62317C20.2753 9.2742 20.5294 8.92165 20.7792 8.5691C20.8115 8.52436 20.8242 8.45814 20.8452 8.40087C20.8312 8.38477 20.8172 8.37045 20.8031 8.35434C20.6613 8.50646 20.5069 8.64426 20.382 8.81606C20.0156 9.31715 19.6478 9.82003 19.308 10.3498C19.0862 10.6951 18.9079 11.0889 18.7142 11.4629C18.6524 11.581 18.5907 11.7027 18.5443 11.8315C18.4699 12.0373 18.3969 12.0946 18.2355 11.9282C18.1119 11.7993 17.9688 11.9139 17.8466 12.0087C17.7877 12.0534 17.7315 12.1018 17.6725 12.1483C17.6585 12.134 17.6445 12.1197 17.6304 12.1053C17.6936 11.9067 17.754 11.7045 17.8213 11.5076C18.0684 10.79 18.3155 10.0706 18.5668 9.35473C18.6215 9.19904 18.7058 9.05766 18.7507 8.89838C18.7732 8.81785 18.7353 8.71227 18.7254 8.61742C18.6566 8.65858 18.5542 8.67826 18.5275 8.74627C18.3604 9.16503 18.1962 9.58738 18.06 10.0223C17.8213 10.7846 17.6038 11.5559 17.3749 12.3237C17.3468 12.4185 17.2991 12.5044 17.2598 12.5957C17.2458 12.5903 17.2317 12.585 17.2177 12.5796C17.2177 12.5277 17.2163 12.4776 17.2177 12.4275C17.2388 11.9783 17.2556 11.5309 17.2865 11.0835C17.2949 10.969 17.3468 10.858 17.3805 10.7453C17.3988 10.6844 17.4156 10.6253 17.4381 10.5681C17.5153 10.373 17.5027 10.1869 17.3819 10.0366C17.2795 9.90772 17.0928 9.93277 16.9299 10.067C16.9074 10.0849 16.8822 10.0974 16.8358 10.1278C16.7965 9.91309 16.8934 9.75739 16.9383 9.59633C17.0127 9.32968 17.1166 9.07734 17.2037 8.81606C17.4928 7.96242 17.7919 7.11952 18.3029 6.4341ZM16.5158 15.3928C16.5017 15.4859 16.5298 15.5897 16.534 15.6881C16.5368 15.7454 16.5481 15.8241 16.5242 15.8581C16.3206 16.1642 16.0988 16.4415 15.8026 16.6008C15.79 16.608 15.7717 16.5955 15.7128 16.5829C16.0567 15.8456 16.3894 15.1316 16.7221 14.4157C16.6913 14.5768 16.6618 14.7486 16.6253 14.9186C16.5916 15.0779 16.5396 15.2318 16.5158 15.3928ZM16.6042 16.8854C16.5481 16.9731 16.4933 17.0608 16.4287 17.161C16.3417 16.9623 16.3656 16.9194 16.5663 16.8442C16.5789 16.8585 16.5916 16.8728 16.6042 16.8854ZM15.9907 17.4813C15.9613 17.4849 15.9332 17.4903 15.9037 17.4938C15.8911 17.3721 15.8784 17.2504 15.8658 17.1288C15.8981 17.1234 15.9304 17.1162 15.9627 17.1109C15.9711 17.2361 15.9809 17.3578 15.9907 17.4813ZM16.5045 13.6695C16.6253 13.7518 16.5775 13.8914 16.5368 13.988C16.3782 14.371 16.2083 14.745 16.0385 15.119C16.002 15.2014 15.9486 15.2712 15.8967 15.3571C15.8251 15.1691 16.089 13.6677 16.2083 13.4923C16.3066 13.5513 16.4077 13.605 16.5045 13.6695ZM16.4343 11.8119C16.4666 11.5309 16.5242 11.2553 16.5803 10.9797C16.5944 10.9117 16.6407 10.8562 16.6632 10.8115C17.0127 11.0817 17.0464 11.47 16.9692 11.9103C16.9482 12.0266 16.9482 12.1501 16.9411 12.2718C16.9341 12.4006 16.8948 12.4722 16.7825 12.4991C16.5495 12.5527 16.541 12.5671 16.468 12.2754C16.4315 12.1286 16.4161 11.9622 16.4343 11.8119ZM16.6533 18.2061C16.7755 18.6929 17.0928 18.8718 17.4704 19.0043C17.264 19.1438 17.0338 19.0633 16.9397 18.8844C16.9004 18.8092 16.8415 18.7519 16.7881 18.6893C16.673 18.5515 16.6239 18.4065 16.6533 18.2061ZM16.8948 17.5833C16.9678 17.2612 17.0984 17.0894 17.2865 17.0142C17.535 16.9122 17.7933 16.8424 18.0474 16.7619C18.1204 16.7386 18.1948 16.7279 18.3127 16.701C18.2579 16.7887 18.2383 16.8388 18.2074 16.8711C17.9603 17.1216 17.7315 17.4205 17.4255 17.5422C17.2696 17.603 17.0928 17.5708 16.8948 17.5833ZM17.8621 13.3849C17.6922 13.7912 17.5209 14.1974 17.3497 14.6018C17.3426 14.6179 17.3272 14.6251 17.3146 14.6376C17.2514 14.1222 17.3595 13.6534 17.5308 13.2042C17.5925 13.0395 17.6992 13.1218 17.7933 13.1666C17.8817 13.2077 17.9042 13.2829 17.8621 13.3849ZM17.9996 12.3577C18.0221 12.3738 18.0446 12.3899 18.0684 12.4078C18.0193 12.5026 17.9716 12.5993 17.9224 12.6941C17.9028 12.6816 17.8831 12.6673 17.8649 12.6548C17.8298 12.5062 17.9168 12.4328 17.9996 12.3577ZM17.3454 15.4805C17.4802 14.9723 17.6796 14.5517 17.8705 14.0739C18.0137 14.4408 17.6866 15.3034 17.3454 15.4805ZM6.63411 7.69398C6.58498 7.45418 6.63973 7.17858 6.65798 6.91909C6.67763 6.63633 6.70711 6.35357 6.73098 6.0726C6.73519 6.01892 6.7408 5.96523 6.74361 5.93838C7.26584 6.00639 7.61119 6.42158 7.93969 6.87077C8.0197 6.98172 8.1292 7.05331 8.21484 6.92982C8.30188 6.80455 8.22747 6.69002 8.13342 6.59159C7.81334 6.25693 7.52555 5.86143 7.17599 5.58941C6.90084 5.37466 6.90365 5.20823 6.96963 4.84494C7.03421 4.4906 7.18301 4.24363 7.34165 3.98593C7.36832 3.94298 7.45255 3.92329 7.50028 3.9394C7.85405 4.05394 8.15447 4.30627 8.43384 4.59082C8.64722 4.80736 8.83815 5.0579 9.03609 5.2995C9.1119 5.39077 9.1877 5.43909 9.26632 5.32992C9.34634 5.22076 9.27474 5.13664 9.21999 5.05432C8.90834 4.58724 8.5307 4.22216 8.12219 3.9054C7.96776 3.7855 7.80492 3.67991 7.62242 3.55285C8.01549 3.15019 8.28784 2.60615 8.86763 2.61152C9.16524 2.61331 9.45303 2.51309 9.70432 2.79406C9.86997 2.97839 10.0328 3.16808 10.2013 3.35062C10.7755 3.9734 11.2935 4.65703 11.6767 5.49456C11.6936 5.53036 11.7343 5.54825 11.7638 5.5751C11.7834 5.53036 11.8255 5.47667 11.8185 5.43909C11.7946 5.3156 11.7638 5.19033 11.7174 5.07938C11.4619 4.47628 11.1068 3.97519 10.7249 3.49916C10.6926 3.45979 10.6674 3.40789 10.6309 3.37747C10.5087 3.27188 10.4989 3.15556 10.5494 2.9766C10.5873 2.84238 10.5817 2.66521 10.5466 2.52741C10.4778 2.25718 10.5466 2.03169 10.6435 1.81336C10.7081 1.67019 10.9144 1.67735 11.059 1.85988C11.2261 2.07285 11.4521 2.23033 11.4788 2.60078C11.4886 2.72963 11.6444 2.83701 11.7216 2.96407C11.8676 3.20388 12.0066 3.45263 12.1484 3.6978C12.1779 3.7497 12.1947 3.82308 12.234 3.85171C12.2804 3.88571 12.3548 3.90719 12.3969 3.88034C12.4264 3.86245 12.4446 3.73897 12.4264 3.68886C12.3295 3.43294 12.2172 3.18777 12.1161 2.93365C12.0838 2.84953 12.0712 2.7529 12.0501 2.66163C12.0361 2.60078 12.0305 2.53635 12.0136 2.4773C11.9477 2.24644 11.8747 2.01916 11.8129 1.78651C11.7132 1.40712 11.8143 0.995508 12.0614 0.750333C12.1568 0.655484 12.5527 0.630429 12.6636 0.694855C12.9753 0.877394 13.1423 1.23889 13.3431 1.56102C13.6589 2.07106 13.8555 2.67236 14.031 3.26114C14.2079 3.85171 14.2556 4.50849 14.3356 5.14022C14.3665 5.38003 14.337 5.63594 14.3244 5.88291C14.3174 6.02786 14.3328 6.15851 14.4591 6.17461C14.5855 6.18893 14.5813 6.04576 14.5925 5.93123C14.6459 5.31202 14.5504 4.70714 14.476 4.10225C14.4381 3.79265 14.3651 3.49021 14.3174 3.1824C14.3033 3.08755 14.3286 2.98375 14.3216 2.88533C14.3145 2.769 14.3131 2.64015 14.2724 2.53993C14.2177 2.4075 14.1475 2.29655 14.2415 2.15338C14.33 2.01737 14.5476 1.93684 14.6669 2.00663C14.9364 2.16412 15.2116 2.2697 15.5134 2.18917C15.644 2.15338 15.7773 2.13369 15.9093 2.10506C16.0595 2.07464 16.162 2.14443 16.2406 2.31444C16.3964 2.65089 16.5579 2.98375 16.7278 3.30946C16.8036 3.45621 16.9173 3.57432 16.9889 3.72465C17.4283 4.63913 17.549 5.63594 17.4198 6.68465C17.403 6.82424 17.3202 6.9513 17.271 7.08731C17.1166 7.52039 16.965 7.95705 16.8078 8.38835C16.7544 8.53688 16.6758 8.6711 16.6267 8.82143C16.5523 9.04871 16.4905 9.28494 16.4301 9.51938C16.3459 9.85045 16.2729 10.1851 16.1817 10.5144C16.1662 10.5699 16.0932 10.6218 16.0413 10.6343C15.8532 10.6772 15.7493 10.8526 15.717 11.0495C15.6945 11.1837 15.7689 11.3537 15.8195 11.4969C15.8868 11.6884 15.8461 12.2557 15.7366 12.3971C15.7156 12.4257 15.6791 12.449 15.6496 12.4507C15.3604 12.483 15.2635 12.7908 15.1456 13.0467C15.1105 13.1218 15.1512 13.2811 15.1934 13.3778C15.2467 13.5012 15.2495 13.5871 15.1905 13.7088C15.0516 13.997 14.928 14.2976 14.7975 14.5947C14.7806 14.5929 14.7638 14.5929 14.7469 14.5911C14.7469 14.4318 14.7624 14.2708 14.7441 14.1133C14.6487 13.2668 14.8438 12.5223 15.1976 11.819C15.3562 11.504 15.4671 11.1676 15.3927 10.7667C15.359 10.5842 15.3969 10.382 15.3871 10.1905C15.373 9.92382 15.1035 9.61243 14.8985 9.61064C14.6613 9.60885 14.4451 10.0097 14.563 10.2853C14.688 10.5752 14.6585 10.8562 14.6304 11.1569C14.5995 11.4969 14.6023 11.8405 14.5743 12.1805C14.5616 12.3434 14.5111 12.5026 14.4788 12.6619C14.4634 12.6601 14.4465 12.6601 14.4311 12.6583C14.4156 12.6243 14.4058 12.5832 14.3847 12.5599C14.3454 12.517 14.2935 12.449 14.257 12.4579C14.2205 12.4668 14.1854 12.5545 14.1714 12.6154C14.1447 12.7371 14.1643 12.9107 14.1054 12.9769C14.0534 13.0341 13.9159 12.9483 13.826 12.9751C13.666 13.0216 13.5129 13.1075 13.3262 13.1898C13.3838 12.6118 13.3192 11.9926 13.4638 11.3985C13.4863 11.3949 13.5073 11.3913 13.5298 11.3859L13.3908 10.781C13.3262 10.7864 13.2911 10.7918 13.2546 10.79C13.0076 10.7846 12.7633 11.0602 12.7745 11.3788C12.7787 11.4844 12.8826 11.5828 12.9402 11.6848C12.9809 11.7582 13.0469 11.828 13.0553 11.9067C13.0735 12.0678 13.0651 12.2342 13.0609 12.3988C13.0595 12.4633 13.0384 12.5259 13.0202 12.6279C12.8953 12.474 12.7914 12.3756 12.811 12.159C12.8349 11.896 12.7015 11.7438 12.4938 11.7188C12.4208 11.7098 12.3534 11.6383 12.2818 11.6078C12.2284 11.5846 12.1484 11.547 12.1161 11.5774C12.0501 11.6383 12.001 11.7367 11.9589 11.8297C11.9435 11.8638 11.9547 11.9353 11.9743 11.9729C12.2186 12.4615 11.9814 12.959 11.9912 13.4493C11.9912 13.4583 11.9771 13.4672 11.9617 13.4851C11.6837 13.2167 11.4044 12.9447 11.1236 12.6762C10.8878 12.4507 10.6519 12.2217 10.409 12.0069C10.3487 11.9532 10.263 11.9192 10.1886 11.9174C9.74222 11.8995 9.35336 11.683 8.95888 11.4378C8.72724 11.2947 8.44086 11.2732 8.17553 11.2481C7.97478 11.2284 7.84984 11.139 7.77544 10.9063C7.75017 10.8312 7.70665 10.7578 7.65751 10.7041C7.35569 10.3641 7.17038 9.95783 7.14371 9.43168C7.13388 9.24378 7.05105 9.05945 6.99349 8.87691C6.87276 8.4832 6.71834 8.10022 6.63411 7.69398ZM15.2664 14.507C15.1428 15.1029 15.0179 15.6989 14.8943 16.2948C14.8803 16.2984 14.8663 16.3002 14.8522 16.3038C14.8438 16.1731 14.8087 16.0335 14.8326 15.9118C14.8887 15.6237 14.9715 15.3445 15.0474 15.0618C15.0993 14.8685 15.1583 14.677 15.2144 14.4837C15.2313 14.4909 15.2481 14.498 15.2664 14.507ZM12.6201 15.647C12.5232 15.638 12.4727 15.6416 12.425 15.6273C12.2748 15.5772 12.126 15.5235 11.9771 15.4662C11.8606 15.4215 11.8396 15.3087 11.9084 15.1674C11.9743 15.0296 12.0291 14.8846 12.0965 14.7217C12.2495 14.992 12.4194 15.2926 12.6201 15.647ZM12.3435 12.882C12.3604 12.7407 12.6398 12.6637 12.7254 12.7711C12.9051 12.9984 13.0314 13.2328 13.0399 13.5997C13.0637 14.541 13.2813 15.409 13.8092 16.1105C13.8429 16.157 13.8751 16.2053 13.9074 16.2536C13.8962 16.2697 13.8864 16.2859 13.8751 16.302C13.7277 16.123 13.5663 15.9601 13.4357 15.7633C13.2013 15.4125 12.9851 15.0421 12.7619 14.6806C12.6959 14.5732 12.6355 14.4623 12.5668 14.3602C12.2705 13.9218 12.279 13.4064 12.3435 12.882ZM12.5878 16.0586C12.818 16.1445 13.0455 16.2429 13.2757 16.3306C13.4315 16.3897 13.5537 16.4845 13.6421 16.6724C13.7628 16.9301 13.9467 17.0769 14.1952 17.0894C14.3047 17.0948 14.4142 17.1449 14.5237 17.1735C14.5223 17.1986 14.5209 17.2218 14.5195 17.2469C14.1166 17.3399 13.7081 17.356 13.3136 17.186C12.6749 16.9104 12.3141 16.5149 12.1302 15.919C12.2944 15.9673 12.4432 16.0049 12.5878 16.0586ZM14.1896 14.337C14.2135 14.8148 14.2345 15.2497 14.2556 15.6774C14.0071 15.3553 13.9706 14.8166 14.1896 14.337ZM6.49373 26.1251C6.43336 26.3237 6.39686 26.5367 6.33228 26.7318C6.30561 26.8105 6.23401 26.9071 6.17505 26.9161C5.78338 26.9805 5.45769 27.2382 5.1348 27.4888C4.99442 27.5979 4.88913 27.5908 4.7698 27.4726C4.72628 27.4297 4.67855 27.3778 4.62661 27.3617C4.24056 27.2489 3.9275 26.9483 3.59619 26.7031C3.34771 26.5188 3.15398 26.2181 2.90831 26.0249C2.64017 25.8137 2.46048 25.5274 2.34958 25.1712C2.27096 24.9207 2.22042 24.654 2.17971 24.3892C2.10531 23.9096 1.94667 23.5051 1.63923 23.1955C1.3374 22.8931 1.04681 22.5709 0.750597 22.256C0.579328 22.0734 0.57652 21.9768 0.698655 21.7495C0.919058 21.3325 1.20685 21.0176 1.54377 20.7581C1.80629 20.5541 2.08986 20.3572 2.28921 20.0709C2.61631 19.602 3.06554 19.6199 3.47265 19.4713C3.71832 19.3819 3.98084 19.3747 4.23354 19.3121C4.2939 19.296 4.34444 19.2065 4.39779 19.1492C4.33742 19.1045 4.27705 19.0222 4.21529 19.0204C3.64813 19.0025 3.10204 19.151 2.56577 19.3711C2.44504 19.4212 2.3594 19.4087 2.24288 19.3246C1.993 19.1403 1.70942 19.0293 1.46515 18.8342C1.25037 18.6642 1.06365 18.4316 0.881154 18.2079C0.785693 18.0898 0.809558 17.9233 0.919058 17.8356C1.18438 17.6227 1.40058 17.3507 1.58588 17.0321C1.6996 16.8371 1.86525 16.8084 2.03231 16.7923C2.67527 16.7297 3.31823 16.6796 3.95979 16.6134C4.03419 16.6062 4.16194 16.54 4.16755 16.4863C4.183 16.3002 4.05104 16.3091 3.95277 16.3109C3.35894 16.3181 2.76511 16.3324 2.17129 16.3431C2.1404 16.3431 2.10811 16.3324 2.06179 16.3234C2.20638 15.9727 2.32992 15.6255 2.49277 15.3105C2.54471 15.2103 2.69633 15.1638 2.80723 15.1495C3.3084 15.0815 3.81098 15.0349 4.31355 14.9794C4.36409 14.9741 4.42025 14.992 4.46377 14.9687C4.51711 14.9401 4.56063 14.881 4.60977 14.8345C4.56063 14.788 4.5129 14.7038 4.46236 14.7021C3.99348 14.6734 3.52319 14.6591 3.0529 14.643C2.98131 14.6412 2.90831 14.6573 2.79179 14.6716C2.81425 14.5643 2.81565 14.4712 2.84934 14.4068C2.94902 14.2171 3.06273 14.0417 3.16802 13.8556C3.35192 13.5334 3.54004 13.2131 3.71552 12.882C3.89521 12.5438 4.16194 12.3792 4.44552 12.236C4.80771 12.0534 5.1685 11.8638 5.53069 11.6794C5.56719 11.6615 5.60509 11.6365 5.64159 11.6347C6.14276 11.615 6.64253 11.5023 7.14511 11.6401C7.36271 11.6991 7.58592 11.7027 7.76982 11.9031C7.81755 11.955 7.93126 11.9693 7.99303 11.9353C8.25836 11.7904 8.48859 11.9514 8.73005 12.0356C9.03188 12.1394 9.30422 12.372 9.63413 12.3648C9.6959 12.3631 9.75907 12.4364 9.81943 12.4812C9.9163 12.551 10.0104 12.6315 10.1086 12.6977C10.263 12.8033 10.4203 12.8999 10.5761 13.0037C10.6252 13.0359 10.666 13.0896 10.7165 13.1201C11.125 13.3688 11.3833 13.8484 11.7301 14.192C11.7497 14.2117 11.7581 14.2475 11.7904 14.3173C11.636 14.3173 11.5097 14.3119 11.3833 14.3191C11.2415 14.3262 11.1629 14.4497 11.111 14.5983C11.0604 14.745 11.0983 14.8953 11.2078 14.9401C11.3468 14.9938 11.3398 15.119 11.3819 15.2658C11.3187 15.2604 11.2808 15.264 11.2457 15.2533C10.6519 15.0707 10.0609 14.8828 9.46567 14.7074C9.33651 14.6698 9.19893 14.6663 9.06557 14.6752C9.01924 14.6788 8.95467 14.7522 8.93922 14.8112C8.92799 14.8524 8.97432 14.958 9.01222 14.9759C9.21438 15.0743 9.41653 15.1781 9.62711 15.2371C10.256 15.4143 10.8892 15.5682 11.5195 15.7418C11.5911 15.7615 11.6683 15.8349 11.7104 15.9118C11.9182 16.2894 12.1105 16.6814 12.3169 17.059C12.3646 17.1449 12.446 17.2003 12.5457 17.3077C12.2228 17.3775 11.9378 17.4294 11.6543 17.5028C11.2219 17.6155 10.7895 17.7283 10.3627 17.8679C10.0174 17.9806 9.67484 18.1166 9.33932 18.2741C9.15963 18.3582 8.99257 18.4996 8.83113 18.6338C8.78901 18.6696 8.78199 18.777 8.75953 18.8504C8.81568 18.8486 8.87886 18.8682 8.92799 18.845C9.26772 18.6803 9.59622 18.471 9.94438 18.3421C10.5396 18.1238 11.1447 17.943 11.7497 17.7694C12.1035 17.6674 12.4657 17.6048 12.8237 17.5296C12.877 17.5189 12.9416 17.5117 12.9865 17.5404C13.301 17.7497 13.6295 17.7927 13.9776 17.7336C14.0984 17.714 14.2275 17.782 14.3974 17.8195C14.3412 17.9645 14.3174 18.1077 14.25 18.1864C14.0127 18.4656 13.7699 18.7412 13.5101 18.9846C13.1774 19.296 12.8349 19.5895 12.4825 19.8615C12.2902 20.01 12.074 20.1192 11.8592 20.2122C11.5855 20.3321 11.3047 20.4324 11.0225 20.5147C10.7951 20.5791 10.5593 20.6077 10.3276 20.6417C10.1142 20.674 9.89384 20.665 9.68466 20.7205C9.32668 20.8153 8.99397 20.9818 8.73005 21.3379C8.41138 21.7692 8.20782 22.2542 8.11938 22.843C8.04497 23.3333 7.83019 23.7521 7.53117 24.0849C7.0314 24.6379 6.72957 25.3538 6.49373 26.1251ZM20.0675 26.6405C19.871 26.8105 19.6997 27.0288 19.5228 27.2328C19.1157 27.6999 18.717 28.1778 18.3071 28.6413C18.0586 28.9204 18.0319 28.9348 17.8087 28.6037C17.5785 28.2601 17.3946 27.8664 17.191 27.4941C17.1461 27.4118 17.1096 27.3241 17.0591 27.2489C17.0394 27.2185 16.9931 27.2185 16.9594 27.2024C16.9496 27.2472 16.9215 27.3008 16.9313 27.3349C17.1307 28.0006 17.3005 28.6896 17.7666 29.1602C17.8129 29.2068 17.8789 29.3124 17.8649 29.3446C17.8199 29.4519 17.7568 29.5933 17.6782 29.622C17.5546 29.6667 17.4255 29.6667 17.2823 29.5647C17.1461 29.4681 16.9383 29.4519 16.7811 29.5021C16.3824 29.6291 16.0637 29.9512 15.7563 30.2913C15.4755 30.6027 15.1877 30.9105 14.7919 30.9677C14.7118 30.9785 14.6402 31.0626 14.5602 31.0876C14.2893 31.1718 14.0169 31.2487 13.7432 31.3203C13.6028 31.3579 13.5144 31.2523 13.4329 31.1199C13.3585 30.9982 13.2855 30.8639 13.1873 30.7834C13.1185 30.7261 13.0062 30.7601 12.9177 30.7369C12.8265 30.7118 12.717 30.6957 12.6524 30.6241C12.4881 30.4398 12.4811 30.1016 12.6033 29.8707C12.6398 29.8027 12.6678 29.715 12.6749 29.6327C12.7296 29.0099 12.7801 28.3853 12.8293 27.7608C12.8335 27.7053 12.8349 27.6391 12.8152 27.5926C12.7914 27.5371 12.7436 27.4959 12.7057 27.4494C12.6805 27.5013 12.6384 27.5514 12.6299 27.6069C12.5429 28.1956 12.4629 28.7844 12.3786 29.375C12.3744 29.4018 12.359 29.4251 12.352 29.443C12.227 29.409 12.1077 29.3857 11.994 29.341C11.9547 29.3249 11.9196 29.2622 11.8957 29.2121C11.8466 29.1101 11.8283 28.9598 11.7595 28.9061C11.5827 28.763 11.6346 28.5733 11.6529 28.3818C11.6865 28.0221 11.7048 27.6588 11.7539 27.3008C11.796 26.993 11.8747 26.6942 11.9266 26.3882C11.9406 26.3023 11.9154 26.2074 11.9084 26.1161C11.841 26.1734 11.7385 26.211 11.7118 26.2915C11.4956 26.9322 11.3272 27.6087 11.3665 28.3012C11.3945 28.7952 11.177 29.094 11.0183 29.4555C11.0001 29.4985 10.9692 29.5325 10.9467 29.5736C10.8049 29.8421 10.5396 29.8134 10.3964 29.5343C10.1985 29.1459 10.2069 28.7397 10.2687 28.3084C10.3585 27.691 10.4133 27.0664 10.5045 26.449C10.5691 26.0088 10.6688 25.5757 10.753 25.139C10.767 25.0638 10.7825 24.9869 10.7979 24.9117C10.8372 24.7095 10.8793 24.5162 11.0295 24.3874C11.0955 24.3301 11.1447 24.2335 11.1924 24.1476C11.285 23.9776 11.2598 23.829 11.1306 23.7002C11.0015 23.5713 10.8527 23.5463 10.7516 23.6966C10.5298 24.0241 10.2869 24.3355 10.2855 24.824C10.2855 25.0263 10.2406 25.2392 10.1788 25.4271C9.97245 26.0696 10.0216 26.7658 9.89243 27.4225C9.81943 27.7948 9.72959 28.1634 9.64255 28.5321C9.63132 28.5804 9.59482 28.6323 9.55832 28.6574C9.27615 28.8524 8.99257 29.0475 8.70478 29.23C8.60651 29.2927 8.4942 29.3464 8.38611 29.3553C8.00005 29.3875 7.62242 29.5897 7.22513 29.4287C7.04684 29.3571 6.93734 29.2104 6.87136 29.0099C6.72115 28.55 6.73378 28.0578 6.73519 27.5729C6.73519 27.4959 6.80257 27.3885 6.86013 27.351C7.11703 27.1792 7.1409 27.0593 6.9584 26.7801C6.93453 26.7425 6.91769 26.6655 6.93032 26.6244C7.06369 26.2181 7.18301 25.7994 7.35007 25.4164C7.47922 25.1211 7.66313 24.8616 7.83861 24.6021C7.9832 24.3892 8.18676 24.2281 8.30047 23.9937C8.44788 23.6912 8.53211 23.3369 8.64582 23.0076C8.7497 22.7034 8.82411 22.3741 8.9659 22.1021C9.1877 21.6726 9.5513 21.4936 9.93595 21.4256C10.2294 21.3737 10.5284 21.3612 10.8246 21.3594C11.1405 21.3576 11.4044 21.1589 11.6851 21.0301C11.9308 20.9173 12.1695 20.7724 12.4067 20.6292C12.8251 20.3769 13.2532 20.146 13.5972 19.7326C13.6112 19.7147 13.6365 19.7129 13.6575 19.704C13.6702 19.7219 13.6814 19.7398 13.694 19.7577C13.3838 20.112 13.0749 20.4646 12.7647 20.8189C12.7787 20.8404 12.7914 20.8619 12.8054 20.8833C13.1999 20.6238 13.5677 20.3107 13.8555 19.8668C14.1363 19.4338 14.396 18.981 14.6739 18.5229C14.7834 18.7788 14.7357 18.9398 14.5602 19.0257C14.5265 19.0418 14.4872 19.0776 14.4746 19.117C14.2809 19.763 13.8527 20.1693 13.5115 20.665C13.4568 20.7438 13.4371 20.8619 13.4006 20.9621C13.475 20.9191 13.5663 20.8977 13.621 20.8297C13.9987 20.3482 14.4254 19.9187 14.6459 19.262C14.5855 19.8489 14.4802 20.4163 14.2626 20.937C14.0478 21.4506 13.8176 21.9535 13.5621 22.5316C13.6618 22.485 13.7488 22.4797 13.7783 22.4242C14.0619 21.8945 14.3847 21.388 14.5967 20.8135C14.7736 20.3339 14.8157 19.7738 14.914 19.2494C14.9322 19.1546 14.9364 19.0544 14.9856 18.947C15.0052 19.0275 15.0305 19.1081 15.0431 19.1904C15.1723 20.0243 15.2692 20.8672 15.4376 21.6887C15.578 22.3687 15.7998 23.0219 15.9893 23.6859C16.0132 23.77 16.0567 23.8559 16.1101 23.9131C16.1423 23.9489 16.2097 23.931 16.2603 23.9382C16.2645 23.8809 16.2841 23.8129 16.2687 23.7664C15.877 22.6121 15.6538 21.397 15.4839 20.1639C15.3773 19.398 15.293 18.6267 15.1948 17.8589C15.1849 17.7838 15.1386 17.7157 15.133 17.6424C15.1288 17.5923 15.1667 17.5368 15.1863 17.4849C15.2172 17.5171 15.2635 17.5439 15.2762 17.5851C15.2986 17.6567 15.3085 17.739 15.3085 17.816C15.3071 18.2168 15.5036 18.5211 15.6089 18.87C15.6875 19.1331 15.8419 19.2584 16.0132 19.3783C16.4638 19.6986 16.9425 19.8507 17.4592 19.7756C17.4971 19.7702 17.5378 19.7738 17.5757 19.7863C17.9814 19.9062 18.3885 20.019 18.7914 20.1532C18.9234 20.1979 19.0385 20.3107 19.1676 20.3697C19.3291 20.4413 19.4989 20.4789 19.6604 20.5505C19.7909 20.6077 19.9271 20.6686 20.0366 20.7706C20.3146 21.0319 20.5841 21.3111 20.8452 21.5992C20.9126 21.6726 20.9421 21.8014 20.9884 21.9052C21.0642 22.0788 21.1457 22.2488 21.2102 22.4278C21.571 23.4192 21.4054 24.3677 21.0347 25.2822C20.8129 25.8387 20.4788 26.2844 20.0675 26.6405ZM31.2014 23.0416C31.1579 23.0559 31.1144 23.0828 31.0708 23.0828C30.6974 23.0738 30.491 23.3816 30.2735 23.7109C30.0194 24.0957 29.7231 24.4142 29.2697 24.3212C28.9721 24.2603 28.666 24.2693 28.3656 24.2263C28.1508 24.1959 27.9389 24.1082 27.7241 24.0867C27.5374 24.067 27.3478 24.0939 27.1611 24.1243C27.1092 24.1333 27.0306 24.2209 27.0278 24.2782C27.0235 24.3534 27.0685 24.4697 27.119 24.5019C27.2201 24.5699 27.3394 24.5986 27.4531 24.6361C27.7283 24.7256 28.0245 24.7596 28.273 24.9153C28.4569 25.0298 28.6422 25.0871 28.8303 25.1569C28.857 25.1676 28.878 25.207 28.9005 25.2321C28.8766 25.2661 28.8542 25.3233 28.8261 25.3287C28.3095 25.4397 28.0273 25.8978 27.7943 26.4365C27.6258 26.8266 27.352 27.0557 27.0306 27.1935C26.8186 27.283 26.594 27.3259 26.3848 27.4279C26.1841 27.5263 25.9959 27.6659 25.8064 27.7984C25.6113 27.9344 25.4204 28.0793 25.2224 28.2243C25.1312 28.1062 25.0385 27.9541 24.922 27.8431C24.5289 27.4691 24.0825 27.2865 23.5926 27.2704C23.4746 27.2668 23.4157 27.3527 23.4213 27.4726C23.4255 27.5442 23.4943 27.6498 23.549 27.6713C23.8059 27.7679 24.0741 27.8216 24.3296 27.9254C24.5036 27.9952 24.6679 28.1115 24.8293 28.2243C24.9992 28.3424 25.002 28.4623 24.8658 28.6341C24.4671 29.1406 24.0011 29.2479 23.4774 29.0189C23.1602 28.8793 22.8415 28.7451 22.5256 28.6073C22.4849 28.5894 22.4456 28.5554 22.4091 28.5249C22.1705 28.3245 21.9248 28.1813 21.623 28.2243C21.4026 28.2565 21.1751 28.278 20.9589 28.235C20.7933 28.2028 20.6248 28.0901 20.4887 27.9594C20.3848 27.8592 20.3188 27.682 20.257 27.5245C20.2332 27.4637 20.2542 27.3563 20.2809 27.2865C20.3062 27.2203 20.3595 27.1648 20.4086 27.1201C20.761 26.8087 21.0502 26.4007 21.2973 25.973C21.5514 25.5345 21.7788 25.0531 21.8799 24.5001C21.995 23.8648 21.9753 23.2313 21.8953 22.596C21.8757 22.4439 21.8293 22.2918 21.7746 22.1522C21.5893 21.6779 21.4236 21.1804 21.0249 20.912C21.0109 20.903 20.9968 20.8851 20.9884 20.869C20.8059 20.5469 20.5939 20.2749 20.2851 20.1532C20.1517 20.1013 20.1616 19.9957 20.2458 19.8794C20.2682 19.849 20.2977 19.8114 20.3005 19.7738C20.309 19.6843 20.3328 19.5501 20.2977 19.5107C20.243 19.4481 20.1363 19.4087 20.0661 19.432C19.944 19.4731 19.8359 19.5769 19.7165 19.6378C19.6393 19.6771 19.5523 19.6879 19.4695 19.7112C19.4638 19.6897 19.4568 19.67 19.4512 19.6485C19.6323 19.5197 19.8148 19.3908 19.9945 19.2602C20.1265 19.1653 20.2584 19.0723 20.3876 18.972C20.5013 18.8826 20.5532 18.7483 20.4858 18.5891C20.4185 18.428 20.3019 18.4674 20.2065 18.53C19.9847 18.6768 19.7755 18.8611 19.5495 18.9917C19.287 19.1438 19.016 19.3031 18.7353 19.3693C18.5598 19.4105 18.3604 19.287 18.1723 19.2387C18.1695 19.2172 18.1653 19.1957 18.1625 19.1761C18.2158 19.1474 18.2692 19.0991 18.3239 19.0937C18.9837 19.0383 19.527 18.6392 20.038 18.1488C20.0829 18.1059 20.1405 18.0593 20.1559 18.0003C20.177 17.9162 20.1924 17.7891 20.1573 17.7336C20.1265 17.6835 20.0127 17.6728 19.9566 17.705C19.8457 17.7676 19.753 17.8804 19.6449 17.9556C19.3277 18.1757 19.0188 18.4226 18.6861 18.5909C18.1667 18.8557 17.6683 18.7645 17.2303 18.292C17.2023 18.2616 17.184 18.215 17.1321 18.1256C17.2247 18.1363 17.2809 18.1291 17.33 18.1488C17.4648 18.2025 17.5981 18.2705 17.7315 18.3278C17.768 18.3439 17.8087 18.3439 17.8466 18.36C18.5345 18.6589 19.0413 18.2347 19.5074 17.6728C19.6786 17.467 19.8359 17.2451 19.9945 17.025C20.0703 16.9194 20.1995 16.7923 20.104 16.6509C20.0057 16.5042 19.9117 16.6867 19.8401 16.7637C19.6351 16.982 19.4344 17.2129 19.242 17.4491C18.922 17.8428 18.5528 17.9824 18.1077 17.8034C18.1498 17.782 18.1962 17.7319 18.2327 17.7408C18.6665 17.85 18.9178 17.4903 19.1775 17.1556C19.2434 17.0697 19.2968 16.9659 19.3473 16.8639C19.3726 16.8138 19.4049 16.7261 19.388 16.6903C19.2743 16.4398 19.4133 16.293 19.527 16.1606C19.8597 15.7722 20.191 15.3785 20.549 15.0296C20.8031 14.7808 21.0614 14.5231 21.3927 14.4265C21.5121 14.3907 21.6103 14.2529 21.7282 14.192C22.0848 14.0041 22.4442 13.818 22.8443 13.8538C22.8499 13.8538 22.8555 13.8556 22.8612 13.852C23.2444 13.673 23.6375 13.7607 24.0249 13.8019C24.3183 13.8323 24.6089 13.9164 24.8981 13.9934C25.2491 14.0864 25.5958 14.1956 25.9454 14.2976C26.0001 14.3137 26.0577 14.3191 26.1068 14.3495C26.3708 14.5142 26.6389 14.6734 26.8944 14.8578C27.324 15.1674 27.7493 15.4841 28.1691 15.8152C28.5397 16.1069 28.878 16.4773 29.2669 16.7136C29.58 16.9033 29.8326 17.1645 30.0895 17.4366C30.2159 17.569 30.1934 17.8124 30.0755 17.952C29.9815 18.0629 29.9225 18.2222 29.8411 18.3546C29.7793 18.4566 29.7217 18.5962 29.6375 18.6356C29.462 18.7179 29.2711 18.7555 29.0844 18.7913C28.8668 18.8325 28.6464 18.8629 28.426 18.879C28.221 18.8933 28.0147 18.8808 27.8083 18.8808C27.4686 18.8826 27.1274 18.879 26.7877 18.8897C26.6206 18.8951 26.4522 18.9255 26.2865 18.9595C26.243 18.9685 26.2079 19.0347 26.1686 19.0741C26.2121 19.1081 26.2542 19.1707 26.2978 19.1707C26.6614 19.1743 27.0264 19.1582 27.39 19.1617C27.6469 19.1653 27.9024 19.1975 28.1593 19.2083C28.2814 19.2136 28.4049 19.2172 28.5257 19.194C28.8443 19.1331 29.1307 19.3121 29.4311 19.3819C29.5519 19.4105 29.6726 19.4338 29.7933 19.4606C29.8144 19.466 29.8467 19.4588 29.8579 19.4749C30.0797 19.7899 30.4082 19.9492 30.5949 20.325C30.6876 20.5129 30.8406 20.6507 30.9571 20.8225C31.2112 21.1965 31.3319 21.6332 31.3179 22.1307C31.3123 22.349 31.3081 22.5709 31.3277 22.7875C31.3404 22.9378 31.3025 23.0058 31.2014 23.0416Z" fill="black"/>
</svg>
