<svg width="48" height="48" viewBox="0 0 48 48" fill="none" xmlns="http://www.w3.org/2000/svg">
<path d="M23.9999 1.91992C11.8168 1.91992 1.91992 11.8168 1.91992 23.9999C1.91992 36.183 11.8168 46.0799 23.9999 46.0799C36.183 46.0799 46.0799 36.183 46.0799 23.9999C46.0799 11.8168 36.183 1.91992 23.9999 1.91992ZM23.9999 3.83992C35.1454 3.83992 44.1599 12.8545 44.1599 23.9999C44.1599 35.1454 35.1454 44.1599 23.9999 44.1599C12.8545 44.1599 3.83992 35.1454 3.83992 23.9999C3.83992 12.8545 12.8545 3.83992 23.9999 3.83992ZM23.9849 6.7068C23.7306 6.71077 23.4883 6.81547 23.3112 6.99791C23.134 7.18035 23.0364 7.42563 23.0399 7.67992V21.2868C22.4788 21.4852 21.9929 21.8526 21.649 22.3384C21.3052 22.8243 21.1204 23.4047 21.1199 23.9999C21.1208 24.429 21.2175 24.8524 21.403 25.2393L15.6412 31.0012C15.549 31.0896 15.4755 31.1956 15.4248 31.3128C15.3741 31.4301 15.3474 31.5562 15.3461 31.684C15.3448 31.8117 15.369 31.9384 15.4172 32.0566C15.4655 32.1749 15.5369 32.2823 15.6272 32.3726C15.7175 32.4629 15.825 32.5343 15.9432 32.5826C16.0615 32.6309 16.1882 32.6551 16.3159 32.6538C16.4436 32.6525 16.5698 32.6257 16.687 32.575C16.8043 32.5244 16.9102 32.4508 16.9987 32.3587L22.7605 26.5968C23.1474 26.7823 23.5709 26.879 23.9999 26.8799C24.7637 26.8799 25.4963 26.5765 26.0364 26.0364C26.5765 25.4963 26.8799 24.7637 26.8799 23.9999C26.8791 23.405 26.6941 22.825 26.3503 22.3395C26.0065 21.8541 25.5208 21.487 24.9599 21.2887V7.67992C24.9617 7.55148 24.9376 7.424 24.8892 7.30502C24.8409 7.18603 24.7691 7.07797 24.6782 6.98723C24.5872 6.89649 24.479 6.82492 24.36 6.77675C24.2409 6.72858 24.1134 6.70479 23.9849 6.7068V6.7068Z" fill="#9D6796"/>
</svg>
