<svg width="96" height="96" viewBox="0 0 96 96" fill="none" xmlns="http://www.w3.org/2000/svg">
<path d="M18.2579 5.99721L9.07147 18.8549C8.96235 19.0078 8.89742 19.1877 8.8838 19.375C8.87018 19.5624 8.90839 19.7498 8.99426 19.9168C9.08012 20.0839 9.21032 20.224 9.37058 20.322C9.53083 20.4199 9.71496 20.4718 9.90277 20.4721L35.8708 20.497L46.7539 5.14941H19.9051C19.5829 5.1495 19.2653 5.22646 18.9789 5.37391C18.6924 5.52137 18.4452 5.73505 18.2579 5.99721Z" fill="#9D6796"/>
<path d="M86.5679 18.9395L77.3215 5.99721C77.1341 5.735 76.8868 5.52129 76.6002 5.37384C76.3136 5.22639 75.9959 5.14945 75.6736 5.14941H48.8401L59.6902 20.5318L85.7344 20.5567C85.9224 20.5569 86.1069 20.5053 86.2675 20.4076C86.4281 20.3098 86.5586 20.1697 86.6448 20.0025C86.7309 19.8354 86.7693 19.6478 86.7558 19.4602C86.7422 19.2727 86.6772 19.0925 86.5679 18.9395V18.9395Z" fill="#9D6796"/>
<path d="M56.9852 23.7232L49.8152 13.5586V44.8616H75.6737C76.3699 44.8616 77.0376 44.5851 77.5298 44.0928C78.0221 43.6005 78.2987 42.9328 78.2987 42.2366V24.6001L58.6374 24.5812C58.3135 24.5805 57.9945 24.5023 57.707 24.353C57.4196 24.2037 57.172 23.9878 56.9852 23.7232V23.7232Z" fill="#9D6796"/>
<path d="M36.9167 24.5485H36.9137L17.28 24.5645V42.2365C17.28 42.9327 17.5566 43.6003 18.0489 44.0926C18.5412 44.5849 19.2088 44.8615 19.905 44.8615H45.765V13.5449L38.5682 23.6941C38.381 23.9579 38.1334 24.1731 37.8461 24.3217C37.5588 24.4704 37.2401 24.5481 36.9167 24.5485V24.5485Z" fill="#9D6796"/>
<path d="M22.6578 55.7251H12.8207C12.6151 55.7251 12.4116 55.7656 12.2218 55.8442C12.0319 55.9229 11.8594 56.0382 11.7141 56.1835C11.5688 56.3289 11.4535 56.5014 11.3749 56.6913C11.2963 56.8812 11.2558 57.0847 11.2559 57.2902V90.8627C11.2558 91.2778 11.4207 91.6759 11.7141 91.9694C12.0076 92.263 12.4056 92.4279 12.8207 92.428H22.6578C23.1059 92.4281 23.5496 92.3399 23.9636 92.1685C24.3775 91.9971 24.7537 91.7458 25.0706 91.429C25.3874 91.1122 25.6388 90.7361 25.8103 90.3221C25.9817 89.9081 26.07 89.4645 26.07 89.0164V59.1364C26.07 58.6883 25.9817 58.2447 25.8102 57.8308C25.6387 57.4169 25.3873 57.0408 25.0705 56.724C24.7536 56.4072 24.3775 56.156 23.9635 55.9846C23.5495 55.8132 23.1059 55.725 22.6578 55.7251V55.7251Z" fill="#9D6796"/>
<path d="M84.4919 59.6672C83.9718 58.8753 83.2629 58.2254 82.4289 57.7761C81.595 57.3268 80.6623 57.0921 79.715 57.0933H75.86C74.2059 57.0899 72.5884 57.5793 71.2137 58.4991C69.839 59.4189 68.7695 60.7274 68.1417 62.2577C67.7692 63.1474 67.25 63.9684 66.6059 64.6865C65.5109 66.3675 64.0293 67.7621 62.2851 68.7534C60.5409 69.7447 58.5847 70.3041 56.58 70.3847L45.1616 70.3854C44.6245 70.3854 44.1094 70.1721 43.7297 69.7923C43.3499 69.4125 43.1366 68.8975 43.1366 68.3604C43.1366 67.8233 43.3499 67.3083 43.7297 66.9285C44.1094 66.5488 44.6245 66.3354 45.1616 66.3354H56.5259C57.986 66.298 59.4045 65.8415 60.6125 65.0205V64.9518C60.6164 63.9213 60.4169 62.9002 60.0253 61.947C59.6337 60.9938 59.0578 60.1273 58.3306 59.3972C57.6033 58.6671 56.7391 58.0877 55.7875 57.6924C54.8358 57.297 53.8155 57.0934 52.785 57.0933H44.406C42.8749 57.089 41.3581 57.3877 39.9429 57.9723C38.5278 58.5568 37.2423 59.4156 36.1605 60.4992L35.9466 60.7122C34.3613 62.2952 32.3255 63.3497 30.1179 63.7313V86.0981H60.675C65.2057 86.1008 69.6375 84.7739 73.4211 82.2817C77.2047 79.7895 80.1737 76.2416 81.96 72.078L84.9702 65.0717C85.3456 64.202 85.4984 63.2524 85.4149 62.3089C85.3314 61.3653 85.0142 60.4574 84.4919 59.6672V59.6672Z" fill="#9D6796"/>
</svg>
