<svg width="96" height="96" viewBox="0 0 96 96" fill="none" xmlns="http://www.w3.org/2000/svg">
<path d="M80.7094 29.0231L80.6531 28.6481H80.6325C80.1562 28.7212 79.6087 28.8243 79.005 28.9575C75.8309 29.6818 72.7355 30.7155 69.7631 32.0437C69.5274 31.2664 69.0324 30.5934 68.3606 30.1368C67.9068 29.8222 67.3875 29.6147 66.8419 29.53C66.2962 29.4452 65.7385 29.4854 65.2106 29.6475C66.9474 27.6249 67.9002 25.0459 67.8956 22.38V22.005H67.5206C64.8241 21.9997 62.2177 22.9753 60.1875 24.75C60.3576 24.2281 60.4079 23.6746 60.3349 23.1306C60.2619 22.5866 60.0673 22.066 59.7656 21.6075C59.73 21.5512 59.6906 21.4968 59.6512 21.4425C65.0775 14.88 69.6619 12.4518 71.925 11.5837C72.2231 11.4806 72.6637 11.3362 73.0819 11.2087H73.0912L73.1287 11.1993L72.9656 10.7268L72.915 10.4831C72.4901 10.5815 72.0733 10.7119 71.6681 10.8731C69.2531 11.7093 63.0562 14.235 56.9625 19.8C56.2165 18.8915 55.3304 18.1079 54.3375 17.4787L58.1662 15.5625C58.6782 15.31 59.1239 14.9411 59.4674 14.4852C59.811 14.0293 60.0428 13.4992 60.1444 12.9375C60.2491 12.3969 60.2256 11.8394 60.0758 11.3096C59.926 10.7798 59.6541 10.2925 59.2819 9.88684C59.2444 9.84559 59.205 9.80434 59.1656 9.76496L57.2812 7.87496L57.1594 7.75684C56.7532 7.38542 56.2658 7.11416 55.7361 6.96472C55.2064 6.81529 54.6491 6.79183 54.1087 6.89621C53.5662 6.99421 53.0529 7.21381 52.6074 7.53855C52.1618 7.86328 51.7956 8.28471 51.5362 8.77121C51.3321 6.1155 50.1818 3.62121 48.2944 1.74184L48.03 1.47559L47.7656 1.74184C45.853 3.64331 44.698 6.17599 44.5162 8.86684C44.2605 8.36677 43.8928 7.9325 43.4417 7.59785C42.9906 7.2632 42.4683 7.0372 41.9156 6.93746C41.3754 6.83328 40.8183 6.85666 40.2886 7.00575C39.759 7.15483 39.2715 7.4255 38.865 7.79621L38.7394 7.91621L36.8644 9.79121C36.8231 9.83246 36.7819 9.87371 36.7462 9.91496C36.3741 10.3206 36.1023 10.808 35.9528 11.3378C35.8033 11.8677 35.7803 12.4252 35.8856 12.9656C35.9871 13.5273 36.219 14.0574 36.5625 14.5133C36.9061 14.9692 37.3517 15.3382 37.8637 15.5906L41.7094 17.4975C40.7269 18.1295 39.8489 18.9108 39.1069 19.8131C33 14.25 26.8125 11.7187 24.39 10.8843C23.9849 10.7262 23.5688 10.5977 23.145 10.5L23.0625 10.8562L22.9406 11.2106L22.9875 11.2237C23.4037 11.34 23.8444 11.4862 24.1425 11.5987C26.3925 12.465 30.9619 14.8856 36.3619 21.3937C36.3206 21.4462 36.2812 21.5006 36.2437 21.5568C35.9286 22.0111 35.7207 22.531 35.6359 23.0774C35.5512 23.6237 35.5917 24.1822 35.7544 24.7106C33.7331 22.9725 31.1545 22.0189 28.4887 22.0237H28.1137V22.3987C28.1074 25.0965 29.0831 27.7045 30.8587 29.7356C30.3234 29.5568 29.7539 29.5045 29.195 29.5829C28.6361 29.6613 28.1029 29.8683 27.6375 30.1875C26.9777 30.6391 26.489 31.2995 26.25 32.0625C23.2731 30.7324 20.1733 29.6962 16.995 28.9687C16.3931 28.8375 15.8456 28.7343 15.3694 28.6612H15.3487L15.2925 29.0362L15.1987 29.3981C16.8394 29.8125 21.4125 31.8431 26.0831 34.875V35.7881C26.0831 35.8462 26.0831 35.9043 26.0831 35.9587C26.1076 36.5088 26.2606 37.0454 26.5299 37.5257C26.7992 38.006 27.1772 38.4165 27.6337 38.7243C28.1018 39.0517 28.6404 39.2642 29.2059 39.3446C29.7714 39.4251 30.3479 39.3713 30.8887 39.1875L31.5469 38.9662C32.7636 40.0116 33.8958 41.1513 34.9331 42.375C35.1485 43.3956 35.5584 44.3651 36.1406 45.2306C35.7758 46.052 35.7349 46.9809 36.0262 47.8312C36.1774 48.2915 36.4188 48.7171 36.7362 49.0831C37.0536 49.4491 37.4407 49.7483 37.875 49.9631L41.7206 51.8718C40.271 52.7903 39.0634 54.0436 38.1994 55.5262C36.2566 53.0225 34.034 50.749 31.575 48.75L31.545 48.7181H31.5281C31.2168 48.4468 30.888 48.1962 30.5437 47.9681L30.4537 47.9043H30.3337V48.24L30.0562 48.5343L30.1856 48.6543H30.2212C30.4837 48.8431 30.77 49.0606 31.08 49.3068L31.1137 49.3387C32.4037 50.4468 34.8844 53.0081 37.3162 57.8981C37.2264 58.3558 37.1812 58.8211 37.1812 59.2875V59.6625H37.5562C37.7437 59.6625 37.9425 59.6625 38.1337 59.6418C42.0469 68.4543 44.0325 80.1956 44.0325 94.5281H44.7825C44.7825 80.2106 42.8081 68.4506 38.9175 59.5612C39.276 59.5059 39.631 59.4295 39.9806 59.3325C44.5912 66.4968 46.9331 74.5687 46.9425 83.3325V94.5187H47.6925V83.3831C47.6925 83.3643 47.6925 83.3475 47.6925 83.3287V62.3662C47.8175 62.345 47.9356 62.3187 48.0469 62.2875C48.1631 62.3193 48.2812 62.3456 48.3994 62.3662V94.515H49.1494V83.3831C49.1494 74.5931 51.4931 66.5081 56.1131 59.325C56.4631 59.4235 56.8187 59.5005 57.1781 59.5556C53.2856 68.4431 51.3112 80.2031 51.3112 94.5243H52.0612C52.0612 80.1881 54.0469 68.4618 57.9619 59.6381C58.1494 59.6512 58.3519 59.6587 58.5487 59.6587H58.9237V59.2837C58.9227 58.7371 58.8598 58.1924 58.7362 57.66C61.1381 52.9012 63.5719 50.4056 64.8281 49.3293L64.8562 49.3068L64.8675 49.2975C65.2031 49.0312 65.5144 48.795 65.805 48.5925C65.8137 48.5886 65.8219 48.5835 65.8294 48.5775H65.8425C65.8571 48.5667 65.8709 48.5548 65.8837 48.5418L65.685 48.3431L65.61 48.2325V47.9062H65.4862L65.4019 47.9681C65.0533 48.1943 64.7213 48.445 64.4081 48.7181L64.38 48.7425C61.9546 50.7136 59.76 52.9529 57.8381 55.4175C56.9712 53.9815 55.78 52.7685 54.36 51.8756L58.1887 49.9406C59.029 49.521 59.6766 48.7955 59.9985 47.9133C60.3203 47.031 60.292 46.0589 59.9194 45.1968C60.4794 44.3405 60.8732 43.3864 61.08 42.3843C62.1257 41.1445 63.2693 39.9908 64.5 38.9343L65.115 39.1368C65.6553 39.3199 66.231 39.3739 66.7959 39.2945C67.3608 39.215 67.8993 39.0043 68.3681 38.6793C68.8245 38.3711 69.2023 37.9602 69.4713 37.4796C69.7402 36.999 69.8929 36.4621 69.9169 35.9118C69.9169 35.8575 69.9169 35.7993 69.9169 35.7431V34.8862C74.5856 31.845 79.1606 29.8125 80.8125 29.385L80.7094 29.0231ZM26.0869 32.9606C26.0869 33.0187 26.0869 33.075 26.0869 33.1331V33.9918C24.0814 32.7076 22.0042 31.5388 19.8656 30.4912C21.99 31.1327 24.0716 31.908 26.0981 32.8125L26.0869 32.9606ZM60.1406 25.8187C60.1575 25.8 60.1762 25.7812 60.2006 25.7587C62.0545 23.9248 64.5319 22.8575 67.1381 22.77C67.0671 24.6871 66.4697 26.5476 65.4113 28.1477C64.353 29.7478 62.8746 31.0257 61.1381 31.8412V29.3006L62.6287 27.8118L62.0981 27.2812L60.6075 28.77H58.0669C58.5806 27.6727 59.2824 26.6739 60.1406 25.8187V25.8187ZM55.5187 40.125C54.5944 41.0493 52.6819 41.7937 51.2906 41.4787C51.1522 40.8785 50.9641 40.2908 50.7281 39.7218L51.735 38.715L51.2044 38.1862L50.3962 38.9943C49.9274 38.0654 49.3303 37.207 48.6225 36.4443C48.852 35.6824 49.2521 34.9828 49.7925 34.3987C50.3194 33.8718 51.3281 33.6056 52.1737 33.5775C52.0749 34.1068 52.0698 34.6495 52.1587 35.1806L52.2675 35.8181C52.286 35.9286 52.2778 36.0419 52.2436 36.1486C52.2093 36.2553 52.15 36.3522 52.0706 36.4312C51.8898 36.6203 51.7902 36.8727 51.7931 37.1344C51.7961 37.396 51.9013 37.6461 52.0863 37.8311C52.2713 38.0162 52.5214 38.1214 52.7831 38.1243C53.0447 38.1273 53.2971 38.0277 53.4862 37.8468C53.5667 37.7693 53.6644 37.7119 53.7713 37.6793C53.8781 37.6468 53.9912 37.6399 54.1012 37.6593L54.7387 37.7662C55.2697 37.857 55.8127 37.8519 56.3419 37.7512C56.31 38.5818 56.0437 39.5906 55.5187 40.125ZM55.98 41.4262C55.7574 41.3474 55.5275 41.2908 55.2937 41.2575C55.5061 41.1203 55.7073 40.9667 55.8956 40.7981C55.9162 41.0006 55.9444 41.2106 55.98 41.4187V41.4262ZM52.1962 42.2943C51.9403 42.5522 51.7242 42.8466 51.555 43.1681C51.5306 42.8662 51.4969 42.5643 51.45 42.2681C51.6228 42.2907 51.7969 42.302 51.9712 42.3018C52.0462 42.2943 52.125 42.2906 52.1962 42.2868V42.2943ZM51.6337 51.4818C51.4285 50.7321 51.031 50.0489 50.4806 49.5L48.0431 47.0625L45.6056 49.5C45.0561 50.0492 44.6582 50.7313 44.4506 51.48C44.1801 52.4788 44.2704 53.5411 44.7056 54.48C44.61 54.5737 44.5181 54.6675 44.4206 54.78C43.9083 53.7113 43.7978 52.494 44.1094 51.3506C44.229 50.9135 44.4075 50.4946 44.64 50.1056C44.8568 49.7398 45.1189 49.4028 45.42 49.1025L48.045 46.4775L50.6606 49.1025C50.9623 49.4039 51.2255 49.7414 51.4444 50.1075C51.6675 50.4837 51.8414 50.887 51.9619 51.3075L51.9769 51.3637C52.287 52.5038 52.1751 53.7176 51.6619 54.7818C51.5681 54.675 51.4744 54.5756 51.3769 54.4818C51.8169 53.5424 51.9087 52.4771 51.6356 51.4762L51.6337 51.4818ZM47.5087 53.055L48.0544 53.6006L48.6 53.055C49.0264 52.6272 49.346 52.105 49.533 51.5307C49.7199 50.9564 49.769 50.3461 49.6762 49.7493L49.9575 50.0287C50.3427 50.4103 50.6389 50.8723 50.8247 51.3818C51.0105 51.8912 51.0814 52.4354 51.0323 52.9754C50.9832 53.5154 50.8153 54.0379 50.5407 54.5055C50.2661 54.973 49.8915 55.3741 49.4437 55.68L48.9169 56.055C48.7279 56.1895 48.5738 56.3672 48.4675 56.5733C48.3612 56.7795 48.3057 57.008 48.3056 57.24C48.3056 57.3066 48.2791 57.3705 48.232 57.4176C48.1849 57.4647 48.121 57.4912 48.0544 57.4912C47.9877 57.4912 47.9238 57.4647 47.8767 57.4176C47.8296 57.3705 47.8031 57.3066 47.8031 57.24C47.803 57.008 47.7475 56.7795 47.6412 56.5733C47.5349 56.3672 47.3808 56.1895 47.1919 56.055L46.665 55.68C46.2172 55.3741 45.8426 54.973 45.568 54.5055C45.2934 54.0379 45.1255 53.5154 45.0764 52.9754C45.0274 52.4354 45.0982 51.8912 45.2841 51.3818C45.4699 50.8723 45.766 50.4103 46.1512 50.0287L46.4306 49.7493C46.338 50.345 46.3868 50.954 46.5731 51.5273C46.7594 52.1006 47.078 52.622 47.5031 53.0493L47.5087 53.055ZM48.0375 48.1425L48.0544 48.1275L48.0712 48.1425C48.6507 48.7244 48.9761 49.5122 48.9761 50.3334C48.9761 51.1546 48.6507 51.9424 48.0712 52.5243L48.0562 52.5393L48.0412 52.5243C47.7524 52.2369 47.523 51.8955 47.3662 51.5194C47.2094 51.1433 47.1282 50.74 47.1274 50.3325C47.1265 49.9251 47.2059 49.5214 47.3611 49.1447C47.5163 48.7679 47.7442 48.4255 48.0319 48.1368L48.0375 48.1425ZM50.2256 47.58L48.4294 45.7837V43.6875H47.6794V45.795L45.885 47.5875C45.4715 46.4486 45.2608 45.246 45.2625 44.0343V43.95C45.2785 41.3424 46.2751 38.8363 48.0544 36.93C49.3597 38.3363 50.2528 40.0748 50.6358 41.955C51.0188 43.8351 50.8769 45.7845 50.2256 47.5893V47.58ZM40.4812 40.125C39.9562 39.5981 39.69 38.5893 39.6619 37.7437C40.1912 37.8425 40.7339 37.8476 41.265 37.7587L41.9025 37.65C42.0133 37.6316 42.1268 37.6398 42.2338 37.6741C42.3407 37.7083 42.438 37.7675 42.5175 37.8468C42.7066 38.0277 42.959 38.1273 43.2206 38.1243C43.4823 38.1214 43.7324 38.0162 43.9174 37.8311C44.1024 37.6461 44.2077 37.396 44.2106 37.1344C44.2135 36.8727 44.1139 36.6203 43.9331 36.4312C43.8538 36.3517 43.7946 36.2545 43.7603 36.1475C43.7261 36.0406 43.7178 35.927 43.7362 35.8162L43.845 35.1787C43.9339 34.6476 43.9288 34.105 43.83 33.5756C44.6756 33.6037 45.6844 33.87 46.2094 34.395C46.7689 35.0004 47.1786 35.7287 47.4056 36.5212C46.7129 37.2818 46.1292 38.135 45.6712 39.0562L44.7469 38.1318L44.2181 38.6625L45.3431 39.7875C45.1226 40.3271 44.9446 40.8832 44.8106 41.4506C43.4456 41.8125 41.4375 41.0812 40.4812 40.125ZM44.6475 42.255C44.595 42.5831 44.5594 42.9168 44.5369 43.2506C44.3564 42.8976 44.1203 42.5759 43.8375 42.2981H44.0119C44.2246 42.2987 44.4371 42.283 44.6475 42.2512V42.255ZM40.7419 41.2837C40.4955 41.3214 40.2536 41.3842 40.02 41.4712C40.0594 41.2518 40.0894 41.0306 40.1119 40.8075C40.3089 40.9816 40.5196 41.1396 40.7419 41.28V41.2837ZM44.625 21.3431C44.6587 21.2943 44.6925 21.2456 44.73 21.1968C44.8409 21.0468 44.9604 20.9035 45.0881 20.7675C45.3934 21.2115 45.7742 21.5986 46.2131 21.9112L46.74 22.2862C46.8315 22.3513 46.9061 22.4374 46.9577 22.5372C47.0092 22.637 47.0361 22.7476 47.0362 22.86C47.0362 23.1255 47.1417 23.3802 47.3295 23.568C47.5173 23.7557 47.7719 23.8612 48.0375 23.8612C48.303 23.8612 48.5577 23.7557 48.7455 23.568C48.9332 23.3802 49.0387 23.1255 49.0387 22.86C49.0388 22.7476 49.0658 22.637 49.1173 22.5372C49.1688 22.4374 49.2435 22.3513 49.335 22.2862L49.8619 21.9112C50.3013 21.5985 50.6821 21.2106 50.9869 20.7656C51.1141 20.9039 51.2337 21.0491 51.345 21.2006C51.3637 21.2231 51.3787 21.2475 51.3956 21.2718C50.9945 21.7545 50.7229 22.3314 50.6064 22.9482C50.49 23.5649 50.5325 24.2011 50.73 24.7968L51.105 25.9218C50.5012 26.8031 49.7587 27.3056 49.0519 27.3056C48.8369 27.3051 48.6226 27.2818 48.4125 27.2362V25.8018H47.6625V27.2362C47.4524 27.2818 47.2381 27.3051 47.0231 27.3056C46.2862 27.3056 45.5231 26.7675 44.9025 25.8225L45.2362 24.8081C45.4309 24.2253 45.4769 23.6031 45.3702 22.998C45.2634 22.3929 45.0073 21.8241 44.625 21.3431ZM51.6169 17.1C51.4107 16.3501 51.0126 15.667 50.4619 15.1181L48.5756 13.2318L48.03 12.6862L45.5925 15.1237C45.0436 15.6719 44.6457 16.3527 44.4375 17.1C44.1692 18.0953 44.2595 19.1532 44.6925 20.0887C44.595 20.1843 44.505 20.2762 44.4094 20.3906C43.8948 19.3226 43.7836 18.1047 44.0962 16.9612C44.3325 16.1106 44.7846 15.3355 45.4087 14.7112L48.0337 12.0862L50.6587 14.7112C51.2836 15.335 51.7359 16.1102 51.9712 16.9612C52.2846 18.1044 52.1741 19.3225 51.66 20.3906C51.5662 20.2837 51.4725 20.1806 51.3787 20.085C51.8062 19.1488 51.8905 18.0921 51.6169 17.1ZM47.4919 18.6731L48.0375 19.2187L48.5831 18.6731C49.0072 18.2455 49.3248 17.7242 49.5105 17.1514C49.6961 16.5785 49.7445 15.97 49.6519 15.375L49.9331 15.6562C50.3184 16.0378 50.6145 16.4998 50.8003 17.0093C50.9861 17.5187 51.057 18.0629 51.0079 18.6029C50.9588 19.1429 50.7909 19.6654 50.5163 20.133C50.2417 20.6005 49.8671 21.0016 49.4194 21.3075L48.8925 21.6825C48.7035 21.817 48.5495 21.9947 48.4431 22.2008C48.3368 22.407 48.2813 22.6355 48.2812 22.8675C48.2812 22.9341 48.2548 22.998 48.2076 23.0451C48.1605 23.0922 48.0966 23.1187 48.03 23.1187C47.9633 23.1187 47.8994 23.0922 47.8523 23.0451C47.8052 22.998 47.7787 22.9341 47.7787 22.8675C47.7787 22.6355 47.7232 22.407 47.6168 22.2008C47.5105 21.9947 47.3564 21.817 47.1675 21.6825L46.6406 21.3075C46.1915 21.0018 45.8156 20.6005 45.54 20.1324C45.2643 19.6642 45.0958 19.1409 45.0465 18.5998C44.9972 18.0588 45.0684 17.5136 45.2548 17.0034C45.4413 16.4931 45.7385 16.0305 46.125 15.6487L46.4062 15.3675C46.3126 15.9644 46.3615 16.5751 46.5489 17.1496C46.7362 17.7241 47.0568 18.2461 47.4844 18.6731H47.4919ZM48.0225 13.7606L48.0375 13.7456L48.0544 13.7625C48.6337 14.3441 48.959 15.1315 48.959 15.9525C48.959 16.7734 48.6337 17.5609 48.0544 18.1425L48.0394 18.1575L48.0244 18.1425C47.4423 17.5625 47.1143 16.7752 47.1125 15.9535C47.1108 15.1318 47.4354 14.343 48.015 13.7606H48.0225ZM47.0231 28.05C47.3658 28.0496 47.7069 28.0036 48.0375 27.9131C48.368 28.0036 48.7092 28.0496 49.0519 28.05C49.875 28.05 50.7037 27.5925 51.3956 26.7731L52.0931 28.875C50.7549 28.5817 49.3736 28.5417 48.0206 28.7568C46.6495 28.5414 45.2502 28.586 43.8956 28.8881L44.6137 26.7037C45.3112 27.5625 46.1625 28.05 47.0156 28.05H47.0231ZM53.1806 29.9456C52.8486 30.1955 52.546 30.4824 52.2787 30.8006C51.6535 30.2007 50.9274 29.7158 50.1337 29.3681C51.1697 29.4103 52.1938 29.6049 53.1731 29.9456H53.1806ZM51.165 30.8343L47.1506 31.0218L47.1862 31.7718L51.0487 31.5843C49.6046 32.7037 47.8284 33.3094 46.0012 33.3056H45.9712C45.6213 33.1356 45.2516 33.0096 44.8706 32.9306C44.5365 31.7406 43.8253 30.6912 42.8437 29.94C45.3862 29.0625 48.765 29.0268 51.1575 30.8343H51.165ZM51.375 32.2856C51.2867 32.5 51.2104 32.719 51.1462 32.9418C50.7641 33.0209 50.3931 33.1469 50.0419 33.3168H50.0231C49.8881 33.3168 49.7531 33.3168 49.6181 33.3056C50.2409 33.034 50.8304 32.6918 51.375 32.2856V32.2856ZM49.125 34.02C48.6496 34.5684 48.2791 35.1995 48.0319 35.8818L48.0037 35.9081C47.7529 35.2167 47.378 34.5768 46.8975 34.02C47.271 33.9805 47.6417 33.9179 48.0075 33.8325C48.3713 33.918 48.7402 33.9806 49.1119 34.02H49.125ZM44.0512 32.8312C43.9087 32.8312 43.7719 32.8181 43.6369 32.82C43.2823 31.852 42.5978 31.04 41.7037 30.5268C41.0277 30.1425 40.2632 29.9409 39.4856 29.9418H36.0319V33.375C36.0314 34.1523 36.2323 34.9165 36.615 35.5931C37.1294 36.4868 37.9418 37.1712 38.91 37.5262C38.91 37.6593 38.91 37.7981 38.9212 37.9406C37.8029 37.5485 36.8639 36.7654 36.2775 35.7356C35.8416 34.968 35.6128 34.1002 35.6137 33.2175V29.5237H39.315C40.1976 29.5234 41.0653 29.7521 41.8331 30.1875C42.8624 30.7746 43.6453 31.7133 44.0381 32.8312H44.0512ZM39.915 33.7893V33.8118H39.8925C39.0711 33.8103 38.2838 33.4833 37.7032 32.9023C37.1226 32.3213 36.796 31.5338 36.795 30.7125V30.6918H36.8156C37.6347 30.6963 38.4188 31.0244 38.997 31.6047C39.5751 32.1849 39.9004 32.9702 39.9019 33.7893H39.915ZM37.2806 35.2293C36.9616 34.6661 36.7943 34.0297 36.795 33.3825V32.985C37.1508 33.473 37.6168 33.8701 38.155 34.1441C38.6932 34.4181 39.2885 34.5612 39.8925 34.5618H40.665V33.7893C40.6644 33.1854 40.5213 32.5901 40.2473 32.0519C39.9733 31.5136 39.5761 31.0477 39.0881 30.6918H39.4856C40.0278 30.6888 40.564 30.8057 41.0556 31.0343C41.5473 31.2628 41.9823 31.5974 42.3294 32.0139C42.6766 32.4304 42.9273 32.9185 43.0635 33.4433C43.1998 33.9681 43.2182 34.5166 43.1175 35.0493L43.0106 35.6868C42.9721 35.9157 42.9888 36.1504 43.0593 36.3715C43.1297 36.5926 43.2519 36.7937 43.4156 36.9581C43.4389 36.9812 43.4573 37.0086 43.4698 37.0389C43.4824 37.0691 43.4888 37.1016 43.4887 37.1343C43.4886 37.201 43.4623 37.2649 43.4156 37.3125C43.3685 37.3593 43.3048 37.3856 43.2384 37.3856C43.172 37.3856 43.1083 37.3593 43.0612 37.3125C42.926 37.1774 42.7655 37.0703 42.5889 36.9972C42.4123 36.9242 42.223 36.8867 42.0319 36.8868C41.9508 36.8862 41.8698 36.8931 41.79 36.9075L41.1525 37.0143C40.4 37.1513 39.6236 37.0535 38.9286 36.7342C38.2336 36.4149 37.6537 35.8895 37.2675 35.2293H37.2806ZM54.8737 37.0125L54.2362 36.9037C54.0074 36.8657 53.7728 36.8826 53.5518 36.953C53.3308 37.0234 53.1297 37.1453 52.965 37.3087C52.9419 37.3324 52.9144 37.3511 52.8839 37.364C52.8535 37.3768 52.8208 37.3834 52.7878 37.3834C52.7548 37.3834 52.7221 37.3768 52.6916 37.364C52.6612 37.3511 52.6337 37.3324 52.6106 37.3087C52.5638 37.2616 52.5375 37.1979 52.5375 37.1315C52.5375 37.0651 52.5638 37.0014 52.6106 36.9543C52.7748 36.7907 52.8974 36.5899 52.9678 36.369C53.0383 36.1481 53.0547 35.9135 53.0156 35.685L52.9087 35.0475C52.8084 34.5146 52.8271 33.9662 52.9635 33.4415C53.0999 32.9168 53.3505 32.4286 53.6976 32.0121C54.0446 31.5955 54.4794 31.2608 54.9709 31.0319C55.4624 30.8031 55.9984 30.6856 56.5406 30.6881H56.9381C56.4501 31.0443 56.0529 31.5106 55.7789 32.0491C55.5049 32.5877 55.3618 33.1832 55.3612 33.7875V34.5581H56.1337C56.7376 34.5579 57.3328 34.4151 57.871 34.1414C58.4093 33.8677 58.8753 33.4709 59.2312 32.9831V33.375C59.2346 33.9173 59.1178 34.4537 58.8894 34.9456C58.661 35.4375 58.3265 35.8727 57.9099 36.2201C57.4934 36.5674 57.0052 36.8183 56.4802 36.9546C55.9553 37.091 55.4067 37.1094 54.8737 37.0087V37.0125ZM59.2106 30.6881H59.2312V30.7106C59.2302 31.5318 58.9036 32.3191 58.3229 32.8998C57.7422 33.4804 56.9549 33.8071 56.1337 33.8081H56.1112V33.7875C56.1122 32.968 56.4373 32.1822 57.0155 31.6016C57.5937 31.0209 58.3781 30.6925 59.1975 30.6881H59.2106ZM57.1031 37.5318C58.0718 37.1767 58.8844 36.4916 59.3981 35.5968C59.7769 34.9179 59.9732 34.1524 59.9681 33.375V29.9381H56.5275C55.75 29.9382 54.9858 30.1397 54.3094 30.5231C53.4166 31.0361 52.7324 31.8464 52.3762 32.8125C52.2412 32.8125 52.1044 32.8125 51.9619 32.8237C52.3562 31.7086 53.139 30.7727 54.1669 30.1875C54.9348 29.7524 55.8024 29.5238 56.685 29.5237H60.3862V33.2268C60.3869 34.1093 60.1588 34.9769 59.7244 35.745C59.1367 36.7741 58.1972 37.5564 57.0787 37.9481C57.0881 37.8037 57.0919 37.665 57.09 37.5318H57.1031ZM65.625 14.475C63.2459 16.3778 61.075 18.5273 59.1487 20.8875C58.7454 20.5264 58.2641 20.2633 57.7425 20.1187C60.1556 17.9548 62.7989 16.0622 65.625 14.475V14.475ZM56.7881 20.7412C56.8312 20.7412 56.8725 20.7412 56.9287 20.7412C56.985 20.7412 57.0112 20.7412 57.06 20.7412C57.4809 20.7805 57.8872 20.9153 58.2482 21.1353C58.6091 21.3552 58.9152 21.6546 59.1431 22.0106C59.3879 22.3832 59.5438 22.8072 59.5987 23.2496C59.6537 23.6921 59.6062 24.1413 59.46 24.5625L58.9875 25.9706C58.2711 26.8131 57.6846 27.7579 57.2475 28.7737H56.685C56.3563 28.7751 56.0283 28.804 55.7044 28.86V25.5712H54.9544V29.0343C54.6122 29.1383 54.2802 29.2732 53.9625 29.4375C53.6345 29.3014 53.2997 29.1825 52.9594 29.0812L51.4312 24.5625C51.2571 24.0392 51.2339 23.4774 51.3642 22.9416C51.4945 22.4057 51.7731 21.9173 52.1681 21.5325C52.6558 21.0532 53.3054 20.7742 53.9887 20.7506C54.03 20.7506 54.0712 20.7506 54.1144 20.7506L56.7881 20.7412ZM56.1356 19.9912H54.1144C54.0525 19.9912 53.9925 19.9912 53.9437 19.9912C53.4271 20.0144 52.9219 20.1514 52.4644 20.3925C52.8406 19.4776 52.9699 18.4799 52.8394 17.4993C53.0269 17.5893 53.2144 17.6868 53.3887 17.7843C54.419 18.3605 55.3445 19.1067 56.1262 19.9912H56.1356ZM51.54 10.4437L52.1569 9.20809C52.3577 8.80057 52.6513 8.44581 53.014 8.17228C53.3767 7.89876 53.7986 7.71408 54.2456 7.63309C54.6716 7.55067 55.111 7.56896 55.5286 7.68648C55.9463 7.804 56.3307 8.0175 56.6512 8.30996C56.685 8.33996 56.7187 8.37371 56.7525 8.40559L58.6275 10.2806L58.7231 10.38C59.016 10.7006 59.2297 11.0853 59.3473 11.5034C59.4648 11.9214 59.4828 12.3612 59.4 12.7875C59.3188 13.2349 59.1338 13.6571 58.86 14.0202C58.5861 14.3832 58.231 14.6771 57.8231 14.8781L53.5687 17.0381C53.2612 16.8731 52.9462 16.7231 52.6312 16.5918C52.5245 16.2466 52.3858 15.912 52.2169 15.5925L54.6637 13.1437L54.1331 12.6131L51.81 14.9362C51.6205 14.6692 51.4091 14.4183 51.1781 14.1862L50.7787 13.7887C51.2054 12.7202 51.4623 11.5916 51.54 10.4437V10.4437ZM45.2381 9.56246C45.2533 6.95528 46.2501 4.4495 48.03 2.54434C49.3354 3.95026 50.2285 5.68843 50.6115 7.56833C50.9945 9.44822 50.8526 11.3973 50.2012 13.2018L48.405 11.4056V9.30184H47.655V11.4075L45.8587 13.2037C45.4447 12.0617 45.2347 10.8559 45.2381 9.64121V9.56246ZM38.1881 14.9137C37.7813 14.7127 37.4271 14.4193 37.1539 14.0569C36.8808 13.6946 36.6962 13.2733 36.615 12.8268C36.5316 12.4001 36.5496 11.9598 36.6675 11.5413C36.7854 11.1228 36.9999 10.7379 37.2937 10.4175C37.3237 10.3837 37.3537 10.3518 37.3856 10.32L39.27 8.44496C39.3019 8.41309 39.3337 8.38121 39.3694 8.34934C39.6899 8.05642 40.0747 7.84277 40.4928 7.72554C40.911 7.60831 41.3507 7.59077 41.7769 7.67434C42.2246 7.75313 42.6477 7.93581 43.0121 8.20771C43.3764 8.47961 43.672 8.83315 43.875 9.23996L44.5369 10.5712C44.6254 11.6732 44.8782 12.7558 45.2869 13.7831L44.8894 14.1806C44.6572 14.4122 44.4452 14.6631 44.2556 14.9306L41.925 12.6131L41.3962 13.1437L43.845 15.5925C43.6771 15.909 43.539 16.2404 43.4325 16.5825C43.1081 16.7175 42.7875 16.8712 42.4725 17.04L38.1881 14.9137ZM43.2281 17.4937C43.0902 18.5075 43.2295 19.5397 43.6312 20.4806C43.1359 20.1887 42.5763 20.0232 42.0019 19.9987H41.8369H39.9244C40.8504 18.9553 41.973 18.1047 43.2281 17.4956V17.4937ZM30.4444 14.475C33.2628 16.0568 35.8992 17.9431 38.3062 20.1C37.7794 20.2299 37.2902 20.4809 36.8775 20.8331C34.9625 18.4935 32.8062 16.3624 30.4444 14.475V14.475ZM36.855 21.975C37.0957 21.6169 37.4166 21.32 37.7922 21.1078C38.1679 20.8955 38.5878 20.7739 39.0187 20.7525H41.8312H41.9681C42.3338 20.7682 42.6927 20.8566 43.024 21.0124C43.3552 21.1682 43.6521 21.3883 43.8975 21.66C44.2491 22.0452 44.4918 22.5172 44.6005 23.0273C44.7093 23.5374 44.6802 24.0673 44.5162 24.5625L43.0256 29.0981C42.6862 29.2012 42.3581 29.3175 42.045 29.4468C41.7258 29.2778 41.3911 29.1397 41.0456 29.0343V25.575H40.2956V28.8581C39.9717 28.8027 39.6436 28.7745 39.315 28.7737H38.7525C38.3011 27.7194 37.6888 26.7415 36.9375 25.875L36.4987 24.5625C36.3521 24.133 36.3079 23.6751 36.3698 23.2255C36.4316 22.7759 36.5978 22.347 36.855 21.9731V21.975ZM28.8619 22.7737C30.7792 22.8439 32.6401 23.441 34.2403 24.4994C35.8406 25.5579 37.1182 27.0368 37.9331 28.7737H35.3944L33.8944 27.2737L33.375 27.8137L34.8656 29.3043V31.8431C33.7678 31.3294 32.7683 30.6276 31.9125 29.7693L31.8525 29.7093C30.0187 27.8552 28.9508 25.3781 28.8619 22.7718V22.7737ZM34.7344 41.0175C33.9858 40.2026 33.196 39.4266 32.3681 38.6925L34.9612 37.8187C34.7343 38.8682 34.6579 39.9446 34.7344 41.0156V41.0175ZM30.6506 38.4787C30.2207 38.6252 29.7624 38.6686 29.3126 38.6054C28.8628 38.5422 28.4342 38.3742 28.0612 38.115C27.7004 37.8726 27.4015 37.5488 27.1889 37.1697C26.9762 36.7906 26.8556 36.3668 26.8369 35.9325C26.8369 35.8875 26.8369 35.8425 26.8369 35.7975V33.1312C26.8369 33.0862 26.8369 33.0412 26.8369 32.9943C26.8563 32.5605 26.9772 32.1372 27.1899 31.7585C27.4025 31.3798 27.7009 31.0562 28.0612 30.8137C28.4344 30.5549 28.863 30.3871 29.3127 30.324C29.7624 30.2608 30.2206 30.3039 30.6506 30.45L32.0587 30.9225C32.904 31.6398 33.852 32.2263 34.8712 32.6625V33.225C34.872 33.5536 34.9002 33.8816 34.9556 34.2056H31.665V34.9556H35.1281C35.233 35.2983 35.3698 35.6304 35.5369 35.9475C35.4056 36.2662 35.2875 36.6018 35.1825 36.9506L30.6506 38.4787ZM36.0394 36.7406C36.7918 37.7258 37.8451 38.4387 39.0394 38.7712C39.1173 39.1561 39.2433 39.5296 39.4144 39.8831V39.8962C39.4127 40.5855 39.3257 41.272 39.1556 41.94C39.0675 42.0056 38.9775 42.0806 38.88 42.1687L38.7619 42.2831L37.7644 43.2806L37.8675 41.0887L37.1175 41.0531L36.9731 44.0625L36.8737 44.1618L36.7556 44.2856C36.6881 44.3587 36.6262 44.4337 36.5681 44.5106C35.1244 42.1462 35.2275 39.0693 36.0394 36.7387V36.7406ZM38.2087 49.2937C37.8641 49.1237 37.5565 48.887 37.3039 48.5973C37.0512 48.3077 36.8585 47.9708 36.7369 47.6062C36.568 47.1303 36.5312 46.6176 36.6302 46.1224C36.7293 45.6272 36.9605 45.1681 37.2994 44.7937L37.395 44.6962L39.27 42.8212L39.3675 42.7256C39.4406 42.66 39.5137 42.6 39.5831 42.5381C39.9142 42.294 40.2949 42.1255 40.6982 42.0445C41.1016 41.9635 41.5178 41.972 41.9175 42.0693C42.3355 42.168 42.7267 42.3573 43.0633 42.624C43.4 42.8907 43.6739 43.2281 43.8656 43.6125L44.5275 44.9437C44.6151 46.0459 44.8679 47.1286 45.2775 48.1556L44.9006 48.5625C44.6683 48.7939 44.4563 49.0448 44.2669 49.3125L41.9456 46.9912L41.415 47.52L43.8619 49.9687C43.695 50.2861 43.5576 50.6181 43.4512 50.9606C43.1236 51.0966 42.8032 51.2493 42.4912 51.4181L38.2087 49.2937ZM37.6125 56.8125C37.0837 55.8037 36.555 54.8981 36.0394 54.0881C36.6225 54.7537 37.2244 55.4793 37.83 56.2668C37.7512 56.4506 37.6875 56.625 37.6125 56.8125ZM38.6006 58.8375L41.4619 56.2331L40.9575 55.6706L37.9969 58.3631C38.415 55.3931 40.8094 53.0306 43.2469 51.8587C43.0804 53.0888 43.32 54.3397 43.9294 55.4212C43.7139 55.7483 43.54 56.1011 43.4119 56.4712C43.4091 56.4759 43.4052 56.4797 43.4006 56.4825C42.1094 57.7837 40.4195 58.6148 38.6006 58.8431V58.8375ZM46.9444 74.9212C45.9229 69.2862 43.8081 63.9056 40.7194 59.0831C41.6392 58.7391 42.4962 58.2463 43.2562 57.6243C43.3687 59.5687 44.91 62.3362 46.9444 62.415V74.9212ZM48.7875 61.6556C48.6652 61.6449 48.5438 61.6268 48.4237 61.6012V60.1668H47.6737V61.6012C47.4636 61.6468 47.2493 61.6701 47.0344 61.6706C45.3881 61.6706 43.9987 59.0456 43.9987 57.3993C43.9987 56.6493 44.5237 55.7531 45.1012 55.1362C45.406 55.5807 45.7869 55.9679 46.2262 56.28L46.7531 56.655C46.8447 56.72 46.9194 56.806 46.971 56.9058C47.0225 57.0056 47.0494 57.1164 47.0494 57.2287C47.0494 57.4943 47.1548 57.7489 47.3426 57.9367C47.5304 58.1245 47.7851 58.23 48.0506 58.23C48.3162 58.23 48.5708 58.1245 48.7586 57.9367C48.9464 57.7489 49.0519 57.4943 49.0519 57.2287C49.0518 57.1164 49.0787 57.0056 49.1302 56.9058C49.1818 56.806 49.2565 56.72 49.3481 56.655L49.875 56.28C50.3149 55.9685 50.6958 55.5812 51 55.1362C51.5794 55.7531 52.1044 56.655 52.1044 57.3993C52.1044 59.0175 50.7656 61.5731 49.1569 61.665V61.6556H48.7875ZM49.1512 74.9212V62.415C51.1912 62.3362 52.7325 59.5593 52.8412 57.615C53.6018 58.2385 54.4594 58.7332 55.38 59.0793C52.2877 63.9039 50.1715 69.2879 49.1512 74.9268V74.9212ZM59.8987 54.0918C59.415 54.8512 58.92 55.695 58.4269 56.6287C58.3612 56.46 58.2919 56.2931 58.2169 56.13C58.7806 55.4012 59.3412 54.7237 59.8987 54.0975V54.0918ZM58.1137 58.3837L55.14 55.6875L54.6337 56.25L57.495 58.8525C55.6809 58.623 53.9955 57.7941 52.7062 56.4975L52.6875 56.4787C52.5614 56.1102 52.3887 55.7592 52.1737 55.4343C52.7804 54.3573 53.0199 53.1121 52.8562 51.8868C55.2862 53.0625 57.6994 55.4193 58.1137 58.3893V58.3837ZM57.8494 49.2562L53.5875 51.4143C53.2744 51.2456 52.9612 51.0975 52.65 50.9662C52.5432 50.6209 52.4045 50.2864 52.2356 49.9668L54.6844 47.5181L54.1537 46.9893L51.8306 49.3125C51.6396 49.0455 51.427 48.7947 51.195 48.5625L50.7975 48.165C51.2262 47.0943 51.4843 45.9631 51.5625 44.8125L52.1794 43.575C52.3692 43.1951 52.6391 42.8609 52.9706 42.5955C53.3021 42.33 53.6872 42.1397 54.0994 42.0375C54.4947 41.9373 54.907 41.9244 55.3079 41.9995C55.7087 42.0746 56.0884 42.236 56.4206 42.4725C56.5078 42.5341 56.5911 42.6011 56.67 42.6731L56.7731 42.7725L58.6575 44.6587C58.6894 44.6887 58.7194 44.7206 58.7531 44.7562C58.9518 44.972 59.1145 45.2182 59.235 45.4856C59.5318 46.1727 59.5535 46.9475 59.2956 47.6502C59.0378 48.3528 58.5201 48.9297 57.8494 49.2618V49.2562ZM59.4769 44.4581C59.4206 44.3887 59.3644 44.3193 59.3044 44.2537C59.2444 44.1881 59.2256 44.1693 59.1844 44.13L59.0231 43.9687L58.8862 41.0456L58.1362 41.0812L58.2356 43.1812L57.2981 42.2437C57.2606 42.2043 57.2212 42.1668 57.1762 42.1256C57.0738 42.0299 56.9648 41.9416 56.85 41.8612L56.835 41.8518C56.6765 41.2107 56.596 40.5529 56.595 39.8925V39.8737H56.5837C56.7551 39.5204 56.881 39.1468 56.9587 38.7618C58.1498 38.4341 59.2021 37.728 59.9569 36.75C60.7612 39.0525 60.8737 42.105 59.4769 44.4637V44.4581ZM61.2656 41.01C61.3395 39.9304 61.2593 38.8457 61.0275 37.7887L63.6637 38.6568C62.8243 39.4012 62.0238 40.1885 61.2656 41.0156V41.01ZM69.1631 35.7375C69.1631 35.7843 69.1631 35.8312 69.1631 35.8743C69.1448 36.3099 69.0241 36.7351 68.8107 37.1152C68.5973 37.4954 68.2973 37.82 67.935 38.0625C67.5617 38.3217 67.1328 38.4897 66.6827 38.5529C66.2326 38.6161 65.774 38.5727 65.3437 38.4262L60.8062 36.9262C60.7031 36.5868 60.5869 36.2587 60.4594 35.9475C60.6281 35.6281 60.7662 35.2935 60.8719 34.9481H64.335V34.1981H61.0519C61.1072 33.8741 61.1355 33.5461 61.1362 33.2175V32.655C62.1921 32.2022 63.1708 31.5873 64.0369 30.8325L65.3494 30.3937C65.7798 30.2481 66.2384 30.2053 66.6884 30.2688C67.1384 30.3323 67.5672 30.5003 67.9406 30.7593C68.3001 31.0021 68.5979 31.3255 68.8101 31.7038C69.0224 32.0821 69.1433 32.5048 69.1631 32.9381C69.1631 32.9831 69.1631 33.03 69.1631 33.0768V35.7375ZM69.9131 33.9862V33.075C69.9131 33.0187 69.9131 32.9625 69.9131 32.9043C69.9131 32.8462 69.9131 32.8368 69.9131 32.805C71.9403 31.9007 74.0226 31.1254 76.1475 30.4837C74.0047 31.5342 71.9232 32.7055 69.9131 33.9918V33.9862Z" fill="#9D6796"/>
</svg>
