<svg width="96" height="96" viewBox="0 0 96 96" fill="none" xmlns="http://www.w3.org/2000/svg">
<path d="M86.5726 10.0874H71.7488L53.4732 4.12493C52.3758 3.76584 51.2121 3.65592 50.0668 3.80317C48.9215 3.95043 47.8235 4.35115 46.8526 4.97618L35.8407 12.0506C35.7219 12.1268 35.6193 12.2256 35.5387 12.3415C35.4581 12.4574 35.4011 12.588 35.371 12.7259C35.3408 12.8638 35.3382 13.0062 35.3631 13.1452C35.388 13.2841 35.4401 13.4168 35.5163 13.5356C35.5925 13.6544 35.6914 13.757 35.8073 13.8376C35.9231 13.9182 36.0537 13.9752 36.1916 14.0053C36.3295 14.0354 36.472 14.0381 36.6109 14.0131C36.7499 13.9882 36.8825 13.9361 37.0013 13.8599L48.0132 6.79493C48.7164 6.34331 49.5116 6.0544 50.3408 5.9493C51.1699 5.8442 52.012 5.92556 52.8057 6.18743L71.2501 12.1874C71.3572 12.2226 71.4692 12.2404 71.5819 12.2399H85.5001V30.2981H77.5032C77.3062 30.2983 77.113 30.3526 76.9447 30.4551C76.7764 30.5576 76.6395 30.7043 76.5488 30.8793C75.3443 32.9168 73.5046 34.5029 71.3119 35.3943V30.5624C73.0351 29.8274 74.8744 28.5487 76.0482 26.3193C76.1143 26.1942 76.1551 26.0573 76.1683 25.9165C76.1816 25.7756 76.1669 25.6335 76.1252 25.4983C76.0835 25.3631 76.0156 25.2375 75.9253 25.1285C75.8351 25.0196 75.7242 24.9295 75.5991 24.8634C75.4741 24.7973 75.3372 24.7564 75.1963 24.7432C75.0554 24.73 74.9134 24.7447 74.7782 24.7864C74.643 24.8281 74.5173 24.896 74.4084 24.9862C74.2994 25.0765 74.2093 25.1873 74.1432 25.3124C72.0994 29.2199 67.0182 29.3943 66.9901 29.3943C60.1838 29.3943 58.2188 24.6431 58.1401 24.4462C58.0621 24.2433 57.9245 24.0689 57.7455 23.9457C57.5664 23.8225 57.3543 23.7565 57.1369 23.7562H47.0363C46.6533 23.766 46.2722 23.699 45.9155 23.5592C45.5587 23.4194 45.2336 23.2096 44.9592 22.9421C44.6849 22.6747 44.4668 22.355 44.3179 22.002C44.169 21.6489 44.0923 21.2696 44.0923 20.8865C44.0923 20.5033 44.169 20.1241 44.3179 19.771C44.4668 19.418 44.6849 19.0983 44.9592 18.8309C45.2336 18.5634 45.5587 18.3536 45.9155 18.2138C46.2722 18.074 46.6533 18.007 47.0363 18.0168H59.0926C59.2376 18.0229 59.3823 17.9995 59.518 17.9482C59.6538 17.8969 59.7777 17.8187 59.8825 17.7182C59.9872 17.6178 60.0705 17.4972 60.1275 17.3637C60.1844 17.2302 60.2137 17.0866 60.2137 16.9415C60.2137 16.7964 60.1844 16.6528 60.1275 16.5193C60.0705 16.3858 59.9872 16.2652 59.8825 16.1648C59.7777 16.0643 59.6538 15.9861 59.518 15.9348C59.3823 15.8835 59.2376 15.8601 59.0926 15.8662H47.0363C46.3689 15.8533 45.7056 15.9736 45.0852 16.2201C44.4648 16.4666 43.8998 16.8343 43.4232 17.3018C42.9466 17.7693 42.568 18.327 42.3096 18.9426C42.0512 19.5581 41.918 20.2189 41.918 20.8865C41.918 21.5541 42.0512 22.2149 42.3096 22.8304C42.568 23.4459 42.9466 24.0037 43.4232 24.4712C43.8998 24.9387 44.4648 25.3064 45.0852 25.5529C45.7056 25.7994 46.3689 25.9197 47.0363 25.9068H56.4638C57.3619 27.5549 60.2382 31.5449 67.0126 31.5449C67.7366 31.5128 68.4559 31.413 69.1613 31.2468V47.1843C69.1608 47.6049 68.9935 48.008 68.6962 48.3054C68.3988 48.6028 67.9956 48.7701 67.5751 48.7706H12.0882C11.6681 48.7701 11.2653 48.6034 10.9677 48.3069C10.6702 48.0103 10.502 47.6081 10.5001 47.1881V19.6031C10.5006 19.1825 10.6678 18.7793 10.9652 18.482C11.2626 18.1846 11.6658 18.0173 12.0863 18.0168H39.5044C39.6494 18.0229 39.7942 17.9995 39.9299 17.9482C40.0656 17.8969 40.1896 17.8187 40.2943 17.7182C40.3991 17.6178 40.4824 17.4972 40.5393 17.3637C40.5963 17.2302 40.6256 17.0866 40.6256 16.9415C40.6256 16.7964 40.5963 16.6528 40.5393 16.5193C40.4824 16.3858 40.3991 16.2652 40.2943 16.1648C40.1896 16.0643 40.0656 15.9861 39.9299 15.9348C39.7942 15.8835 39.6494 15.8601 39.5044 15.8662H12.0882C11.0982 15.8696 10.1497 16.2645 9.44965 16.9645C8.74959 17.6646 8.35478 18.613 8.35132 19.6031V47.1881C8.35478 48.1781 8.74959 49.1266 9.44965 49.8266C10.1497 50.5267 11.0982 50.9215 12.0882 50.9249H67.5751C68.5651 50.9215 69.5136 50.5267 70.2136 49.8266C70.9137 49.1266 71.3085 48.1781 71.3119 47.1881V37.6724C75.1669 36.4443 77.3251 33.6637 78.1126 32.4468H86.5726C86.8577 32.4468 87.1312 32.3337 87.3329 32.1322C87.5347 31.9308 87.6483 31.6575 87.6488 31.3724V11.1637C87.6488 10.8782 87.5354 10.6045 87.3336 10.4027C87.1318 10.2008 86.858 10.0874 86.5726 10.0874V10.0874Z" fill="#9D6796"/>
<path d="M15.6431 39.0617V27.7273C16.7744 27.5099 17.8144 26.9583 18.629 26.1438C19.4435 25.3292 19.9951 24.2892 20.2125 23.1579H38.5744C38.8518 23.1464 39.114 23.028 39.3062 22.8276C39.4984 22.6272 39.6057 22.3603 39.6057 22.0826C39.6057 21.805 39.4984 21.5381 39.3062 21.3377C39.114 21.1373 38.8518 21.0189 38.5744 21.0073H19.2394C18.9539 21.0073 18.6802 21.1207 18.4784 21.3226C18.2765 21.5244 18.1631 21.7981 18.1631 22.0836C18.1639 22.5562 18.0715 23.0244 17.8912 23.4614C17.711 23.8983 17.4464 24.2955 17.1126 24.6301C16.7788 24.9648 16.3823 25.2304 15.9458 25.4118C15.5094 25.5932 15.0414 25.6868 14.5687 25.6873C14.2862 25.6893 14.0158 25.8023 13.8159 26.0019C13.6159 26.2015 13.5025 26.4717 13.5 26.7542V40.0367C13.5 40.1779 13.5279 40.3178 13.582 40.4483C13.6361 40.5787 13.7154 40.6973 13.8153 40.7971C13.9153 40.8969 14.034 40.9759 14.1645 41.0298C14.2951 41.0837 14.435 41.1113 14.5762 41.1111C15.5294 41.1126 16.4431 41.492 17.1169 42.1661C17.7907 42.8403 18.1696 43.7542 18.1706 44.7073C18.1706 44.8486 18.1985 44.9884 18.2526 45.1189C18.3067 45.2494 18.386 45.3679 18.486 45.4677C18.5859 45.5675 18.7046 45.6466 18.8352 45.7005C18.9657 45.7543 19.1056 45.7819 19.2469 45.7817H60.4238C60.565 45.7819 60.7049 45.7543 60.8355 45.7005C60.966 45.6466 61.0847 45.5675 61.1847 45.4677C61.2846 45.3679 61.3639 45.2494 61.418 45.1189C61.4721 44.9884 61.5 44.8486 61.5 44.7073C61.501 43.7542 61.8799 42.8403 62.5537 42.1661C63.2276 41.492 64.1412 41.1126 65.0944 41.1111C65.2356 41.1113 65.3755 41.0837 65.5061 41.0298C65.6367 40.9759 65.7553 40.8969 65.8553 40.7971C65.9552 40.6973 66.0346 40.5787 66.0887 40.4483C66.1428 40.3178 66.1706 40.1779 66.1706 40.0367V35.1767C66.1767 35.0317 66.1534 34.887 66.102 34.7513C66.0507 34.6155 65.9725 34.4915 65.8721 34.3868C65.7716 34.2821 65.651 34.1987 65.5175 34.1418C65.384 34.0849 65.2404 34.0555 65.0953 34.0555C64.9502 34.0555 64.8066 34.0849 64.6731 34.1418C64.5396 34.1987 64.419 34.2821 64.3186 34.3868C64.2181 34.4915 64.1399 34.6155 64.0886 34.7513C64.0373 34.887 64.0139 35.0317 64.02 35.1767V39.0617C62.889 39.2796 61.8492 39.8313 61.0347 40.6458C60.2203 41.4603 59.6685 42.5001 59.4506 43.6311H20.2125C19.9946 42.5001 19.4429 41.4603 18.6284 40.6458C17.8139 39.8313 16.7741 39.2796 15.6431 39.0617V39.0617Z" fill="#9D6796"/>
<path d="M38.4188 29.8577H41.0063C41.2837 29.8461 41.5459 29.7278 41.7381 29.5274C41.9303 29.327 42.0376 29.0601 42.0376 28.7824C42.0376 28.5047 41.9303 28.2378 41.7381 28.0374C41.5459 27.837 41.2837 27.7187 41.0063 27.7071H40.1607V27.0152C40.1667 26.8702 40.1434 26.7255 40.0921 26.5898C40.0408 26.454 39.9625 26.33 39.8621 26.2253C39.7616 26.1206 39.641 26.0372 39.5076 25.9803C39.3741 25.9234 39.2305 25.894 39.0853 25.894C38.9402 25.894 38.7966 25.9234 38.6631 25.9803C38.5296 26.0372 38.4091 26.1206 38.3086 26.2253C38.2082 26.33 38.1299 26.454 38.0786 26.5898C38.0273 26.7255 38.004 26.8702 38.01 27.0152V27.7333C37.1261 27.8001 36.3039 28.2119 35.7211 28.8799C35.1383 29.5479 34.8417 30.4183 34.8954 31.3031C34.949 32.188 35.3487 33.0162 36.008 33.6088C36.6673 34.2014 37.5332 34.5108 38.4188 34.4702H39.75C40.0772 34.4702 40.3911 34.6002 40.6224 34.8316C40.8538 35.0629 40.9838 35.3767 40.9838 35.704C40.9838 36.0312 40.8538 36.345 40.6224 36.5764C40.3911 36.8077 40.0772 36.9377 39.75 36.9377H37.1663C37.0213 36.9317 36.8766 36.955 36.7408 37.0063C36.6051 37.0576 36.4811 37.1358 36.3764 37.2363C36.2717 37.3367 36.1883 37.4573 36.1314 37.5908C36.0745 37.7243 36.0451 37.8679 36.0451 38.013C36.0451 38.1581 36.0745 38.3018 36.1314 38.4352C36.1883 38.5687 36.2717 38.6893 36.3764 38.7898C36.4811 38.8902 36.6051 38.9684 36.7408 39.0197C36.8766 39.0711 37.0213 39.0944 37.1663 39.0883H38.01V39.7802C38.0216 40.0576 38.14 40.3198 38.3404 40.512C38.5408 40.7042 38.8077 40.8115 39.0853 40.8115C39.363 40.8115 39.6299 40.7042 39.8303 40.512C40.0307 40.3198 40.1491 40.0576 40.1607 39.7802V39.0565C41.0454 38.9905 41.8685 38.5788 42.452 37.9105C43.0355 37.2422 43.3323 36.371 43.2783 35.4855C43.2244 34.6 42.8239 33.7713 42.1636 33.1788C41.5033 32.5863 40.6362 32.2776 39.75 32.3196H38.4188C38.2531 32.326 38.0878 32.299 37.9328 32.2401C37.7778 32.1811 37.6363 32.0915 37.5168 31.9765C37.3973 31.8616 37.3022 31.7237 37.2373 31.5711C37.1723 31.4186 37.1389 31.2545 37.1389 31.0886C37.1389 30.9228 37.1723 30.7587 37.2373 30.6061C37.3022 30.4536 37.3973 30.3157 37.5168 30.2007C37.6363 30.0858 37.7778 29.9962 37.9328 29.9372C38.0878 29.8783 38.2531 29.8512 38.4188 29.8577V29.8577Z" fill="#9D6796"/>
<path d="M27.2305 32.6361C27.0318 32.8355 26.9188 33.1046 26.9155 33.3861C26.9154 33.4573 26.9229 33.5284 26.938 33.598C26.9512 33.6663 26.972 33.733 26.9999 33.7967C27.0256 33.8629 27.059 33.9258 27.0993 33.9842C27.1372 34.0424 27.1812 34.0965 27.2305 34.1455C27.2805 34.1955 27.3351 34.2407 27.3937 34.2805C27.4529 34.3189 27.5157 34.3516 27.5812 34.378C27.6467 34.4051 27.7144 34.4264 27.7837 34.4417C27.8529 34.4545 27.9232 34.4608 27.9937 34.4605C28.2784 34.4595 28.5512 34.3463 28.753 34.1455C28.803 34.096 28.8482 34.0421 28.888 33.9842C28.9255 33.9241 28.9587 33.8615 28.9874 33.7967C29.0122 33.732 29.0322 33.6656 29.0474 33.598C29.0619 33.5283 29.0688 33.4572 29.068 33.3861C29.0664 33.1741 29.0022 32.9673 28.8833 32.7918C28.7644 32.6163 28.5963 32.4798 28.4 32.3996C28.2038 32.3195 27.9882 32.2991 27.7804 32.3412C27.5727 32.3833 27.382 32.4859 27.2324 32.6361H27.2305Z" fill="#9D6796"/>
<path d="M50.7769 33.9939C50.8172 34.0514 50.8624 34.1053 50.9119 34.1551C51.0238 34.2679 51.1594 34.3545 51.3089 34.4084C51.4584 34.4623 51.618 34.4822 51.7761 34.4668C51.9343 34.4514 52.087 34.4009 52.2233 34.3191C52.3595 34.2373 52.4758 34.1262 52.5638 33.9939C52.6041 33.9354 52.6374 33.8725 52.6631 33.8064C52.6911 33.7426 52.7118 33.676 52.725 33.6076C52.7399 33.5392 52.7474 33.4695 52.7475 33.3995C52.7536 33.2545 52.7302 33.1098 52.6789 32.974C52.6276 32.8383 52.5494 32.7143 52.4489 32.6096C52.3485 32.5049 52.2279 32.4215 52.0944 32.3646C51.9609 32.3077 51.8173 32.2783 51.6722 32.2783C51.5271 32.2783 51.3835 32.3077 51.25 32.3646C51.1165 32.4215 50.9959 32.5049 50.8955 32.6096C50.795 32.7143 50.7168 32.8383 50.6655 32.974C50.6142 33.1098 50.5908 33.2545 50.5969 33.3995C50.5973 33.4693 50.6042 33.539 50.6175 33.6076C50.6324 33.6755 50.6531 33.742 50.6794 33.8064C50.7067 33.8714 50.7393 33.9341 50.7769 33.9939Z" fill="#9D6796"/>
<path d="M77.9081 59.5576C76.9043 58.7687 75.6411 58.3854 74.3682 58.4833C73.0953 58.5812 71.9056 59.1533 71.0343 60.0863L64.2337 67.4382C64.1311 67.5406 64.0502 67.6626 63.9959 67.797C63.9417 67.9315 63.9151 68.0754 63.9178 68.2204C63.9206 68.3653 63.9525 68.5082 64.0119 68.6404C64.0712 68.7727 64.1566 68.8916 64.263 68.99C64.3694 69.0885 64.4946 69.1644 64.631 69.2133C64.7675 69.2621 64.9124 69.2829 65.0571 69.2744C65.2018 69.2659 65.3433 69.2282 65.4731 69.1637C65.6029 69.0992 65.7183 69.0091 65.8124 68.8988L72.613 61.5469C73.1146 61.0093 73.7998 60.6798 74.5329 60.6235C75.266 60.5672 75.9935 60.7884 76.5712 61.2432C76.8742 61.4838 77.1263 61.7822 77.3129 62.1212C77.4996 62.4601 77.617 62.8327 77.6583 63.2174C77.6997 63.6021 77.6641 63.9912 77.5538 64.362C77.4434 64.7329 77.2605 65.0781 77.0155 65.3776L65.1768 79.8563C64.317 80.9107 63.0923 81.6034 61.7455 81.7969L38.8293 85.1138C37.6652 85.2857 36.5563 85.7231 35.5883 86.3922C34.6204 87.0613 33.8194 87.9442 33.2474 88.9726L32.6212 90.0976H11.5405L22.4605 73.9594C24.0231 71.6327 26.1925 69.7778 28.7337 68.5956C31.275 67.4134 34.0912 66.949 36.8774 67.2526C38.7252 67.4443 40.5451 67.8463 42.3018 68.4507C43.4952 68.8774 44.7525 69.098 46.0199 69.1032H56.9793C57.8194 69.1042 58.6248 69.4384 59.2188 70.0324C59.8129 70.6264 60.1471 71.4318 60.1481 72.2719C60.1471 73.1787 59.7864 74.048 59.1453 74.6892C58.5041 75.3303 57.6348 75.691 56.728 75.6919H46.6874C45.0439 75.6917 43.4521 76.2661 42.1874 77.3157L39.8287 79.2732C39.6177 79.458 39.4872 79.7179 39.4649 79.9975C39.4427 80.2771 39.5305 80.5544 39.7097 80.7702C39.8889 80.986 40.1452 81.1234 40.4241 81.153C40.7031 81.1826 40.9825 81.1022 41.203 80.9288L43.5599 78.9713C44.4361 78.2451 45.5382 77.8473 46.6762 77.8463H56.7243C58.2011 77.8443 59.6169 77.2568 60.6611 76.2125C61.7054 75.1683 62.2929 73.7525 62.2949 72.2757C62.2929 70.8655 61.7319 69.5137 60.7347 68.5165C59.7376 67.5194 58.3857 66.9583 56.9755 66.9563H46.0199C44.9971 66.9508 43.9826 66.7713 43.0199 66.4257C41.1083 65.7645 39.1273 65.3242 37.1155 65.1132C33.9399 64.7655 30.7296 65.2933 27.8324 66.6395C24.9352 67.9856 22.4615 70.0988 20.6793 72.7501L8.62305 90.5626C8.51135 90.7244 8.44614 90.9138 8.4345 91.1102C8.42287 91.3065 8.46525 91.5022 8.55705 91.6762C8.64885 91.8501 8.78655 91.9956 8.9552 92.0967C9.12385 92.1979 9.317 92.251 9.51367 92.2501H33.2549C33.4472 92.2488 33.6357 92.1959 33.8006 92.097C33.9655 91.998 34.1008 91.8567 34.1924 91.6876L35.1299 90.0001C35.5412 89.2616 36.1168 88.6275 36.8123 88.147C37.5077 87.6665 38.3043 87.3523 39.1405 87.2288L62.0624 83.9251C63.9417 83.6549 65.6509 82.6886 66.8512 81.2176L78.6899 66.7388C79.1164 66.219 79.4351 65.6195 79.6273 64.9752C79.8196 64.3309 79.8816 63.6547 79.8097 62.9862C79.7377 62.3177 79.5334 61.6702 79.2085 61.0815C78.8836 60.4928 78.4447 59.9748 77.9174 59.5576H77.9081Z" fill="#9D6796"/>
</svg>
