<svg width="96" height="96" viewBox="0 0 96 96" fill="none" xmlns="http://www.w3.org/2000/svg">
<path d="M87 93H57C56.5822 93.0017 56.1687 92.9161 55.786 92.7488C55.4032 92.5814 55.0596 92.336 54.7772 92.0281C54.4948 91.7203 54.2797 91.3569 54.1459 90.9611C54.0121 90.5654 53.9624 90.1461 54 89.73L60 23.73C60.0676 22.9821 60.4132 22.2866 60.9687 21.7812C61.5241 21.2757 62.249 20.997 63 21H81C81.751 20.997 82.4758 21.2757 83.0313 21.7812C83.5867 22.2866 83.9324 22.9821 84 23.73L90 89.73C90.0376 90.1461 89.9879 90.5654 89.854 90.9611C89.7202 91.3569 89.5052 91.7203 89.2228 92.0281C88.9404 92.336 88.5968 92.5814 88.214 92.7488C87.8312 92.9161 87.4177 93.0017 87 93V93ZM60.27 87H83.73L78.27 27H65.73L60.27 87Z" fill="#9D6796"/>
<path d="M57 93H8.99997C8.58222 93.0017 8.16872 92.9161 7.78595 92.7488C7.40318 92.5814 7.05959 92.336 6.77717 92.0281C6.49476 91.7203 6.27975 91.3569 6.14591 90.9611C6.01208 90.5654 5.96237 90.1461 5.99997 89.73L12 23.73C12.0676 22.9821 12.4132 22.2866 12.9687 21.7812C13.5241 21.2757 14.249 20.997 15 21H63C63.4177 20.9983 63.8312 21.0839 64.214 21.2513C64.5968 21.4186 64.9404 21.6641 65.2228 21.9719C65.5052 22.2797 65.7202 22.6432 65.854 23.0389C65.9879 23.4346 66.0376 23.854 66 24.27L60 90.27C59.9324 91.018 59.5867 91.7134 59.0313 92.2189C58.4758 92.7243 57.751 93.0031 57 93ZM12.27 87H54.27L59.73 27H17.73L12.27 87Z" fill="#9D6796"/>
<path d="M75 72H69V90H75V72Z" fill="#9D6796"/>
<path d="M51 39C50.2044 39 49.4413 38.6839 48.8787 38.1213C48.3161 37.5587 48 36.7956 48 36V18C48 15.6131 47.0518 13.3239 45.364 11.636C43.6761 9.94821 41.3869 9 39 9C36.6131 9 34.3239 9.94821 32.636 11.636C30.9482 13.3239 30 15.6131 30 18V36C30 36.7956 29.6839 37.5587 29.1213 38.1213C28.5587 38.6839 27.7956 39 27 39C26.2044 39 25.4413 38.6839 24.8787 38.1213C24.3161 37.5587 24 36.7956 24 36V18C24 14.0218 25.5804 10.2064 28.3934 7.3934C31.2064 4.58035 35.0218 3 39 3C42.9782 3 46.7936 4.58035 49.6066 7.3934C52.4196 10.2064 54 14.0218 54 18V36C54 36.7956 53.6839 37.5587 53.1213 38.1213C52.5587 38.6839 51.7956 39 51 39Z" fill="#9D6796"/>
<path d="M69 27C68.2044 27 67.4413 26.6839 66.8787 26.1213C66.3161 25.5587 66 24.7956 66 24V18C66 15.6131 65.0518 13.3239 63.364 11.636C61.6761 9.94821 59.3869 9 57 9C56.2044 9 55.4413 8.68393 54.8787 8.12132C54.3161 7.55871 54 6.79565 54 6C54 5.20435 54.3161 4.44129 54.8787 3.87868C55.4413 3.31607 56.2044 3 57 3C58.9698 3 60.9204 3.38799 62.7403 4.14181C64.5601 4.89563 66.2137 6.00052 67.6066 7.3934C68.9995 8.78628 70.1044 10.4399 70.8582 12.2597C71.612 14.0796 72 16.0302 72 18V24C72 24.7956 71.6839 25.5587 71.1213 26.1213C70.5587 26.6839 69.7956 27 69 27Z" fill="#9D6796"/>
</svg>
