<svg width="48" height="48" viewBox="0 0 48 48" fill="none" xmlns="http://www.w3.org/2000/svg">
<path d="M23.9999 1.91992C11.8168 1.91992 1.91992 11.8168 1.91992 23.9999C1.91992 36.183 11.8168 46.0799 23.9999 46.0799C36.183 46.0799 46.0799 36.183 46.0799 23.9999C46.0799 11.8168 36.183 1.91992 23.9999 1.91992ZM23.9999 3.83992C35.1454 3.83992 44.1599 12.8545 44.1599 23.9999C44.1599 35.1454 35.1454 44.1599 23.9999 44.1599C12.8545 44.1599 3.83992 35.1454 3.83992 23.9999C3.83992 12.8545 12.8545 3.83992 23.9999 3.83992ZM32.7243 13.4737C32.0677 13.4737 31.3298 13.6258 30.4668 13.9368C29.1266 14.4197 13.3638 21.1124 11.5705 21.8737C10.5453 22.3095 8.63617 23.1202 8.63617 25.0537C8.63617 26.3353 9.38715 27.2519 10.8655 27.7799C11.6604 28.0631 13.5483 28.6354 14.6437 28.9368C15.1083 29.0645 15.6021 29.1299 16.1099 29.1299C17.1035 29.1299 18.1034 28.8823 18.8868 28.4455C18.8801 28.6068 18.8845 28.7698 18.9037 28.933C19.0218 29.941 19.6433 30.8891 20.5649 31.4699C21.1678 31.8501 26.0921 35.1495 26.8274 35.6737C27.8604 36.4119 29.0023 36.8024 30.1274 36.8024C32.2778 36.8024 32.9993 34.5821 33.3468 33.5155C33.8508 31.9671 35.7381 19.3748 35.9512 17.1543C36.0961 15.6327 35.462 14.3797 34.2543 13.8018C33.8021 13.5839 33.2859 13.4737 32.7243 13.4737ZM32.7243 15.3937C32.9883 15.3937 33.224 15.4373 33.4237 15.5343C33.8778 15.7522 34.1088 16.238 34.0387 16.9724C33.8064 19.3945 31.9237 31.6885 31.5224 32.9212C31.1787 33.9753 30.8167 34.8824 30.1274 34.8824C29.4381 34.8824 28.6851 34.6408 27.943 34.1099C27.201 33.58 22.2732 30.2753 21.5887 29.8443C20.9887 29.4661 20.3537 28.5232 21.2474 27.6112C21.9837 26.8605 27.5691 21.4395 28.0462 20.9624C28.4014 20.6063 28.2353 20.1768 27.8868 20.1768C27.7668 20.1768 27.6231 20.2274 27.4743 20.3493C26.8906 20.8264 18.7533 26.2715 18.0487 26.7093C17.5821 26.9992 16.8597 27.208 16.1099 27.208C15.7902 27.208 15.4666 27.1697 15.1555 27.0843C14.0727 26.7857 12.2401 26.2297 11.5124 25.9705C10.8126 25.7209 10.558 25.4818 10.558 25.0537C10.558 24.445 11.4171 24.0249 12.3224 23.6399C13.2786 23.2338 29.8233 16.208 31.1174 15.7424C31.7165 15.5255 32.2645 15.3937 32.7243 15.3937Z" fill="#9D6796"/>
</svg>
