<svg width="48" height="48" viewBox="0 0 48 48" fill="none" xmlns="http://www.w3.org/2000/svg">
<path d="M23.9999 1.91992C11.8168 1.91992 1.91992 11.8168 1.91992 23.9999C1.91992 36.183 11.8168 46.0799 23.9999 46.0799C36.183 46.0799 46.0799 36.183 46.0799 23.9999C46.0799 11.8168 36.183 1.91992 23.9999 1.91992ZM23.9999 3.83992C35.1454 3.83992 44.1599 12.8545 44.1599 23.9999C44.1599 35.1454 35.1454 44.1599 23.9999 44.1599C12.8545 44.1599 3.83992 35.1454 3.83992 23.9999C3.83992 12.8545 12.8545 3.83992 23.9999 3.83992ZM14.4018 17.2799L10.528 17.2818C10.528 17.2818 10.3064 17.2693 10.0387 17.3043C9.77096 17.3393 9.37547 17.3555 8.96992 17.8143L8.96805 17.8162L8.96617 17.818C8.60544 18.2306 8.6192 18.7107 8.6643 18.9749C8.70922 19.2382 8.80981 19.4347 8.81055 19.4362V19.438C8.84779 19.5294 11.6604 26.421 15.2062 30.1237C17.7072 32.7372 20.3821 33.5999 22.7643 33.5999H23.9999C24.4064 33.5999 24.7695 33.5814 25.1718 33.373C25.5741 33.1647 25.9199 32.5896 25.9199 32.143C25.9199 31.6619 25.9317 31.1955 25.993 30.9355C26.0503 30.6928 26.0282 30.7524 26.0512 30.7518C26.0742 30.7568 26.1161 30.7665 26.1955 30.8024C26.3668 30.8798 26.6314 31.0527 26.9249 31.2805C27.511 31.7355 28.2052 32.3957 28.9837 32.9062C30.0987 33.6452 31.3087 33.5999 31.3087 33.5999H35.2987L35.3418 33.5962C35.3418 33.5962 35.954 33.5823 36.583 33.1968C36.8975 33.0041 37.2713 32.6505 37.3968 32.1205C37.5223 31.5906 37.3621 31.0346 37.0537 30.5455C36.941 30.3662 36.3941 29.5736 34.2112 27.6355C33.6472 27.1354 33.2626 26.7813 33.1105 26.593C33.0566 26.5262 33.052 26.5327 33.0412 26.5293C33.0539 26.4965 33.18 26.2309 33.5174 25.7924C33.8691 25.3355 34.4034 24.6987 35.0905 23.8237C35.9663 22.708 36.5808 21.6352 36.9674 20.7299C37.1608 20.2773 37.2978 19.8666 37.3799 19.4943C37.462 19.122 37.5276 18.8125 37.4062 18.3712C37.3156 18.0426 37.0697 17.7484 36.8287 17.593C36.5876 17.4377 36.3629 17.3792 36.1612 17.3418C35.7577 17.267 35.4018 17.2799 35.0699 17.2799C34.3751 17.2799 31.2861 17.3043 31.0312 17.3043C30.7319 17.3043 30.2546 17.4289 30.0337 17.5555C29.4853 17.8696 29.3137 18.2999 29.3137 18.2999L29.2612 18.3918L29.2312 18.4949C29.2312 18.4949 28.5278 20.7703 27.8043 21.943H27.8024C26.9517 23.3246 26.3171 23.8726 26.038 24.028C26.0084 24.0446 26.0248 24.0358 26.0043 24.0468C25.9825 23.9832 25.9549 23.8957 25.9368 23.7337C25.896 23.3687 25.9199 22.8546 25.9199 22.3574C25.9199 20.9804 26.0233 20.1217 25.9087 19.3087C25.8513 18.9022 25.7054 18.4495 25.3724 18.1012C25.0395 17.7529 24.6094 17.5815 24.1799 17.4824H24.178C23.7305 17.3793 23.2481 17.2908 22.0893 17.2799C20.6128 17.2662 19.6512 17.3119 18.7968 17.6924L18.7874 17.698L18.7799 17.7018C18.4423 17.8604 18.1762 18.0422 17.9418 18.2849C17.8246 18.4063 17.6856 18.4947 17.5893 18.8812C17.5412 19.0744 17.5359 19.44 17.7543 19.7362C17.9727 20.0323 18.2788 20.1217 18.4593 20.1449C18.426 20.1406 18.6013 20.1792 18.7368 20.2462C18.8723 20.3132 18.99 20.4096 19.0199 20.4487V20.4505C19.0074 20.4343 19.1375 20.7577 19.1718 21.0524C19.2061 21.3472 19.1999 21.5849 19.1999 21.5849L19.198 21.643L19.2037 21.7012C19.2037 21.7012 19.2626 22.3535 19.2318 23.0268C19.2164 23.3635 19.1738 23.7023 19.1174 23.9099C19.1144 23.9209 19.1131 23.9171 19.1099 23.9268C18.8696 23.7589 18.3153 23.174 17.5518 21.913C16.846 20.7466 16.1849 18.6487 16.1849 18.6487L16.1699 18.6018L16.153 18.5568C16.153 18.5568 16.0298 18.0881 15.4855 17.7055C14.9754 17.3464 14.4899 17.2968 14.4899 17.2968L14.4018 17.2799ZM14.1787 19.1999C14.2336 19.22 14.3484 19.2614 14.3699 19.2712L14.3474 19.2037C14.3474 19.2037 14.377 19.2715 14.3774 19.273C14.3777 19.2732 14.3811 19.2748 14.3812 19.2749V19.2768H14.383C14.3348 19.243 14.3757 19.2765 14.3812 19.2843C14.4077 19.3748 14.9939 21.3939 15.9093 22.9068C16.7432 24.284 17.3593 25.0556 18.0318 25.5168C18.7036 25.9775 19.607 25.9301 20.0662 25.6912C20.6798 25.3725 20.8514 24.8487 20.9699 24.4124C21.0885 23.9761 21.1308 23.5335 21.1499 23.1149C21.1865 22.3162 21.124 21.6628 21.118 21.598C21.119 21.562 21.1276 21.2499 21.0787 20.8293C21.0294 20.4055 20.9411 19.8788 20.5649 19.3499C20.9863 19.2873 21.2202 19.192 22.0705 19.1999C23.155 19.2101 23.32 19.2554 23.7468 19.3537C23.9792 19.4073 24.0051 19.4517 23.983 19.4287C23.961 19.4057 23.9811 19.3903 24.0074 19.5768C24.06 19.9498 23.9999 20.9063 23.9999 22.3574C23.9999 22.7665 23.9604 23.3433 24.028 23.9474C24.0956 24.5511 24.2843 25.3236 25.0143 25.7755C25.4302 26.033 26.2248 26.1215 26.9737 25.7043C27.7226 25.2871 28.491 24.4868 29.4374 22.9499C30.3723 21.4346 30.9313 19.4424 30.9918 19.2318C30.9918 19.2318 31.0025 19.2249 31.0087 19.2205C31.0256 19.2214 31.0041 19.2243 31.0312 19.2243C31.3868 19.2243 34.4208 19.1999 35.0699 19.1999C35.2485 19.1999 35.3269 19.2095 35.4599 19.2149C35.4062 19.4222 35.3339 19.6635 35.2012 19.9743C34.8892 20.7047 34.3538 21.652 33.5793 22.6387C32.9118 23.4887 32.3933 24.1053 31.9968 24.6205C31.6003 25.1358 31.2888 25.5423 31.1587 26.1299C31.0286 26.7176 31.2768 27.3804 31.6162 27.8005C31.9555 28.2207 32.3755 28.5745 32.9362 29.0718C35.0483 30.9469 35.3948 31.5145 35.428 31.5674V31.5693C35.4637 31.6258 35.4406 31.569 35.4543 31.5974C35.3345 31.6348 35.192 31.677 35.1787 31.6799H31.2937H31.288C31.288 31.6799 30.5735 31.6565 30.043 31.3049L30.0412 31.303H30.0393C29.4781 30.9355 28.7999 30.3052 28.1024 29.7637C27.7537 29.4929 27.3986 29.2392 26.9868 29.053C26.575 28.8669 26.053 28.7349 25.5037 28.8993C24.7085 29.1373 24.2673 29.894 24.1255 30.4949C24.0238 30.9263 24.0388 31.3014 24.0355 31.678C24.0082 31.6795 24.0319 31.6799 23.9999 31.6799H22.7643C20.8131 31.6799 18.7832 31.0843 16.5937 28.7962C13.7471 25.8236 11.2074 20.0751 10.8262 19.2018L14.1787 19.1999ZM30.9243 19.2074C30.9069 19.2113 30.9567 19.2151 30.9974 19.2187C30.9919 19.2217 30.9979 19.216 30.9899 19.2205C30.9891 19.2045 30.9477 19.2022 30.9243 19.2074Z" fill="#9D6796"/>
</svg>
