<svg width="48" height="48" viewBox="0 0 48 48" fill="none" xmlns="http://www.w3.org/2000/svg">
<path d="M23.9999 1.91992C11.8171 1.91992 1.91992 11.8171 1.91992 23.9999C1.91992 27.9159 2.99386 31.5704 4.78492 34.7605L1.95555 44.8612C1.91034 45.0228 1.9083 45.1935 1.94962 45.3561C1.99094 45.5188 2.07418 45.6678 2.19104 45.7883C2.3079 45.9087 2.4543 45.9964 2.61564 46.0427C2.77698 46.0889 2.94762 46.0921 3.11055 46.0518L13.6424 43.4418C16.7372 45.0939 20.2488 46.0799 23.9999 46.0799C36.1828 46.0799 46.0799 36.1828 46.0799 23.9999C46.0799 11.8171 36.1828 1.91992 23.9999 1.91992ZM23.9999 3.83992C35.1451 3.83992 44.1599 12.8548 44.1599 23.9999C44.1599 35.1451 35.1451 44.1599 23.9999 44.1599C20.4268 44.1599 17.0804 43.2284 14.1712 41.6005C13.9584 41.4817 13.7084 41.4481 13.4718 41.5068L4.24867 43.7924L6.7218 34.9687C6.75718 34.844 6.76696 34.7134 6.75052 34.5848C6.73409 34.4563 6.69179 34.3323 6.62617 34.2205C4.85818 31.2226 3.83992 27.7344 3.83992 23.9999C3.83992 12.8548 12.8548 3.83992 23.9999 3.83992ZM15.9768 12.4799C15.3614 12.4799 14.4825 12.7089 13.7605 13.4868C13.3269 13.954 11.5199 15.7147 11.5199 18.8099C11.5199 22.037 13.7581 24.8215 14.0287 25.1793H14.0305V25.1812C14.0049 25.1474 14.374 25.682 14.8668 26.323C15.3596 26.9641 16.0486 27.806 16.9143 28.7174C18.6456 30.5403 21.0799 32.647 24.1012 33.9355C25.4925 34.528 26.5902 34.8858 27.4218 35.1468C28.963 35.6307 30.3667 35.5572 31.4212 35.4018C32.2104 35.2856 33.0785 34.9066 33.9374 34.363C34.7963 33.8195 35.6381 33.1437 36.0093 32.1168C36.2752 31.3806 36.4104 30.7003 36.4593 30.1405C36.4837 29.8607 36.4868 29.6136 36.4687 29.3849C36.4505 29.1562 36.4699 28.981 36.2568 28.6312C35.8098 27.8973 35.3037 27.8782 34.7755 27.6168C34.4821 27.4716 33.6466 27.0636 32.8087 26.6643C31.9716 26.2654 31.2469 25.9122 30.8005 25.753C30.5186 25.6516 30.1742 25.5055 29.6774 25.5618C29.1806 25.6181 28.69 25.9765 28.4043 26.3999C28.1335 26.8013 27.0435 28.0879 26.7112 28.4662C26.7068 28.4635 26.7356 28.4768 26.6043 28.4118C26.1933 28.2084 25.6906 28.0354 24.9468 27.643C24.203 27.2507 23.2725 26.6713 22.2543 25.7737V25.7718C20.7388 24.4376 19.6773 22.7626 19.3424 22.1999C19.365 22.1731 19.3397 22.2056 19.3874 22.1587L19.3893 22.1568C19.7316 21.8197 20.0349 21.4171 20.2912 21.1218C20.6546 20.7032 20.8149 20.3341 20.9887 19.9893C21.3349 19.3021 21.1421 18.5459 20.9418 18.148V18.1462C20.9556 18.1737 20.8334 17.9041 20.7018 17.593C20.5698 17.2811 20.4015 16.8768 20.2218 16.4455C19.8624 15.5831 19.4611 14.6158 19.2224 14.0493V14.0474C18.9413 13.3801 18.5609 12.8994 18.0637 12.6674C17.5664 12.4355 17.1271 12.5014 17.1093 12.5005H17.1074C16.7526 12.4842 16.3632 12.4799 15.9768 12.4799ZM15.9768 14.3999C16.3469 14.3999 16.7118 14.4044 17.0174 14.4187C17.3318 14.4343 17.3123 14.4356 17.2518 14.4074C17.1904 14.3788 17.2737 14.3695 17.4524 14.7937C17.6861 15.3484 18.0894 16.3192 18.4499 17.1843C18.6302 17.6168 18.7989 18.0228 18.9337 18.3412C19.0684 18.6596 19.1414 18.8373 19.2262 19.0068V19.0087L19.228 19.0105C19.3111 19.1745 19.3038 19.0695 19.2749 19.1268C19.0723 19.5289 19.0448 19.6276 18.8399 19.8637C18.5279 20.2231 18.2096 20.624 18.0412 20.7899C17.8938 20.9347 17.6278 21.1603 17.4618 21.6018C17.2955 22.044 17.3731 22.6507 17.6399 23.1037C17.9952 23.7067 19.1658 25.6121 20.9849 27.2137C22.1306 28.2236 23.1979 28.892 24.0505 29.3418C24.9032 29.7916 25.5977 30.0543 25.753 30.1312C26.122 30.3138 26.5253 30.4556 26.9943 30.3993C27.4632 30.343 27.8676 30.0585 28.1249 29.7674L28.1268 29.7655C28.4693 29.3772 29.4871 28.215 29.9755 27.4987C29.9962 27.506 29.9895 27.5003 30.1518 27.5587V27.5605H30.1537C30.2278 27.5869 31.156 28.0024 31.9837 28.3968C32.8113 28.7912 33.6513 29.2011 33.9243 29.3362C34.3182 29.5311 34.5043 29.658 34.5524 29.6587C34.5557 29.7431 34.559 29.8347 34.5468 29.9737C34.5131 30.3592 34.4101 30.8929 34.2037 31.4643C34.1026 31.744 33.5759 32.3209 32.9118 32.7412C32.2477 33.1615 31.4393 33.4583 31.1399 33.5024C30.2398 33.635 29.1711 33.6835 27.9974 33.3149C27.1836 33.0595 26.1689 32.7288 24.8549 32.1693C22.1901 31.0328 19.9253 29.099 18.3074 27.3955C17.4985 26.5438 16.8504 25.751 16.3893 25.1512C15.9291 24.5525 15.7281 24.2409 15.5605 24.0205L15.5587 24.0187C15.2612 23.6253 13.4399 21.0919 13.4399 18.8099C13.4399 16.3948 14.5617 15.4477 15.1687 14.7937C15.4873 14.4503 15.8357 14.3999 15.9768 14.3999Z" fill="#9D6796"/>
</svg>
